<?xml version="1.0" encoding="utf-8" standalone="no"?>
<!DOCTYPE svg PUBLIC "-//W3C//DTD SVG 1.1//EN"
  "http://www.w3.org/Graphics/SVG/1.1/DTD/svg11.dtd">
<svg xmlns:xlink="http://www.w3.org/1999/xlink" width="172.8pt" height="172.8pt" viewBox="0 0 172.8 172.8" xmlns="http://www.w3.org/2000/svg" version="1.1">
 <metadata>
  <rdf:RDF xmlns:dc="http://purl.org/dc/elements/1.1/" xmlns:cc="http://creativecommons.org/ns#" xmlns:rdf="http://www.w3.org/1999/02/22-rdf-syntax-ns#">
   <cc:Work>
    <dc:type rdf:resource="http://purl.org/dc/dcmitype/StillImage"/>
    <dc:date>2026-10-06T21:51:34.187985</dc:date>
    <dc:format>image/svg+xml</dc:format>
    <dc:creator>
     <cc:Agent>
      <dc:title>Matplotlib v3.10.6, https://matplotlib.org/</dc:title>
     </cc:Agent>
    </dc:creator>
   </cc:Work>
  </rdf:RDF>
 </metadata>
 <defs>
  <style type="text/css">*{stroke-linejoin: round; stroke-linecap: butt}</style>
 </defs>
 <g id="figure_1">
  <g id="patch_1">
   <path d="M 0 172.8 
L 172.8 172.8 
L 172.8 0 
L 0 0 
z
" style="fill: #ffffff"/>
  </g>
  <g id="axes_1">
   <g id="patch_2">
    <path d="M 34.56 138.24 
L 165.888 138.24 
L 165.888 6.912 
L 34.56 6.912 
z
" style="fill: #ffffff"/>
   </g>
   <g id="line2d_1">
    <path d="M 34.56 72.576 
L 165.888 72.576 
" clip-path="url(#p6dc217b079)" style="fill: none; stroke: #b8bcc2; stroke-width: 0.6; stroke-linecap: square"/>
   </g>
   <g id="line2d_2">
    <path d="M 100.224 138.24 
L 100.224 6.912 
" clip-path="url(#p6dc217b079)" style="fill: none; stroke: #b8bcc2; stroke-width: 0.6; stroke-linecap: square"/>
   </g>
   <g id="matplotlib.axis_1">
    <g id="text_1">
     <!-- $x_1$ -->
     <g transform="translate(94.339 148.598281) scale(0.11 -0.11)">
      <defs>
       <path id="DejaVuSans-Oblique-78" d="M 3841 3500 
L 2234 1784 
L 3219 0 
L 2559 0 
L 1819 1388 
L 531 0 
L -166 0 
L 1556 1844 
L 641 3500 
L 1300 3500 
L 1972 2234 
L 3144 3500 
L 3841 3500 
z
" transform="scale(0.015625)"/>
       <path id="DejaVuSans-31" d="M 794 531 
L 1825 531 
L 1825 4091 
L 703 3866 
L 703 4441 
L 1819 4666 
L 2450 4666 
L 2450 531 
L 3481 531 
L 3481 0 
L 794 0 
L 794 531 
z
" transform="scale(0.015625)"/>
      </defs>
      <use xlink:href="#DejaVuSans-Oblique-78" transform="translate(0 0.3125)"/>
      <use xlink:href="#DejaVuSans-31" transform="translate(59.179688 -16.09375) scale(0.7)"/>
     </g>
    </g>
   </g>
   <g id="matplotlib.axis_2">
    <g id="text_2">
     <!-- $x_2$ -->
     <g transform="translate(30.272344 78.461) rotate(-90) scale(0.11 -0.11)">
      <defs>
       <path id="DejaVuSans-32" d="M 1228 531 
L 3431 531 
L 3431 0 
L 469 0 
L 469 531 
Q 828 903 1448 1529 
Q 2069 2156 2228 2338 
Q 2531 2678 2651 2914 
Q 2772 3150 2772 3378 
Q 2772 3750 2511 3984 
Q 2250 4219 1831 4219 
Q 1534 4219 1204 4116 
Q 875 4013 500 3803 
L 500 4441 
Q 881 4594 1212 4672 
Q 1544 4750 1819 4750 
Q 2544 4750 2975 4387 
Q 3406 4025 3406 3419 
Q 3406 3131 3298 2873 
Q 3191 2616 2906 2266 
Q 2828 2175 2409 1742 
Q 1991 1309 1228 531 
z
" transform="scale(0.015625)"/>
      </defs>
      <use xlink:href="#DejaVuSans-Oblique-78" transform="translate(0 0.3125)"/>
      <use xlink:href="#DejaVuSans-32" transform="translate(59.179688 -16.09375) scale(0.7)"/>
     </g>
    </g>
   </g>
   <g id="LineCollection_1">
    <path d="M 45.121343 132.270545 
L 45.121343 132.270545 
L 43.660517 128.098542 
L 42.409615 123.85895 
L 41.377265 119.560999 
L 40.529455 115.585911 
" clip-path="url(#p6dc217b079)" style="fill: none; stroke: #2f5f98; stroke-width: 0.75"/>
    <path d="M 49.713231 132.270545 
L 48.077864 128.163951 
L 46.657787 123.978104 
L 45.46268 119.722645 
L 44.502169 115.408296 
L 43.785811 111.046881 
L 43.323156 106.651449 
L 43.123319 102.236364 
L 43.195062 97.817444 
L 43.546702 93.412161 
L 44.185953 89.039534 
L 45.119593 84.720311 
L 46.353393 80.477343 
L 47.891856 76.335313 
L 49.737789 72.321159 
L 51.892064 68.464105 
L 54.35315 64.795669 
L 57.116582 61.349755 
L 60.174478 58.162758 
L 63.514645 55.273589 
L 67.119529 52.723521 
L 70.965738 50.556018 
L 75.022652 48.816211 
L 79.250606 47.550381 
L 83.53673 46.81143 
L 87.75478 46.618225 
L 91.822172 46.957488 
L 95.686095 47.808048 
L 99.266824 49.134965 
L 102.507626 50.897699 
L 105.344475 53.040454 
L 107.725417 55.499713 
L 109.605184 58.200936 
L 110.949079 61.055681 
L 111.736845 63.971954 
L 111.967941 66.855 
L 111.656109 69.588597 
L 110.839399 72.077146 
L 109.578605 74.21899 
L 107.953363 75.924192 
L 106.089537 77.110278 
L 104.109763 77.741446 
L 102.173599 77.798772 
L 100.436413 77.31389 
L 99.063136 76.369977 
L 98.196915 75.117281 
L 97.902754 73.777666 
L 98.194419 72.572366 
L 98.935977 71.794981 
L 99.78569 71.594053 
L 100.44972 71.900902 
L 100.44972 71.900902 
L 100.633907 72.397797 
L 100.366087 72.753631 
L 100.079094 72.56921 
L 100.351151 72.496586 
L 100.211847 72.668761 
L 100.175997 72.427767 
L 100.107376 72.577777 
L 100.362292 72.496545 
L 100.222474 72.666711 
L 100.151525 72.420638 
L 100.317422 72.577732 
L 100.070618 72.648526 
L 100.226927 72.482852 
L 100.293307 72.72863 
L 100.130622 72.567776 
L 100.372084 72.519446 
L 100.192333 72.66892 
L 100.206664 72.447561 
L 100.294291 72.706899 
L 100.134481 72.560495 
L 100.366145 72.537055 
L 100.234221 72.471136 
L 100.282159 72.717854 
L 100.131548 72.541483 
L 100.351269 72.562531 
L 100.093122 72.648446 
L 100.237539 72.486044 
L 100.267149 72.720382 
L 100.33413 72.581289 
L 100.082929 72.645368 
L 100.239932 72.483761 
L 100.264093 72.718702 
L 100.329927 72.585473 
L 100.081955 72.636064 
L 100.255295 72.483362 
L 100.241268 72.705866 
L 100.153136 72.445564 
L 100.313614 72.591233 
L 100.081454 72.615539 
L 100.214422 72.68159 
L 100.164329 72.434196 
L 100.316524 72.607905 
L 100.094679 72.592458 
L 100.354837 72.505047 
L 100.209057 72.665657 
L 100.183865 72.433195 
L 100.117694 72.567052 
L 100.365707 72.514859 
L 100.194594 72.668555 
L 100.204487 72.444677 
L 100.297586 72.698996 
L 100.134072 72.559651 
L 100.366432 72.538361 
L 100.235244 72.472519 
L 100.279641 72.718248 
L 100.131656 72.537155 
L 100.347989 72.566965 
L 100.091822 72.650942 
L 100.234228 72.485665 
L 100.274456 72.723676 
L 100.344279 72.569627 
L 100.090091 72.652109 
L 100.231789 72.485591 
L 100.280103 72.725827 
L 100.352742 72.557575 
L 100.096453 72.64748 
L 100.240149 72.486402 
L 100.261774 72.718009 
L 100.327571 72.587235 
L 100.081911 72.631691 
L 100.262796 72.483691 
L 100.233048 72.700016 
L 100.149066 72.443851 
L 100.314329 72.586244 
L 100.076341 72.626416 
L 100.2303 72.696221 
L 100.147844 72.442044 
L 100.314412 72.583707 
L 100.074099 72.632301 
L 100.2429 72.705044 
L 100.151944 72.45 
L 100.313666 72.592382 
L 100.082007 72.613386 
L 100.212454 72.679154 
L 100.169082 72.433828 
L 100.31625 72.616149 
L 100.100984 72.58376 
L 100.356797 72.50028 
L 100.214989 72.666416 
L 100.170738 72.427179 
L 100.099564 72.588008 
L 100.355506 72.503282 
L 100.211103 72.666015 
L 100.179495 72.431041 
L 100.112085 72.572549 
L 100.364622 72.502656 
L 100.214252 72.667792 
L 100.1716 72.427883 
L 100.101204 72.5855 
L 100.356325 72.501771 
L 100.213134 72.666244 
L 100.175018 72.429027 
L 100.105863 72.579667 
L 100.359918 72.498072 
L 100.219532 72.666511 
L 100.159581 72.423215 
L 100.317669 72.591485 
L 100.082427 72.617898 
L 100.215615 72.683572 
L 100.161249 72.434452 
L 100.316616 72.602932 
L 100.090581 72.598789 
L 100.336778 72.498872 
L 100.20675 72.667024 
L 100.187229 72.433597 
L 100.121524 72.563976 
L 100.366549 72.522278 
L 100.181771 72.668217 
L 100.218063 72.454466 
L 100.300884 72.709981 
L 100.13347 72.568962 
L 100.374637 72.518007 
L 100.196649 72.669382 
L 100.200886 72.444355 
L 100.300683 72.688829 
L 100.13307 72.558299 
L 100.365949 72.540119 
L 100.236743 72.474489 
L 100.27589 72.718597 
L 100.132023 72.530478 
L 100.343197 72.572861 
L 100.343197 72.572861 
" clip-path="url(#p6dc217b079)" style="fill: none; stroke: #2f5f98; stroke-width: 0.75"/>
    <path d="M 54.305119 132.270545 
L 54.305119 132.270545 
L 52.484544 128.242762 
L 50.883844 124.122758 
L 49.513839 119.92055 
L 48.385509 115.647213 
L 47.509816 111.315166 
" clip-path="url(#p6dc217b079)" style="fill: none; stroke: #2f5f98; stroke-width: 0.75"/>
    <path d="M 58.897007 132.270545 
L 58.897007 132.270545 
L 56.880881 128.337179 
L 55.088245 124.297165 
L 53.531222 120.160735 
L 52.222268 115.939382 
" clip-path="url(#p6dc217b079)" style="fill: none; stroke: #2f5f98; stroke-width: 0.75"/>
    <path d="M 63.488895 132.270545 
L 63.488895 132.270545 
L 61.267827 128.449291 
L 59.272404 124.505698 
L 57.516337 120.449952 
" clip-path="url(#p6dc217b079)" style="fill: none; stroke: #2f5f98; stroke-width: 0.75"/>
    <path d="M 72.672671 132.270545 
L 72.672671 132.270545 
L 70.019907 128.735621 
L 67.591408 125.043239 
L 65.404239 121.203175 
L 63.475853 117.227028 
L 61.823652 113.128614 
L 60.465711 108.923778 
L 59.419972 104.630898 
L 58.70433 100.271049 
L 58.336129 95.86861 
L 58.332154 91.451123 
L 58.707982 87.049949 
L 59.477558 82.700881 
L 60.652774 78.443998 
L 62.242281 74.324468 
L 64.250728 70.392913 
L 66.677459 66.705609 
L 69.514544 63.325111 
L 72.666761 60.383714 
L 76.057644 57.938682 
L 79.620114 56.018802 
L 83.28268 54.642029 
L 86.975431 53.81682 
L 90.616174 53.54254 
L 94.122959 53.807579 
L 97.41546 54.585045 
L 100.414535 55.835565 
L 103.048464 57.506307 
L 105.245369 59.526064 
L 106.950206 61.814227 
L 108.117042 64.265235 
" clip-path="url(#p6dc217b079)" style="fill: none; stroke: #2f5f98; stroke-width: 0.75"/>
    <path d="M 81.856448 132.270545 
L 81.856448 132.270545 
L 78.761012 129.116372 
L 75.878491 125.766728 
L 73.229001 122.230212 
L 70.833428 118.517253 
L 68.713285 114.640705 
L 66.890677 110.615856 
L 65.388265 106.461201 
L 64.228664 102.198487 
L 63.434685 97.853124 
L 63.028349 93.455082 
L 63.031064 89.038806 
L 63.462578 84.644086 
L 64.340142 80.317117 
L 65.677861 76.110368 
L 67.484646 72.083726 
" clip-path="url(#p6dc217b079)" style="fill: none; stroke: #2f5f98; stroke-width: 0.75"/>
    <path d="M 86.448336 132.270545 
L 86.448336 132.270545 
L 83.136908 129.344213 
L 80.028035 126.203624 
L 77.143302 122.856304 
" clip-path="url(#p6dc217b079)" style="fill: none; stroke: #2f5f98; stroke-width: 0.75"/>
    <path d="M 91.040224 132.270545 
L 91.040224 132.270545 
L 87.522468 129.595862 
L 84.193927 126.689429 
L 81.07721 123.557137 
L 78.196102 120.207092 
L 75.575542 116.649925 
L 73.241568 112.898844 
L 71.221088 108.970468 
L 69.541562 104.884986 
L 68.231047 100.667066 
L 67.317497 96.34625 
L 66.828709 91.957648 
L 66.791622 87.542789 
L 67.230521 83.15039 
L 68.166578 78.837407 
" clip-path="url(#p6dc217b079)" style="fill: none; stroke: #2f5f98; stroke-width: 0.75"/>
    <path d="M 100.224 132.270545 
L 100.224 132.270545 
L 96.341313 130.160224 
L 92.612507 127.789132 
L 89.061395 125.159771 
L 85.713351 122.276602 
L 82.595301 119.14639 
L 79.735652 115.778973 
L 77.164285 112.187034 
" clip-path="url(#p6dc217b079)" style="fill: none; stroke: #2f5f98; stroke-width: 0.75"/>
    <path d="M 109.407776 132.270545 
L 109.407776 132.270545 
L 105.248736 130.77683 
L 101.200451 129.00525 
L 97.286377 126.954638 
L 93.531668 124.625532 
" clip-path="url(#p6dc217b079)" style="fill: none; stroke: #2f5f98; stroke-width: 0.75"/>
    <path d="M 123.183441 132.270545 
L 123.183441 132.270545 
L 118.800375 131.704888 
L 114.462427 130.860919 
L 110.189657 129.733037 
L 106.003868 128.316782 
" clip-path="url(#p6dc217b079)" style="fill: none; stroke: #2f5f98; stroke-width: 0.75"/>
    <path d="M 159.918545 126.540034 
L 158.274671 127.145041 
L 154.088813 128.565745 
L 149.836128 129.771527 
L 145.526366 130.75363 
L 141.170257 131.503279 
L 136.779596 132.011727 
L 132.367217 132.270545 
L 132.367217 132.270545 
" clip-path="url(#p6dc217b079)" style="fill: none; stroke: #2f5f98; stroke-width: 0.75"/>
    <path d="M 159.918545 118.494881 
L 159.918545 118.494881 
L 155.890762 120.315456 
L 151.770758 121.916156 
L 147.56855 123.286161 
L 143.295213 124.414491 
L 138.963166 125.290184 
L 134.58624 125.902416 
L 130.179784 126.240771 
L 125.76086 126.294959 
L 121.348328 126.055334 
L 116.962799 125.513171 
L 112.627234 124.660238 
L 108.366771 123.489658 
L 104.208783 121.996098 
L 100.183315 120.17601 
L 96.323096 118.028228 
L 92.663797 115.554551 
L 89.243781 112.760097 
L 86.104511 109.654061 
L 83.290361 106.251657 
L 80.848523 102.573787 
L 78.828494 98.649147 
L 77.282236 94.5161 
L 76.281789 90.343939 
L 75.831532 86.208211 
L 75.922323 82.183527 
L 76.536199 78.337019 
L 77.642314 74.7459 
L 79.202475 71.47052 
L 81.163965 68.578326 
L 83.464538 66.125973 
L 86.028606 64.163913 
L 88.772701 62.731117 
L 91.601986 61.851605 
L 94.41276 61.532375 
L 97.102857 61.762543 
L 99.547579 62.504845 
L 101.658014 63.701012 
" clip-path="url(#p6dc217b079)" style="fill: none; stroke: #2f5f98; stroke-width: 0.75"/>
    <path d="M 159.918545 113.902993 
L 159.918545 113.902993 
L 155.985179 115.919119 
L 151.945165 117.711755 
L 147.808735 119.268778 
L 143.587382 120.577732 
" clip-path="url(#p6dc217b079)" style="fill: none; stroke: #2f5f98; stroke-width: 0.75"/>
    <path d="M 159.918545 109.311105 
L 159.918545 109.311105 
L 156.097291 111.532173 
L 152.153698 113.527596 
L 148.097952 115.283663 
" clip-path="url(#p6dc217b079)" style="fill: none; stroke: #2f5f98; stroke-width: 0.75"/>
    <path d="M 159.918545 100.127329 
L 159.918545 100.127329 
L 156.383621 102.780093 
L 152.691239 105.208592 
L 148.851175 107.395761 
L 144.875028 109.324147 
L 140.776614 110.976348 
L 136.571778 112.334289 
L 132.278898 113.380028 
L 127.919049 114.09567 
L 123.51661 114.463871 
L 119.099123 114.467846 
L 114.697949 114.092018 
L 110.348881 113.322442 
L 106.091998 112.147226 
L 101.972468 110.557719 
L 98.040913 108.549272 
L 94.353609 106.122541 
L 90.973111 103.285456 
L 88.031714 100.133239 
L 85.586682 96.742356 
L 83.666802 93.179886 
L 82.290029 89.51732 
L 81.46482 85.824569 
L 81.19054 82.183826 
L 81.455579 78.677041 
L 82.233045 75.38454 
L 83.483565 72.385465 
L 85.154307 69.751536 
L 87.174064 67.554631 
L 89.462227 65.849794 
" clip-path="url(#p6dc217b079)" style="fill: none; stroke: #2f5f98; stroke-width: 0.75"/>
    <path d="M 159.918545 90.943552 
L 159.918545 90.943552 
L 156.764372 94.038988 
L 153.414728 96.921509 
L 149.878212 99.570999 
L 146.165253 101.966572 
L 142.288705 104.086715 
L 138.263856 105.909323 
L 134.109201 107.411735 
L 129.846487 108.571336 
L 125.501124 109.365315 
L 121.103082 109.771651 
L 116.686806 109.768936 
L 112.292086 109.337422 
L 107.965117 108.459858 
L 103.758368 107.122139 
L 99.731726 105.315354 
" clip-path="url(#p6dc217b079)" style="fill: none; stroke: #2f5f98; stroke-width: 0.75"/>
    <path d="M 159.918545 86.351664 
L 159.918545 86.351664 
L 156.992213 89.663092 
L 153.851624 92.771965 
L 150.504304 95.656698 
" clip-path="url(#p6dc217b079)" style="fill: none; stroke: #2f5f98; stroke-width: 0.75"/>
    <path d="M 159.918545 81.759776 
L 159.918545 81.759776 
L 157.243862 85.277532 
L 154.337429 88.606073 
L 151.205137 91.72279 
L 147.855092 94.603898 
L 144.297925 97.224458 
L 140.546844 99.558432 
L 136.618468 101.578912 
L 132.532986 103.258438 
L 128.315066 104.568953 
L 123.99425 105.482503 
L 119.605648 105.971291 
L 115.190789 106.008378 
L 110.79839 105.569479 
L 106.485407 104.633422 
" clip-path="url(#p6dc217b079)" style="fill: none; stroke: #2f5f98; stroke-width: 0.75"/>
    <path d="M 159.918545 72.576 
L 159.918545 72.576 
L 157.808224 76.458687 
L 155.437132 80.187493 
L 152.807771 83.738605 
L 149.924602 87.086649 
L 146.79439 90.204699 
L 143.426973 93.064348 
L 139.835034 95.635715 
" clip-path="url(#p6dc217b079)" style="fill: none; stroke: #2f5f98; stroke-width: 0.75"/>
    <path d="M 159.918545 63.392224 
L 159.918545 63.392224 
L 158.42483 67.551264 
L 156.65325 71.599549 
L 154.602638 75.513623 
L 152.273532 79.268332 
" clip-path="url(#p6dc217b079)" style="fill: none; stroke: #2f5f98; stroke-width: 0.75"/>
    <path d="M 159.918545 49.616559 
L 159.918545 49.616559 
L 159.352888 53.999625 
L 158.508919 58.337573 
L 157.381037 62.610343 
L 155.964782 66.796132 
" clip-path="url(#p6dc217b079)" style="fill: none; stroke: #2f5f98; stroke-width: 0.75"/>
    <path d="M 154.188034 12.881455 
L 154.793041 14.525329 
L 156.213745 18.711187 
L 157.419527 22.963872 
L 158.40163 27.273634 
L 159.151279 31.629743 
L 159.659727 36.020404 
L 159.918545 40.432783 
L 159.918545 40.432783 
" clip-path="url(#p6dc217b079)" style="fill: none; stroke: #2f5f98; stroke-width: 0.75"/>
    <path d="M 146.142881 12.881455 
L 146.142881 12.881455 
L 147.963456 16.909238 
L 149.564156 21.029242 
L 150.934161 25.23145 
L 152.062491 29.504787 
L 152.938184 33.836834 
L 153.550416 38.21376 
L 153.888771 42.620216 
L 153.942959 47.03914 
L 153.703334 51.451672 
L 153.161171 55.837201 
L 152.308238 60.172766 
L 151.137658 64.433229 
L 149.644098 68.591217 
L 147.82401 72.616685 
L 145.676228 76.476904 
L 143.202551 80.136203 
L 140.408097 83.556219 
L 137.302061 86.695489 
L 133.899657 89.509639 
L 130.221787 91.951477 
L 126.297147 93.971506 
L 122.1641 95.517764 
L 117.991939 96.518211 
L 113.856211 96.968468 
L 109.831527 96.877677 
L 105.985019 96.263801 
L 102.3939 95.157686 
L 99.11852 93.597525 
L 96.226326 91.636035 
L 93.773973 89.335462 
L 91.811913 86.771394 
L 90.379117 84.027299 
L 89.499605 81.198014 
L 89.180375 78.38724 
L 89.410543 75.697143 
L 90.152845 73.252421 
L 91.349012 71.141986 
" clip-path="url(#p6dc217b079)" style="fill: none; stroke: #2f5f98; stroke-width: 0.75"/>
    <path d="M 141.550993 12.881455 
L 141.550993 12.881455 
L 143.567119 16.814821 
L 145.359755 20.854835 
L 146.916778 24.991265 
L 148.225732 29.212618 
" clip-path="url(#p6dc217b079)" style="fill: none; stroke: #2f5f98; stroke-width: 0.75"/>
    <path d="M 136.959105 12.881455 
L 136.959105 12.881455 
L 139.180173 16.702709 
L 141.175596 20.646302 
L 142.931663 24.702048 
" clip-path="url(#p6dc217b079)" style="fill: none; stroke: #2f5f98; stroke-width: 0.75"/>
    <path d="M 127.775329 12.881455 
L 127.775329 12.881455 
L 130.428093 16.416379 
L 132.856592 20.108761 
L 135.043761 23.948825 
L 136.972147 27.924972 
L 138.624348 32.023386 
L 139.982289 36.228222 
L 141.028028 40.521102 
L 141.74367 44.880951 
L 142.111871 49.28339 
L 142.115846 53.700877 
L 141.740018 58.102051 
L 140.970442 62.451119 
L 139.795226 66.708002 
L 138.205719 70.827532 
L 136.197272 74.759087 
L 133.770541 78.446391 
L 130.933456 81.826889 
L 127.781239 84.768286 
L 124.390356 87.213318 
L 120.827886 89.133198 
L 117.16532 90.509971 
L 113.472569 91.33518 
L 109.831826 91.60946 
L 106.325041 91.344421 
L 103.03254 90.566955 
L 100.033465 89.316435 
L 97.399536 87.645693 
L 95.202631 85.625936 
L 93.497794 83.337773 
" clip-path="url(#p6dc217b079)" style="fill: none; stroke: #2f5f98; stroke-width: 0.75"/>
    <path d="M 118.591552 12.881455 
L 118.591552 12.881455 
L 121.686988 16.035628 
L 124.569509 19.385272 
L 127.218999 22.921788 
L 129.614572 26.634747 
L 131.734715 30.511295 
L 133.557323 34.536144 
L 135.059735 38.690799 
L 136.219336 42.953513 
L 137.013315 47.298876 
L 137.419651 51.696918 
L 137.416936 56.113194 
L 136.985422 60.507914 
L 136.107858 64.834883 
L 134.770139 69.041632 
L 132.963354 73.068274 
" clip-path="url(#p6dc217b079)" style="fill: none; stroke: #2f5f98; stroke-width: 0.75"/>
    <path d="M 113.999664 12.881455 
L 113.999664 12.881455 
L 117.311092 15.807787 
L 120.419965 18.948376 
L 123.304698 22.295696 
" clip-path="url(#p6dc217b079)" style="fill: none; stroke: #2f5f98; stroke-width: 0.75"/>
    <path d="M 109.407776 12.881455 
L 109.407776 12.881455 
L 112.925532 15.556138 
L 116.254073 18.462571 
L 119.37079 21.594863 
L 122.251898 24.944908 
L 124.872458 28.502075 
L 127.206432 32.253156 
L 129.226912 36.181532 
L 130.906438 40.267014 
L 132.216953 44.484934 
L 133.130503 48.80575 
L 133.619291 53.194352 
L 133.656378 57.609211 
L 133.217479 62.00161 
L 132.281422 66.314593 
" clip-path="url(#p6dc217b079)" style="fill: none; stroke: #2f5f98; stroke-width: 0.75"/>
    <path d="M 100.224 12.881455 
L 100.224 12.881455 
L 104.106687 14.991776 
L 107.835493 17.362868 
L 111.386605 19.992229 
L 114.734649 22.875398 
L 117.852699 26.00561 
L 120.712348 29.373027 
L 123.283715 32.964966 
" clip-path="url(#p6dc217b079)" style="fill: none; stroke: #2f5f98; stroke-width: 0.75"/>
    <path d="M 91.040224 12.881455 
L 91.040224 12.881455 
L 95.199264 14.37517 
L 99.247549 16.14675 
L 103.161623 18.197362 
L 106.916332 20.526468 
" clip-path="url(#p6dc217b079)" style="fill: none; stroke: #2f5f98; stroke-width: 0.75"/>
    <path d="M 77.264559 12.881455 
L 77.264559 12.881455 
L 81.647625 13.447112 
L 85.985573 14.291081 
L 90.258343 15.418963 
L 94.444132 16.835218 
" clip-path="url(#p6dc217b079)" style="fill: none; stroke: #2f5f98; stroke-width: 0.75"/>
    <path d="M 40.529455 18.611966 
L 42.173329 18.006959 
L 46.359187 16.586255 
L 50.611872 15.380473 
L 54.921634 14.39837 
L 59.277743 13.648721 
L 63.668404 13.140273 
L 68.080783 12.881455 
L 68.080783 12.881455 
" clip-path="url(#p6dc217b079)" style="fill: none; stroke: #2f5f98; stroke-width: 0.75"/>
    <path d="M 40.529455 26.657119 
L 40.529455 26.657119 
L 44.557238 24.836544 
L 48.677242 23.235844 
L 52.87945 21.865839 
L 57.152787 20.737509 
L 61.484834 19.861816 
L 65.86176 19.249584 
L 70.268216 18.911229 
L 74.68714 18.857041 
L 79.099672 19.096666 
L 83.485201 19.638829 
L 87.820766 20.491762 
L 92.081229 21.662342 
L 96.239217 23.155902 
L 100.264685 24.97599 
L 104.124904 27.123772 
L 107.784203 29.597449 
L 111.204219 32.391903 
L 114.343489 35.497939 
L 117.157639 38.900343 
L 119.599477 42.578213 
L 121.619506 46.502853 
L 123.165764 50.6359 
L 124.166211 54.808061 
L 124.616468 58.943789 
L 124.525677 62.968473 
L 123.911801 66.814981 
L 122.805686 70.4061 
L 121.245525 73.68148 
L 119.284035 76.573674 
L 116.983462 79.026027 
L 114.419394 80.988087 
L 111.675299 82.420883 
L 108.846014 83.300395 
L 106.03524 83.619625 
L 103.345143 83.389457 
L 100.900421 82.647155 
L 98.789986 81.450988 
" clip-path="url(#p6dc217b079)" style="fill: none; stroke: #2f5f98; stroke-width: 0.75"/>
    <path d="M 40.529455 31.249007 
L 40.529455 31.249007 
L 44.462821 29.232881 
L 48.502835 27.440245 
L 52.639265 25.883222 
L 56.860618 24.574268 
" clip-path="url(#p6dc217b079)" style="fill: none; stroke: #2f5f98; stroke-width: 0.75"/>
    <path d="M 40.529455 35.840895 
L 40.529455 35.840895 
L 44.350709 33.619827 
L 48.294302 31.624404 
L 52.350048 29.868337 
" clip-path="url(#p6dc217b079)" style="fill: none; stroke: #2f5f98; stroke-width: 0.75"/>
    <path d="M 40.529455 45.024671 
L 40.529455 45.024671 
L 44.064379 42.371907 
L 47.756761 39.943408 
L 51.596825 37.756239 
L 55.572972 35.827853 
L 59.671386 34.175652 
L 63.876222 32.817711 
L 68.169102 31.771972 
L 72.528951 31.05633 
L 76.93139 30.688129 
L 81.348877 30.684154 
L 85.750051 31.059982 
L 90.099119 31.829558 
L 94.356002 33.004774 
L 98.475532 34.594281 
L 102.407087 36.602728 
L 106.094391 39.029459 
L 109.474889 41.866544 
L 112.416286 45.018761 
L 114.861318 48.409644 
L 116.781198 51.972114 
L 118.157971 55.63468 
L 118.98318 59.327431 
L 119.25746 62.968174 
L 118.992421 66.474959 
L 118.214955 69.76746 
L 116.964435 72.766535 
L 115.293693 75.400464 
L 113.273936 77.597369 
" clip-path="url(#p6dc217b079)" style="fill: none; stroke: #2f5f98; stroke-width: 0.75"/>
    <path d="M 40.529455 54.208448 
L 40.529455 54.208448 
L 43.683628 51.113012 
L 47.033272 48.230491 
L 50.569788 45.581001 
L 54.282747 43.185428 
L 58.159295 41.065285 
L 62.184144 39.242677 
L 66.338799 37.740265 
L 70.601513 36.580664 
L 74.946876 35.786685 
L 79.344918 35.380349 
L 83.761194 35.383064 
L 88.155914 35.814578 
L 92.482883 36.692142 
L 96.689632 38.029861 
L 100.716274 39.836646 
" clip-path="url(#p6dc217b079)" style="fill: none; stroke: #2f5f98; stroke-width: 0.75"/>
    <path d="M 40.529455 58.800336 
L 40.529455 58.800336 
L 43.455787 55.488908 
L 46.596376 52.380035 
L 49.943696 49.495302 
" clip-path="url(#p6dc217b079)" style="fill: none; stroke: #2f5f98; stroke-width: 0.75"/>
    <path d="M 40.529455 63.392224 
L 40.529455 63.392224 
L 43.204138 59.874468 
L 46.110571 56.545927 
L 49.242863 53.42921 
L 52.592908 50.548102 
L 56.150075 47.927542 
L 59.901156 45.593568 
L 63.829532 43.573088 
L 67.915014 41.893562 
L 72.132934 40.583047 
L 76.45375 39.669497 
L 80.842352 39.180709 
L 85.257211 39.143622 
L 89.64961 39.582521 
L 93.962593 40.518578 
" clip-path="url(#p6dc217b079)" style="fill: none; stroke: #2f5f98; stroke-width: 0.75"/>
    <path d="M 40.529455 72.576 
L 40.529455 72.576 
L 42.639776 68.693313 
L 45.010868 64.964507 
L 47.640229 61.413395 
L 50.523398 58.065351 
L 53.65361 54.947301 
L 57.021027 52.087652 
L 60.612966 49.516285 
" clip-path="url(#p6dc217b079)" style="fill: none; stroke: #2f5f98; stroke-width: 0.75"/>
    <path d="M 40.529455 81.759776 
L 40.529455 81.759776 
L 42.02317 77.600736 
L 43.79475 73.552451 
L 45.845362 69.638377 
" clip-path="url(#p6dc217b079)" style="fill: none; stroke: #2f5f98; stroke-width: 0.75"/>
    <path d="M 40.529455 100.127329 
L 40.529455 100.127329 
L 40.804274 95.716289 
L 41.351928 91.330969 
L 42.178947 86.989743 
" clip-path="url(#p6dc217b079)" style="fill: none; stroke: #2f5f98; stroke-width: 0.75"/>
    <path d="M 131.826655 123.209364 
L 127.415431 123.474766 
L 122.99649 123.437438 
L 118.591552 123.086769 
" clip-path="url(#p6dc217b079)" style="fill: none; stroke: #2f5f98; stroke-width: 0.75"/>
    <path d="M 150.857364 40.973345 
L 151.122766 45.384569 
L 151.085438 49.80351 
L 150.734769 54.208448 
" clip-path="url(#p6dc217b079)" style="fill: none; stroke: #2f5f98; stroke-width: 0.75"/>
    <path d="M 68.621345 21.942636 
L 73.032569 21.677234 
L 77.45151 21.714562 
L 81.856448 22.065231 
" clip-path="url(#p6dc217b079)" style="fill: none; stroke: #2f5f98; stroke-width: 0.75"/>
    <path d="M 47.429282 94.794181 
L 47.87503 90.39768 
L 48.633889 86.044478 
L 49.713231 81.759776 
" clip-path="url(#p6dc217b079)" style="fill: none; stroke: #2f5f98; stroke-width: 0.75"/>
    <path d="M 91.040224 118.494881 
L 87.676055 115.632341 
L 84.577401 112.484893 
L 81.782316 109.065568 
L 79.33095 105.39283 
" clip-path="url(#p6dc217b079)" style="fill: none; stroke: #2f5f98; stroke-width: 0.75"/>
    <path d="M 135.68716 119.365856 
L 131.317654 120.026611 
L 126.912894 120.381173 
L 122.494315 120.416784 
L 118.085619 120.121502 
L 113.713531 119.484074 
L 109.407776 118.494881 
L 105.201321 117.146423 
L 101.130434 115.432818 
L 97.235262 113.351634 
L 93.559844 110.904262 
L 90.152276 108.096981 
L 87.065036 104.941781 
" clip-path="url(#p6dc217b079)" style="fill: none; stroke: #2f5f98; stroke-width: 0.75"/>
    <path d="M 146.142881 81.759776 
L 143.280341 85.123945 
L 140.132893 88.222599 
L 136.713568 91.017684 
L 133.04083 93.46905 
" clip-path="url(#p6dc217b079)" style="fill: none; stroke: #2f5f98; stroke-width: 0.75"/>
    <path d="M 147.013856 37.11284 
L 147.674611 41.482346 
L 148.029173 45.887106 
L 148.064784 50.305685 
L 147.769502 54.714381 
L 147.132074 59.086469 
L 146.142881 63.392224 
L 144.794423 67.598679 
L 143.080818 71.669566 
L 140.999634 75.564738 
L 138.552262 79.240156 
L 135.744981 82.647724 
L 132.589781 85.734964 
" clip-path="url(#p6dc217b079)" style="fill: none; stroke: #2f5f98; stroke-width: 0.75"/>
    <path d="M 109.407776 26.657119 
L 112.771945 29.519659 
L 115.870599 32.667107 
L 118.665684 36.086432 
L 121.11705 39.75917 
" clip-path="url(#p6dc217b079)" style="fill: none; stroke: #2f5f98; stroke-width: 0.75"/>
    <path d="M 64.76084 25.786144 
L 69.130346 25.125389 
L 73.535106 24.770827 
L 77.953685 24.735216 
L 82.362381 25.030498 
L 86.734469 25.667926 
L 91.040224 26.657119 
L 95.246679 28.005577 
L 99.317566 29.719182 
L 103.212738 31.800366 
L 106.888156 34.247738 
L 110.295724 37.055019 
L 113.382964 40.210219 
" clip-path="url(#p6dc217b079)" style="fill: none; stroke: #2f5f98; stroke-width: 0.75"/>
    <path d="M 52.902913 81.35732 
L 54.305119 77.167888 
L 56.060246 73.114432 
L 58.170721 69.234597 
" clip-path="url(#p6dc217b079)" style="fill: none; stroke: #2f5f98; stroke-width: 0.75"/>
    <path d="M 54.744724 108.31664 
L 54.009949 103.959059 
L 53.585534 99.560632 
L 53.484794 95.143102 
L 53.720698 90.730946 
L 54.305119 86.351664 
" clip-path="url(#p6dc217b079)" style="fill: none; stroke: #2f5f98; stroke-width: 0.75"/>
    <path d="M 63.488895 49.616559 
L 67.362933 47.495912 
L 71.421442 45.755337 
L 75.633333 44.4308 
" clip-path="url(#p6dc217b079)" style="fill: none; stroke: #2f5f98; stroke-width: 0.75"/>
    <path d="M 63.488895 63.392224 
L 66.541386 60.202982 
L 69.925778 57.369509 
L 73.616366 54.95003 
L 77.472301 53.048156 
L 81.415813 51.689295 
L 85.369897 50.883229 
L 89.265282 50.626093 
L 93.030116 50.905374 
" clip-path="url(#p6dc217b079)" style="fill: none; stroke: #2f5f98; stroke-width: 0.75"/>
    <path d="M 76.255855 108.189958 
L 74.269197 104.245153 
L 72.672671 100.127329 
L 71.501482 95.870276 
L 70.791719 91.513199 
L 70.577788 87.104811 
L 70.886821 82.74375 
L 71.708245 78.581889 
L 73.013822 74.683519 
L 74.764393 71.112501 
L 76.914248 67.923317 
L 79.404702 65.170765 
L 82.172098 62.897763 
" clip-path="url(#p6dc217b079)" style="fill: none; stroke: #2f5f98; stroke-width: 0.75"/>
    <path d="M 95.632112 100.127329 
L 92.272679 97.272474 
L 89.700854 94.364548 
L 87.639261 91.239764 
L 86.109787 87.964788 
L 85.131666 84.623692 
L 84.709225 81.304075 
L 84.833466 78.095888 
L 85.478666 75.080487 
L 86.60444 72.352651 
" clip-path="url(#p6dc217b079)" style="fill: none; stroke: #2f5f98; stroke-width: 0.75"/>
    <path d="M 130.36006 98.377361 
L 126.206752 99.877736 
L 121.919609 100.934525 
L 117.542692 101.510388 
L 113.25311 101.576408 
L 109.1085 101.145116 
L 104.815888 100.127329 
L 100.71236 98.516294 
L 97.336515 96.600257 
L 94.370447 94.310667 
L 91.863602 91.710361 
L 89.854879 88.866597 
" clip-path="url(#p6dc217b079)" style="fill: none; stroke: #2f5f98; stroke-width: 0.75"/>
    <path d="M 127.775329 77.167888 
L 124.920474 80.527321 
L 122.012548 83.099146 
L 118.887764 85.160739 
L 115.612788 86.690213 
L 112.271692 87.668334 
L 108.952075 88.090775 
L 105.743888 87.966534 
L 102.728487 87.321334 
L 100.000651 86.19556 
" clip-path="url(#p6dc217b079)" style="fill: none; stroke: #2f5f98; stroke-width: 0.75"/>
    <path d="M 126.025361 42.43994 
L 127.525736 46.593248 
L 128.582525 50.880391 
L 129.158388 55.257308 
L 129.224408 59.54689 
L 128.793116 63.6915 
L 127.775329 67.984112 
L 126.164294 72.08764 
L 124.248257 75.463485 
L 121.958667 78.429553 
L 119.358361 80.936398 
L 116.514597 82.945121 
" clip-path="url(#p6dc217b079)" style="fill: none; stroke: #2f5f98; stroke-width: 0.75"/>
    <path d="M 104.815888 45.024671 
L 108.175321 47.879526 
L 110.747146 50.787452 
L 112.808739 53.912236 
L 114.338213 57.187212 
L 115.316334 60.528308 
" clip-path="url(#p6dc217b079)" style="fill: none; stroke: #2f5f98; stroke-width: 0.75"/>
    <path d="M 95.632112 45.024671 
L 99.73564 46.635706 
L 103.111485 48.551743 
L 106.077553 50.841333 
" clip-path="url(#p6dc217b079)" style="fill: none; stroke: #2f5f98; stroke-width: 0.75"/>
    <path d="M 81.801435 59.779592 
L 84.973796 58.342987 
L 88.191322 57.421248 
L 91.387989 57.014007 
L 94.482307 57.110842 
L 97.392751 57.687825 
L 100.224 58.800336 
L 100.224 58.800336 
L 100.224 58.800336 
L 102.477633 60.205556 
" clip-path="url(#p6dc217b079)" style="fill: none; stroke: #2f5f98; stroke-width: 0.75"/>
   </g>
   <g id="patch_3">
    <path d="M 43.094924 126.181617 
Q 43.064995 126.080181 43.272362 126.782994 
" clip-path="url(#p6dc217b079)" style="fill: none; stroke: #2f5f98; stroke-width: 0.75; stroke-linecap: round"/>
    <path d="M 42.643339 130.304973 
L 43.272362 126.782994 
L 45.71253 129.3994 
" clip-path="url(#p6dc217b079)" style="fill: none; stroke: #2f5f98; stroke-width: 0.75; stroke-linecap: round"/>
   </g>
   <g id="patch_4">
    <path d="M 81.222056 47.210492 
Q 81.307862 47.195699 80.567334 47.32337 
" clip-path="url(#p6dc217b079)" style="fill: none; stroke: #2f5f98; stroke-width: 0.75; stroke-linecap: round"/>
    <path d="M 77.142019 46.290308 
L 80.567334 47.32337 
L 77.685695 49.443785 
" clip-path="url(#p6dc217b079)" style="fill: none; stroke: #2f5f98; stroke-width: 0.75; stroke-linecap: round"/>
   </g>
   <g id="patch_5">
    <path d="M 50.264398 122.222736 
Q 50.23162 122.122195 50.458754 122.81888 
" clip-path="url(#p6dc217b079)" style="fill: none; stroke: #2f5f98; stroke-width: 0.75; stroke-linecap: round"/>
    <path d="M 49.929439 126.357217 
L 50.458754 122.81888 
L 52.971835 125.365334 
" clip-path="url(#p6dc217b079)" style="fill: none; stroke: #2f5f98; stroke-width: 0.75; stroke-linecap: round"/>
   </g>
   <g id="patch_6">
    <path d="M 56.070344 126.510493 
Q 56.027454 126.413832 56.324657 127.083632 
" clip-path="url(#p6dc217b079)" style="fill: none; stroke: #2f5f98; stroke-width: 0.75; stroke-linecap: round"/>
    <path d="M 56.16004 130.657552 
L 56.324657 127.083632 
L 59.085023 129.359678 
" clip-path="url(#p6dc217b079)" style="fill: none; stroke: #2f5f98; stroke-width: 0.75; stroke-linecap: round"/>
   </g>
   <g id="patch_7">
    <path d="M 60.3656 126.666202 
Q 60.317857 126.571848 60.648697 127.225693 
" clip-path="url(#p6dc217b079)" style="fill: none; stroke: #2f5f98; stroke-width: 0.75; stroke-linecap: round"/>
    <path d="M 60.665804 130.803361 
L 60.648697 127.225693 
L 63.521095 129.358609 
" clip-path="url(#p6dc217b079)" style="fill: none; stroke: #2f5f98; stroke-width: 0.75; stroke-linecap: round"/>
   </g>
   <g id="patch_8">
    <path d="M 61.371467 76.581359 
Q 61.409497 76.482796 61.145675 77.166544 
" clip-path="url(#p6dc217b079)" style="fill: none; stroke: #2f5f98; stroke-width: 0.75; stroke-linecap: round"/>
    <path d="M 58.501004 79.576049 
L 61.145675 77.166544 
L 61.486477 80.727984 
" clip-path="url(#p6dc217b079)" style="fill: none; stroke: #2f5f98; stroke-width: 0.75; stroke-linecap: round"/>
   </g>
   <g id="patch_9">
    <path d="M 64.863953 104.533821 
Q 64.836209 104.431833 65.028573 105.138965 
" clip-path="url(#p6dc217b079)" style="fill: none; stroke: #2f5f98; stroke-width: 0.75; stroke-linecap: round"/>
    <path d="M 64.324661 108.646744 
L 65.028573 105.138965 
L 67.412449 107.806761 
" clip-path="url(#p6dc217b079)" style="fill: none; stroke: #2f5f98; stroke-width: 0.75; stroke-linecap: round"/>
   </g>
   <g id="patch_10">
    <path d="M 81.731236 127.924201 
Q 81.656854 127.84906 82.172382 128.369847 
" clip-path="url(#p6dc217b079)" style="fill: none; stroke: #2f5f98; stroke-width: 0.75; stroke-linecap: round"/>
    <path d="M 83.286514 131.769658 
L 82.172382 128.369847 
L 85.560709 129.518428 
" clip-path="url(#p6dc217b079)" style="fill: none; stroke: #2f5f98; stroke-width: 0.75; stroke-linecap: round"/>
   </g>
   <g id="patch_11">
    <path d="M 72.328011 111.122635 
Q 72.279669 111.028646 72.614852 111.680334 
" clip-path="url(#p6dc217b079)" style="fill: none; stroke: #2f5f98; stroke-width: 0.75; stroke-linecap: round"/>
    <path d="M 72.655629 115.25781 
L 72.614852 111.680334 
L 75.501299 113.794198 
" clip-path="url(#p6dc217b079)" style="fill: none; stroke: #2f5f98; stroke-width: 0.75; stroke-linecap: round"/>
   </g>
   <g id="patch_12">
    <path d="M 87.547582 123.85615 
Q 87.467477 123.787168 88.022769 124.265358 
" clip-path="url(#p6dc217b079)" style="fill: none; stroke: #2f5f98; stroke-width: 0.75; stroke-linecap: round"/>
    <path d="M 89.403518 127.565893 
L 88.022769 124.265358 
L 91.491646 125.14108 
" clip-path="url(#p6dc217b079)" style="fill: none; stroke: #2f5f98; stroke-width: 0.75; stroke-linecap: round"/>
   </g>
   <g id="patch_13">
    <path d="M 103.41831 129.975813 
Q 103.321452 129.933427 103.992783 130.22721 
" clip-path="url(#p6dc217b079)" style="fill: none; stroke: #2f5f98; stroke-width: 0.75; stroke-linecap: round"/>
    <path d="M 106.282917 132.975898 
L 103.992783 130.22721 
L 107.565814 130.044315 
" clip-path="url(#p6dc217b079)" style="fill: none; stroke: #2f5f98; stroke-width: 0.75; stroke-linecap: round"/>
   </g>
   <g id="patch_14">
    <path d="M 116.838978 131.323289 
Q 116.73519 131.303096 117.454493 131.44304 
" clip-path="url(#p6dc217b079)" style="fill: none; stroke: #2f5f98; stroke-width: 0.75; stroke-linecap: round"/>
    <path d="M 120.290039 133.62471 
L 117.454493 131.44304 
L 120.901156 130.483605 
" clip-path="url(#p6dc217b079)" style="fill: none; stroke: #2f5f98; stroke-width: 0.75; stroke-linecap: round"/>
   </g>
   <g id="patch_15">
    <path d="M 147.887476 130.215584 
Q 147.784362 130.239081 148.498814 130.076273 
" clip-path="url(#p6dc217b079)" style="fill: none; stroke: #2f5f98; stroke-width: 0.75; stroke-linecap: round"/>
    <path d="M 151.974323 130.925295 
L 148.498814 130.076273 
L 151.263337 127.805279 
" clip-path="url(#p6dc217b079)" style="fill: none; stroke: #2f5f98; stroke-width: 0.75; stroke-linecap: round"/>
   </g>
   <g id="patch_16">
    <path d="M 91.117442 114.291043 
Q 91.035615 114.224184 91.60312 114.687885 
" clip-path="url(#p6dc217b079)" style="fill: none; stroke: #2f5f98; stroke-width: 0.75; stroke-linecap: round"/>
    <path d="M 93.068742 117.951617 
L 91.60312 114.687885 
L 95.093479 115.473626 
" clip-path="url(#p6dc217b079)" style="fill: none; stroke: #2f5f98; stroke-width: 0.75; stroke-linecap: round"/>
   </g>
   <g id="patch_17">
    <path d="M 154.158493 116.729656 
Q 154.061832 116.772546 154.731632 116.475343 
" clip-path="url(#p6dc217b079)" style="fill: none; stroke: #2f5f98; stroke-width: 0.75; stroke-linecap: round"/>
    <path d="M 158.305552 116.63996 
L 154.731632 116.475343 
L 157.007678 113.714977 
" clip-path="url(#p6dc217b079)" style="fill: none; stroke: #2f5f98; stroke-width: 0.75; stroke-linecap: round"/>
   </g>
   <g id="patch_18">
    <path d="M 154.314202 112.4344 
Q 154.219848 112.482143 154.873693 112.151303 
" clip-path="url(#p6dc217b079)" style="fill: none; stroke: #2f5f98; stroke-width: 0.75; stroke-linecap: round"/>
    <path d="M 158.451361 112.134196 
L 154.873693 112.151303 
L 157.006609 109.278905 
" clip-path="url(#p6dc217b079)" style="fill: none; stroke: #2f5f98; stroke-width: 0.75; stroke-linecap: round"/>
   </g>
   <g id="patch_19">
    <path d="M 104.229359 111.428533 
Q 104.130796 111.390503 104.814544 111.654325 
" clip-path="url(#p6dc217b079)" style="fill: none; stroke: #2f5f98; stroke-width: 0.75; stroke-linecap: round"/>
    <path d="M 107.224049 114.298996 
L 104.814544 111.654325 
L 108.375984 111.313523 
" clip-path="url(#p6dc217b079)" style="fill: none; stroke: #2f5f98; stroke-width: 0.75; stroke-linecap: round"/>
   </g>
   <g id="patch_20">
    <path d="M 132.181821 107.936047 
Q 132.079833 107.963791 132.786965 107.771427 
" clip-path="url(#p6dc217b079)" style="fill: none; stroke: #2f5f98; stroke-width: 0.75; stroke-linecap: round"/>
    <path d="M 136.294744 108.475339 
L 132.786965 107.771427 
L 135.454761 105.387551 
" clip-path="url(#p6dc217b079)" style="fill: none; stroke: #2f5f98; stroke-width: 0.75; stroke-linecap: round"/>
   </g>
   <g id="patch_21">
    <path d="M 155.572201 91.068764 
Q 155.49706 91.143146 156.017847 90.627618 
" clip-path="url(#p6dc217b079)" style="fill: none; stroke: #2f5f98; stroke-width: 0.75; stroke-linecap: round"/>
    <path d="M 159.417658 89.513486 
L 156.017847 90.627618 
L 157.166428 87.239291 
" clip-path="url(#p6dc217b079)" style="fill: none; stroke: #2f5f98; stroke-width: 0.75; stroke-linecap: round"/>
   </g>
   <g id="patch_22">
    <path d="M 138.770635 100.471989 
Q 138.676646 100.520331 139.328334 100.185148 
" clip-path="url(#p6dc217b079)" style="fill: none; stroke: #2f5f98; stroke-width: 0.75; stroke-linecap: round"/>
    <path d="M 142.90581 100.144371 
L 139.328334 100.185148 
L 141.442198 97.298701 
" clip-path="url(#p6dc217b079)" style="fill: none; stroke: #2f5f98; stroke-width: 0.75; stroke-linecap: round"/>
   </g>
   <g id="patch_23">
    <path d="M 151.50415 85.252418 
Q 151.435168 85.332523 151.913358 84.777231 
" clip-path="url(#p6dc217b079)" style="fill: none; stroke: #2f5f98; stroke-width: 0.75; stroke-linecap: round"/>
    <path d="M 155.213893 83.396482 
L 151.913358 84.777231 
L 152.78908 81.308354 
" clip-path="url(#p6dc217b079)" style="fill: none; stroke: #2f5f98; stroke-width: 0.75; stroke-linecap: round"/>
   </g>
   <g id="patch_24">
    <path d="M 157.623813 69.38169 
Q 157.581427 69.478548 157.87521 68.807217 
" clip-path="url(#p6dc217b079)" style="fill: none; stroke: #2f5f98; stroke-width: 0.75; stroke-linecap: round"/>
    <path d="M 160.623898 66.517083 
L 157.87521 68.807217 
L 157.692315 65.234186 
" clip-path="url(#p6dc217b079)" style="fill: none; stroke: #2f5f98; stroke-width: 0.75; stroke-linecap: round"/>
   </g>
   <g id="patch_25">
    <path d="M 158.971289 55.961022 
Q 158.951096 56.06481 159.09104 55.345507 
" clip-path="url(#p6dc217b079)" style="fill: none; stroke: #2f5f98; stroke-width: 0.75; stroke-linecap: round"/>
    <path d="M 161.27271 52.509961 
L 159.09104 55.345507 
L 158.131605 51.898844 
" clip-path="url(#p6dc217b079)" style="fill: none; stroke: #2f5f98; stroke-width: 0.75; stroke-linecap: round"/>
   </g>
   <g id="patch_26">
    <path d="M 157.863584 24.912524 
Q 157.887081 25.015638 157.724273 24.301186 
" clip-path="url(#p6dc217b079)" style="fill: none; stroke: #2f5f98; stroke-width: 0.75; stroke-linecap: round"/>
    <path d="M 158.573295 20.825677 
L 157.724273 24.301186 
L 155.453279 21.536663 
" clip-path="url(#p6dc217b079)" style="fill: none; stroke: #2f5f98; stroke-width: 0.75; stroke-linecap: round"/>
   </g>
   <g id="patch_27">
    <path d="M 141.939043 81.682558 
Q 141.872184 81.764385 142.335885 81.19688 
" clip-path="url(#p6dc217b079)" style="fill: none; stroke: #2f5f98; stroke-width: 0.75; stroke-linecap: round"/>
    <path d="M 145.599617 79.731258 
L 142.335885 81.19688 
L 143.121626 77.706521 
" clip-path="url(#p6dc217b079)" style="fill: none; stroke: #2f5f98; stroke-width: 0.75; stroke-linecap: round"/>
   </g>
   <g id="patch_28">
    <path d="M 144.377656 18.641507 
Q 144.420546 18.738168 144.123343 18.068368 
" clip-path="url(#p6dc217b079)" style="fill: none; stroke: #2f5f98; stroke-width: 0.75; stroke-linecap: round"/>
    <path d="M 144.28796 14.494448 
L 144.123343 18.068368 
L 141.362977 15.792322 
" clip-path="url(#p6dc217b079)" style="fill: none; stroke: #2f5f98; stroke-width: 0.75; stroke-linecap: round"/>
   </g>
   <g id="patch_29">
    <path d="M 140.0824 18.485798 
Q 140.130143 18.580152 139.799303 17.926307 
" clip-path="url(#p6dc217b079)" style="fill: none; stroke: #2f5f98; stroke-width: 0.75; stroke-linecap: round"/>
    <path d="M 139.782196 14.348639 
L 139.799303 17.926307 
L 136.926905 15.793391 
" clip-path="url(#p6dc217b079)" style="fill: none; stroke: #2f5f98; stroke-width: 0.75; stroke-linecap: round"/>
   </g>
   <g id="patch_30">
    <path d="M 139.076533 68.570641 
Q 139.038503 68.669204 139.302325 67.985456 
" clip-path="url(#p6dc217b079)" style="fill: none; stroke: #2f5f98; stroke-width: 0.75; stroke-linecap: round"/>
    <path d="M 141.946996 65.575951 
L 139.302325 67.985456 
L 138.961523 64.424016 
" clip-path="url(#p6dc217b079)" style="fill: none; stroke: #2f5f98; stroke-width: 0.75; stroke-linecap: round"/>
   </g>
   <g id="patch_31">
    <path d="M 135.584047 40.618179 
Q 135.611791 40.720167 135.419427 40.013035 
" clip-path="url(#p6dc217b079)" style="fill: none; stroke: #2f5f98; stroke-width: 0.75; stroke-linecap: round"/>
    <path d="M 136.123339 36.505256 
L 135.419427 40.013035 
L 133.035551 37.345239 
" clip-path="url(#p6dc217b079)" style="fill: none; stroke: #2f5f98; stroke-width: 0.75; stroke-linecap: round"/>
   </g>
   <g id="patch_32">
    <path d="M 118.716764 17.227799 
Q 118.791146 17.30294 118.275618 16.782153 
" clip-path="url(#p6dc217b079)" style="fill: none; stroke: #2f5f98; stroke-width: 0.75; stroke-linecap: round"/>
    <path d="M 117.161486 13.382342 
L 118.275618 16.782153 
L 114.887291 15.633572 
" clip-path="url(#p6dc217b079)" style="fill: none; stroke: #2f5f98; stroke-width: 0.75; stroke-linecap: round"/>
   </g>
   <g id="patch_33">
    <path d="M 128.119989 34.029365 
Q 128.168331 34.123354 127.833148 33.471666 
" clip-path="url(#p6dc217b079)" style="fill: none; stroke: #2f5f98; stroke-width: 0.75; stroke-linecap: round"/>
    <path d="M 127.792371 29.89419 
L 127.833148 33.471666 
L 124.946701 31.357802 
" clip-path="url(#p6dc217b079)" style="fill: none; stroke: #2f5f98; stroke-width: 0.75; stroke-linecap: round"/>
   </g>
   <g id="patch_34">
    <path d="M 112.900418 21.29585 
Q 112.980523 21.364832 112.425231 20.886642 
" clip-path="url(#p6dc217b079)" style="fill: none; stroke: #2f5f98; stroke-width: 0.75; stroke-linecap: round"/>
    <path d="M 111.044482 17.586107 
L 112.425231 20.886642 
L 108.956354 20.01092 
" clip-path="url(#p6dc217b079)" style="fill: none; stroke: #2f5f98; stroke-width: 0.75; stroke-linecap: round"/>
   </g>
   <g id="patch_35">
    <path d="M 97.02969 15.176187 
Q 97.126548 15.218573 96.455217 14.92479 
" clip-path="url(#p6dc217b079)" style="fill: none; stroke: #2f5f98; stroke-width: 0.75; stroke-linecap: round"/>
    <path d="M 94.165083 12.176102 
L 96.455217 14.92479 
L 92.882186 15.107685 
" clip-path="url(#p6dc217b079)" style="fill: none; stroke: #2f5f98; stroke-width: 0.75; stroke-linecap: round"/>
   </g>
   <g id="patch_36">
    <path d="M 83.609022 13.828711 
Q 83.71281 13.848904 82.993507 13.70896 
" clip-path="url(#p6dc217b079)" style="fill: none; stroke: #2f5f98; stroke-width: 0.75; stroke-linecap: round"/>
    <path d="M 80.157961 11.52729 
L 82.993507 13.70896 
L 79.546844 14.668395 
" clip-path="url(#p6dc217b079)" style="fill: none; stroke: #2f5f98; stroke-width: 0.75; stroke-linecap: round"/>
   </g>
   <g id="patch_37">
    <path d="M 52.560524 14.936416 
Q 52.663638 14.912919 51.949186 15.075727 
" clip-path="url(#p6dc217b079)" style="fill: none; stroke: #2f5f98; stroke-width: 0.75; stroke-linecap: round"/>
    <path d="M 48.473677 14.226705 
L 51.949186 15.075727 
L 49.184663 17.346721 
" clip-path="url(#p6dc217b079)" style="fill: none; stroke: #2f5f98; stroke-width: 0.75; stroke-linecap: round"/>
   </g>
   <g id="patch_38">
    <path d="M 109.330558 30.860957 
Q 109.412385 30.927816 108.84488 30.464115 
" clip-path="url(#p6dc217b079)" style="fill: none; stroke: #2f5f98; stroke-width: 0.75; stroke-linecap: round"/>
    <path d="M 107.379258 27.200383 
L 108.84488 30.464115 
L 105.354521 29.678374 
" clip-path="url(#p6dc217b079)" style="fill: none; stroke: #2f5f98; stroke-width: 0.75; stroke-linecap: round"/>
   </g>
   <g id="patch_39">
    <path d="M 46.289507 28.422344 
Q 46.386168 28.379454 45.716368 28.676657 
" clip-path="url(#p6dc217b079)" style="fill: none; stroke: #2f5f98; stroke-width: 0.75; stroke-linecap: round"/>
    <path d="M 42.142448 28.51204 
L 45.716368 28.676657 
L 43.440322 31.437023 
" clip-path="url(#p6dc217b079)" style="fill: none; stroke: #2f5f98; stroke-width: 0.75; stroke-linecap: round"/>
   </g>
   <g id="patch_40">
    <path d="M 46.133798 32.7176 
Q 46.228152 32.669857 45.574307 33.000697 
" clip-path="url(#p6dc217b079)" style="fill: none; stroke: #2f5f98; stroke-width: 0.75; stroke-linecap: round"/>
    <path d="M 41.996639 33.017804 
L 45.574307 33.000697 
L 43.441391 35.873095 
" clip-path="url(#p6dc217b079)" style="fill: none; stroke: #2f5f98; stroke-width: 0.75; stroke-linecap: round"/>
   </g>
   <g id="patch_41">
    <path d="M 96.218641 33.723467 
Q 96.317204 33.761497 95.633456 33.497675 
" clip-path="url(#p6dc217b079)" style="fill: none; stroke: #2f5f98; stroke-width: 0.75; stroke-linecap: round"/>
    <path d="M 93.223951 30.853004 
L 95.633456 33.497675 
L 92.072016 33.838477 
" clip-path="url(#p6dc217b079)" style="fill: none; stroke: #2f5f98; stroke-width: 0.75; stroke-linecap: round"/>
   </g>
   <g id="patch_42">
    <path d="M 68.266179 37.215953 
Q 68.368167 37.188209 67.661035 37.380573 
" clip-path="url(#p6dc217b079)" style="fill: none; stroke: #2f5f98; stroke-width: 0.75; stroke-linecap: round"/>
    <path d="M 64.153256 36.676661 
L 67.661035 37.380573 
L 64.993239 39.764449 
" clip-path="url(#p6dc217b079)" style="fill: none; stroke: #2f5f98; stroke-width: 0.75; stroke-linecap: round"/>
   </g>
   <g id="patch_43">
    <path d="M 44.875799 54.083236 
Q 44.95094 54.008854 44.430153 54.524382 
" clip-path="url(#p6dc217b079)" style="fill: none; stroke: #2f5f98; stroke-width: 0.75; stroke-linecap: round"/>
    <path d="M 41.030342 55.638514 
L 44.430153 54.524382 
L 43.281572 57.912709 
" clip-path="url(#p6dc217b079)" style="fill: none; stroke: #2f5f98; stroke-width: 0.75; stroke-linecap: round"/>
   </g>
   <g id="patch_44">
    <path d="M 61.677365 44.680011 
Q 61.771354 44.631669 61.119666 44.966852 
" clip-path="url(#p6dc217b079)" style="fill: none; stroke: #2f5f98; stroke-width: 0.75; stroke-linecap: round"/>
    <path d="M 57.54219 45.007629 
L 61.119666 44.966852 
L 59.005802 47.853299 
" clip-path="url(#p6dc217b079)" style="fill: none; stroke: #2f5f98; stroke-width: 0.75; stroke-linecap: round"/>
   </g>
   <g id="patch_45">
    <path d="M 48.94385 59.899582 
Q 49.012832 59.819477 48.534642 60.374769 
" clip-path="url(#p6dc217b079)" style="fill: none; stroke: #2f5f98; stroke-width: 0.75; stroke-linecap: round"/>
    <path d="M 45.234107 61.755518 
L 48.534642 60.374769 
L 47.65892 63.843646 
" clip-path="url(#p6dc217b079)" style="fill: none; stroke: #2f5f98; stroke-width: 0.75; stroke-linecap: round"/>
   </g>
   <g id="patch_46">
    <path d="M 42.824187 75.77031 
Q 42.866573 75.673452 42.57279 76.344783 
" clip-path="url(#p6dc217b079)" style="fill: none; stroke: #2f5f98; stroke-width: 0.75; stroke-linecap: round"/>
    <path d="M 39.824102 78.634917 
L 42.57279 76.344783 
L 42.755685 79.917814 
" clip-path="url(#p6dc217b079)" style="fill: none; stroke: #2f5f98; stroke-width: 0.75; stroke-linecap: round"/>
   </g>
   <g id="patch_47">
    <path d="M 41.051895 93.733473 
Q 41.064998 93.628551 40.97419 94.355691 
" clip-path="url(#p6dc217b079)" style="fill: none; stroke: #2f5f98; stroke-width: 0.75; stroke-linecap: round"/>
    <path d="M 38.989976 97.332753 
L 40.97419 94.355691 
L 42.165311 97.729299 
" clip-path="url(#p6dc217b079)" style="fill: none; stroke: #2f5f98; stroke-width: 0.75; stroke-linecap: round"/>
   </g>
   <g id="patch_48">
    <path d="M 125.417414 123.457888 
Q 125.311687 123.456995 126.044456 123.463185 
" clip-path="url(#p6dc217b079)" style="fill: none; stroke: #2f5f98; stroke-width: 0.75; stroke-linecap: round"/>
    <path d="M 129.230827 125.090158 
L 126.044456 123.463185 
L 129.257857 121.890272 
" clip-path="url(#p6dc217b079)" style="fill: none; stroke: #2f5f98; stroke-width: 0.75; stroke-linecap: round"/>
   </g>
   <g id="patch_49">
    <path d="M 151.105888 47.382586 
Q 151.104995 47.488313 151.111185 46.755544 
" clip-path="url(#p6dc217b079)" style="fill: none; stroke: #2f5f98; stroke-width: 0.75; stroke-linecap: round"/>
    <path d="M 152.738158 43.569173 
L 151.111185 46.755544 
L 149.538272 43.542143 
" clip-path="url(#p6dc217b079)" style="fill: none; stroke: #2f5f98; stroke-width: 0.75; stroke-linecap: round"/>
   </g>
   <g id="patch_50">
    <path d="M 75.030586 21.694112 
Q 75.136313 21.695005 74.403544 21.688815 
" clip-path="url(#p6dc217b079)" style="fill: none; stroke: #2f5f98; stroke-width: 0.75; stroke-linecap: round"/>
    <path d="M 71.217173 20.061842 
L 74.403544 21.688815 
L 71.190143 23.261728 
" clip-path="url(#p6dc217b079)" style="fill: none; stroke: #2f5f98; stroke-width: 0.75; stroke-linecap: round"/>
   </g>
   <g id="patch_51">
    <path d="M 48.218147 88.429387 
Q 48.236304 88.325233 48.110458 89.047147 
" clip-path="url(#p6dc217b079)" style="fill: none; stroke: #2f5f98; stroke-width: 0.75; stroke-linecap: round"/>
    <path d="M 45.984685 91.924835 
L 48.110458 89.047147 
L 49.137145 92.474378 
" clip-path="url(#p6dc217b079)" style="fill: none; stroke: #2f5f98; stroke-width: 0.75; stroke-linecap: round"/>
   </g>
   <g id="patch_52">
    <path d="M 86.275003 114.209227 
Q 86.200866 114.133922 86.715005 114.656158 
" clip-path="url(#p6dc217b079)" style="fill: none; stroke: #2f5f98; stroke-width: 0.75; stroke-linecap: round"/>
    <path d="M 87.819828 118.059005 
L 86.715005 114.656158 
L 90.100176 115.814008 
" clip-path="url(#p6dc217b079)" style="fill: none; stroke: #2f5f98; stroke-width: 0.75; stroke-linecap: round"/>
   </g>
   <g id="patch_53">
    <path d="M 111.766691 119.036812 
Q 111.663672 119.013145 112.37789 119.177227 
" clip-path="url(#p6dc217b079)" style="fill: none; stroke: #2f5f98; stroke-width: 0.75; stroke-linecap: round"/>
    <path d="M 115.138398 121.453099 
L 112.37789 119.177227 
L 115.854893 118.334344 
" clip-path="url(#p6dc217b079)" style="fill: none; stroke: #2f5f98; stroke-width: 0.75; stroke-linecap: round"/>
   </g>
   <g id="patch_54">
    <path d="M 141.857227 86.524997 
Q 141.781922 86.599134 142.304158 86.084995 
" clip-path="url(#p6dc217b079)" style="fill: none; stroke: #2f5f98; stroke-width: 0.75; stroke-linecap: round"/>
    <path d="M 145.707005 84.980172 
L 142.304158 86.084995 
L 143.462008 82.699824 
" clip-path="url(#p6dc217b079)" style="fill: none; stroke: #2f5f98; stroke-width: 0.75; stroke-linecap: round"/>
   </g>
   <g id="patch_55">
    <path d="M 146.684812 61.033309 
Q 146.661145 61.136328 146.825227 60.42211 
" clip-path="url(#p6dc217b079)" style="fill: none; stroke: #2f5f98; stroke-width: 0.75; stroke-linecap: round"/>
    <path d="M 149.101099 57.661602 
L 146.825227 60.42211 
L 145.982344 56.945107 
" clip-path="url(#p6dc217b079)" style="fill: none; stroke: #2f5f98; stroke-width: 0.75; stroke-linecap: round"/>
   </g>
   <g id="patch_56">
    <path d="M 114.172997 30.942773 
Q 114.247134 31.018078 113.732995 30.495842 
" clip-path="url(#p6dc217b079)" style="fill: none; stroke: #2f5f98; stroke-width: 0.75; stroke-linecap: round"/>
    <path d="M 112.628172 27.092995 
L 113.732995 30.495842 
L 110.347824 29.337992 
" clip-path="url(#p6dc217b079)" style="fill: none; stroke: #2f5f98; stroke-width: 0.75; stroke-linecap: round"/>
   </g>
   <g id="patch_57">
    <path d="M 88.681309 26.115188 
Q 88.784328 26.138855 88.07011 25.974773 
" clip-path="url(#p6dc217b079)" style="fill: none; stroke: #2f5f98; stroke-width: 0.75; stroke-linecap: round"/>
    <path d="M 85.309602 23.698901 
L 88.07011 25.974773 
L 84.593107 26.817656 
" clip-path="url(#p6dc217b079)" style="fill: none; stroke: #2f5f98; stroke-width: 0.75; stroke-linecap: round"/>
   </g>
   <g id="patch_58">
    <path d="M 55.098697 75.335124 
Q 55.14069 75.238142 54.849498 75.910649 
" clip-path="url(#p6dc217b079)" style="fill: none; stroke: #2f5f98; stroke-width: 0.75; stroke-linecap: round"/>
    <path d="M 52.10972 78.211435 
L 54.849498 75.910649 
L 55.04626 79.482943 
" clip-path="url(#p6dc217b079)" style="fill: none; stroke: #2f5f98; stroke-width: 0.75; stroke-linecap: round"/>
   </g>
   <g id="patch_59">
    <path d="M 53.539985 97.563252 
Q 53.537575 97.45756 53.554282 98.190174 
" clip-path="url(#p6dc217b079)" style="fill: none; stroke: #2f5f98; stroke-width: 0.75; stroke-linecap: round"/>
    <path d="M 52.027653 101.42582 
L 53.554282 98.190174 
L 55.226822 101.352865 
" clip-path="url(#p6dc217b079)" style="fill: none; stroke: #2f5f98; stroke-width: 0.75; stroke-linecap: round"/>
   </g>
   <g id="patch_60">
    <path d="M 69.197981 46.708914 
Q 69.295084 46.667269 68.621544 46.95613 
" clip-path="url(#p6dc217b079)" style="fill: none; stroke: #2f5f98; stroke-width: 0.75; stroke-linecap: round"/>
    <path d="M 65.049956 46.746942 
L 68.621544 46.95613 
L 66.311241 49.687888 
" clip-path="url(#p6dc217b079)" style="fill: none; stroke: #2f5f98; stroke-width: 0.75; stroke-linecap: round"/>
   </g>
   <g id="patch_61">
    <path d="M 75.412539 54.064098 
Q 75.478436 54.031595 74.792309 54.370016 
" clip-path="url(#p6dc217b079)" style="fill: none; stroke: #2f5f98; stroke-width: 0.75; stroke-linecap: round"/>
    <path d="M 71.214653 54.350595 
L 74.792309 54.370016 
L 72.630178 57.220488 
" clip-path="url(#p6dc217b079)" style="fill: none; stroke: #2f5f98; stroke-width: 0.75; stroke-linecap: round"/>
   </g>
   <g id="patch_62">
    <path d="M 70.719328 85.107411 
Q 70.725816 85.015845 70.673034 85.760708 
" clip-path="url(#p6dc217b079)" style="fill: none; stroke: #2f5f98; stroke-width: 0.75; stroke-linecap: round"/>
    <path d="M 68.850845 88.839609 
L 70.673034 85.760708 
L 72.042841 89.065799 
" clip-path="url(#p6dc217b079)" style="fill: none; stroke: #2f5f98; stroke-width: 0.75; stroke-linecap: round"/>
   </g>
   <g id="patch_63">
    <path d="M 86.109787 87.964788 
Q 85.865257 87.129514 85.856321 87.098989 
" clip-path="url(#p6dc217b079)" style="fill: none; stroke: #2f5f98; stroke-width: 0.75; stroke-linecap: round"/>
    <path d="M 85.21985 90.619628 
L 85.856321 87.098989 
L 88.29095 89.720549 
" clip-path="url(#p6dc217b079)" style="fill: none; stroke: #2f5f98; stroke-width: 0.75; stroke-linecap: round"/>
   </g>
   <g id="patch_64">
    <path d="M 107.159218 100.682937 
Q 107.060706 100.65958 107.778099 100.829675 
" clip-path="url(#p6dc217b079)" style="fill: none; stroke: #2f5f98; stroke-width: 0.75; stroke-linecap: round"/>
    <path d="M 110.522645 103.124771 
L 107.778099 100.829675 
L 111.260904 100.011096 
" clip-path="url(#p6dc217b079)" style="fill: none; stroke: #2f5f98; stroke-width: 0.75; stroke-linecap: round"/>
   </g>
   <g id="patch_65">
    <path d="M 115.612788 86.690213 
Q 114.777514 86.934743 114.746989 86.943679 
" clip-path="url(#p6dc217b079)" style="fill: none; stroke: #2f5f98; stroke-width: 0.75; stroke-linecap: round"/>
    <path d="M 118.267628 87.58015 
L 114.746989 86.943679 
L 117.368549 84.50905 
" clip-path="url(#p6dc217b079)" style="fill: none; stroke: #2f5f98; stroke-width: 0.75; stroke-linecap: round"/>
   </g>
   <g id="patch_66">
    <path d="M 128.330937 65.640782 
Q 128.30758 65.739294 128.477675 65.021901 
" clip-path="url(#p6dc217b079)" style="fill: none; stroke: #2f5f98; stroke-width: 0.75; stroke-linecap: round"/>
    <path d="M 130.772771 62.277355 
L 128.477675 65.021901 
L 127.659096 61.539096 
" clip-path="url(#p6dc217b079)" style="fill: none; stroke: #2f5f98; stroke-width: 0.75; stroke-linecap: round"/>
   </g>
   <g id="patch_67">
    <path d="M 110.747146 50.787452 
Q 111.262544 51.568648 111.316167 51.649924 
" clip-path="url(#p6dc217b079)" style="fill: none; stroke: #2f5f98; stroke-width: 0.75; stroke-linecap: round"/>
    <path d="M 110.889452 48.097753 
L 111.316167 51.649924 
L 108.218402 49.859993 
" clip-path="url(#p6dc217b079)" style="fill: none; stroke: #2f5f98; stroke-width: 0.75; stroke-linecap: round"/>
   </g>
   <g id="patch_68">
    <path d="M 99.73564 46.635706 
Q 100.579601 47.114715 100.69431 47.179821 
" clip-path="url(#p6dc217b079)" style="fill: none; stroke: #2f5f98; stroke-width: 0.75; stroke-linecap: round"/>
    <path d="M 98.701095 44.208778 
L 100.69431 47.179821 
L 97.121547 46.991767 
" clip-path="url(#p6dc217b079)" style="fill: none; stroke: #2f5f98; stroke-width: 0.75; stroke-linecap: round"/>
   </g>
   <g id="patch_69">
    <path d="M 91.387989 57.014007 
Q 92.161568 57.038216 92.097032 57.036196 
" clip-path="url(#p6dc217b079)" style="fill: none; stroke: #2f5f98; stroke-width: 0.75; stroke-linecap: round"/>
    <path d="M 88.948645 55.336885 
L 92.097032 57.036196 
L 88.848551 58.535319 
" clip-path="url(#p6dc217b079)" style="fill: none; stroke: #2f5f98; stroke-width: 0.75; stroke-linecap: round"/>
   </g>
  </g>
 </g>
 <defs>
  <clipPath id="p6dc217b079">
   <rect x="34.56" y="6.912" width="131.328" height="131.328"/>
  </clipPath>
 </defs>
</svg>
