<?xml version="1.0" encoding="utf-8" standalone="no"?>
<!DOCTYPE svg PUBLIC "-//W3C//DTD SVG 1.1//EN"
  "http://www.w3.org/Graphics/SVG/1.1/DTD/svg11.dtd">
<svg xmlns:xlink="http://www.w3.org/1999/xlink" width="460.8pt" height="345.6pt" viewBox="0 0 460.8 345.6" xmlns="http://www.w3.org/2000/svg" version="1.1">
 <metadata>
  <rdf:RDF xmlns:dc="http://purl.org/dc/elements/1.1/" xmlns:cc="http://creativecommons.org/ns#" xmlns:rdf="http://www.w3.org/1999/02/22-rdf-syntax-ns#">
   <cc:Work>
    <dc:type rdf:resource="http://purl.org/dc/dcmitype/StillImage"/>
    <dc:date>2024-01-10T04:25:01.244671</dc:date>
    <dc:format>image/svg+xml</dc:format>
    <dc:creator>
     <cc:Agent>
      <dc:title>Matplotlib v3.7.2, https://matplotlib.org/</dc:title>
     </cc:Agent>
    </dc:creator>
   </cc:Work>
  </rdf:RDF>
 </metadata>
 <defs>
  <style type="text/css">*{stroke-linejoin: round; stroke-linecap: butt}</style>
 </defs>
 <g id="figure_1">
  <g id="patch_1">
   <path d="M 0 345.6 
L 460.8 345.6 
L 460.8 0 
L 0 0 
z
" style="fill: #ffffff"/>
  </g>
  <g id="axes_1">
   <g id="patch_2">
    <path d="M 57.6 307.584 
L 414.72 307.584 
L 414.72 41.472 
L 57.6 41.472 
z
" style="fill: #ffffff"/>
   </g>
   <g id="PathCollection_1">
    <defs>
     <path id="m17e8386af3" d="M 0 3 
C 0.795609 3 1.55874 2.683901 2.12132 2.12132 
C 2.683901 1.55874 3 0.795609 3 0 
C 3 -0.795609 2.683901 -1.55874 2.12132 -2.12132 
C 1.55874 -2.683901 0.795609 -3 0 -3 
C -0.795609 -3 -1.55874 -2.683901 -2.12132 -2.12132 
C -2.683901 -1.55874 -3 -0.795609 -3 0 
C -3 0.795609 -2.683901 1.55874 -2.12132 2.12132 
C -1.55874 2.683901 -0.795609 3 0 3 
z
" style="stroke: #1f77b4"/>
    </defs>
    <g clip-path="url(#pc958fecc0e)">
     <use xlink:href="#m17e8386af3" x="129.024" y="307.584" style="fill: #1f77b4; stroke: #1f77b4"/>
     <use xlink:href="#m17e8386af3" x="289.728" y="106.724295" style="fill: #1f77b4; stroke: #1f77b4"/>
     <use xlink:href="#m17e8386af3" x="238.392" y="96.799115" style="fill: #1f77b4; stroke: #1f77b4"/>
     <use xlink:href="#m17e8386af3" x="403.56" y="57.716386" style="fill: #1f77b4; stroke: #1f77b4"/>
     <use xlink:href="#m17e8386af3" x="93.312" y="70.25671" style="fill: #1f77b4; stroke: #1f77b4"/>
    </g>
   </g>
   <g id="matplotlib.axis_1">
    <g id="xtick_1">
     <g id="line2d_1">
      <path d="M 57.6 307.584 
L 57.6 41.472 
" clip-path="url(#pc958fecc0e)" style="fill: none; stroke: #b0b0b0; stroke-width: 0.8; stroke-linecap: square"/>
     </g>
     <g id="line2d_2">
      <defs>
       <path id="m88bbc57193" d="M 0 0 
L 0 3.5 
" style="stroke: #000000; stroke-width: 0.8"/>
      </defs>
      <g>
       <use xlink:href="#m88bbc57193" x="57.6" y="307.584" style="stroke: #000000; stroke-width: 0.8"/>
      </g>
     </g>
     <g id="text_1">
      <!-- 0 -->
      <g transform="translate(54.41875 322.182437) scale(0.1 -0.1)">
       <defs>
        <path id="DejaVuSans-30" d="M 2034 4250 
Q 1547 4250 1301 3770 
Q 1056 3291 1056 2328 
Q 1056 1369 1301 889 
Q 1547 409 2034 409 
Q 2525 409 2770 889 
Q 3016 1369 3016 2328 
Q 3016 3291 2770 3770 
Q 2525 4250 2034 4250 
z
M 2034 4750 
Q 2819 4750 3233 4129 
Q 3647 3509 3647 2328 
Q 3647 1150 3233 529 
Q 2819 -91 2034 -91 
Q 1250 -91 836 529 
Q 422 1150 422 2328 
Q 422 3509 836 4129 
Q 1250 4750 2034 4750 
z
" transform="scale(0.015625)"/>
       </defs>
       <use xlink:href="#DejaVuSans-30"/>
      </g>
     </g>
    </g>
    <g id="xtick_2">
     <g id="line2d_3">
      <path d="M 102.24 307.584 
L 102.24 41.472 
" clip-path="url(#pc958fecc0e)" style="fill: none; stroke: #b0b0b0; stroke-width: 0.8; stroke-linecap: square"/>
     </g>
     <g id="line2d_4">
      <g>
       <use xlink:href="#m88bbc57193" x="102.24" y="307.584" style="stroke: #000000; stroke-width: 0.8"/>
      </g>
     </g>
     <g id="text_2">
      <!-- 20 -->
      <g transform="translate(95.8775 322.182437) scale(0.1 -0.1)">
       <defs>
        <path id="DejaVuSans-32" d="M 1228 531 
L 3431 531 
L 3431 0 
L 469 0 
L 469 531 
Q 828 903 1448 1529 
Q 2069 2156 2228 2338 
Q 2531 2678 2651 2914 
Q 2772 3150 2772 3378 
Q 2772 3750 2511 3984 
Q 2250 4219 1831 4219 
Q 1534 4219 1204 4116 
Q 875 4013 500 3803 
L 500 4441 
Q 881 4594 1212 4672 
Q 1544 4750 1819 4750 
Q 2544 4750 2975 4387 
Q 3406 4025 3406 3419 
Q 3406 3131 3298 2873 
Q 3191 2616 2906 2266 
Q 2828 2175 2409 1742 
Q 1991 1309 1228 531 
z
" transform="scale(0.015625)"/>
       </defs>
       <use xlink:href="#DejaVuSans-32"/>
       <use xlink:href="#DejaVuSans-30" x="63.623047"/>
      </g>
     </g>
    </g>
    <g id="xtick_3">
     <g id="line2d_5">
      <path d="M 146.88 307.584 
L 146.88 41.472 
" clip-path="url(#pc958fecc0e)" style="fill: none; stroke: #b0b0b0; stroke-width: 0.8; stroke-linecap: square"/>
     </g>
     <g id="line2d_6">
      <g>
       <use xlink:href="#m88bbc57193" x="146.88" y="307.584" style="stroke: #000000; stroke-width: 0.8"/>
      </g>
     </g>
     <g id="text_3">
      <!-- 40 -->
      <g transform="translate(140.5175 322.182437) scale(0.1 -0.1)">
       <defs>
        <path id="DejaVuSans-34" d="M 2419 4116 
L 825 1625 
L 2419 1625 
L 2419 4116 
z
M 2253 4666 
L 3047 4666 
L 3047 1625 
L 3713 1625 
L 3713 1100 
L 3047 1100 
L 3047 0 
L 2419 0 
L 2419 1100 
L 313 1100 
L 313 1709 
L 2253 4666 
z
" transform="scale(0.015625)"/>
       </defs>
       <use xlink:href="#DejaVuSans-34"/>
       <use xlink:href="#DejaVuSans-30" x="63.623047"/>
      </g>
     </g>
    </g>
    <g id="xtick_4">
     <g id="line2d_7">
      <path d="M 191.52 307.584 
L 191.52 41.472 
" clip-path="url(#pc958fecc0e)" style="fill: none; stroke: #b0b0b0; stroke-width: 0.8; stroke-linecap: square"/>
     </g>
     <g id="line2d_8">
      <g>
       <use xlink:href="#m88bbc57193" x="191.52" y="307.584" style="stroke: #000000; stroke-width: 0.8"/>
      </g>
     </g>
     <g id="text_4">
      <!-- 60 -->
      <g transform="translate(185.1575 322.182437) scale(0.1 -0.1)">
       <defs>
        <path id="DejaVuSans-36" d="M 2113 2584 
Q 1688 2584 1439 2293 
Q 1191 2003 1191 1497 
Q 1191 994 1439 701 
Q 1688 409 2113 409 
Q 2538 409 2786 701 
Q 3034 994 3034 1497 
Q 3034 2003 2786 2293 
Q 2538 2584 2113 2584 
z
M 3366 4563 
L 3366 3988 
Q 3128 4100 2886 4159 
Q 2644 4219 2406 4219 
Q 1781 4219 1451 3797 
Q 1122 3375 1075 2522 
Q 1259 2794 1537 2939 
Q 1816 3084 2150 3084 
Q 2853 3084 3261 2657 
Q 3669 2231 3669 1497 
Q 3669 778 3244 343 
Q 2819 -91 2113 -91 
Q 1303 -91 875 529 
Q 447 1150 447 2328 
Q 447 3434 972 4092 
Q 1497 4750 2381 4750 
Q 2619 4750 2861 4703 
Q 3103 4656 3366 4563 
z
" transform="scale(0.015625)"/>
       </defs>
       <use xlink:href="#DejaVuSans-36"/>
       <use xlink:href="#DejaVuSans-30" x="63.623047"/>
      </g>
     </g>
    </g>
    <g id="xtick_5">
     <g id="line2d_9">
      <path d="M 236.16 307.584 
L 236.16 41.472 
" clip-path="url(#pc958fecc0e)" style="fill: none; stroke: #b0b0b0; stroke-width: 0.8; stroke-linecap: square"/>
     </g>
     <g id="line2d_10">
      <g>
       <use xlink:href="#m88bbc57193" x="236.16" y="307.584" style="stroke: #000000; stroke-width: 0.8"/>
      </g>
     </g>
     <g id="text_5">
      <!-- 80 -->
      <g transform="translate(229.7975 322.182437) scale(0.1 -0.1)">
       <defs>
        <path id="DejaVuSans-38" d="M 2034 2216 
Q 1584 2216 1326 1975 
Q 1069 1734 1069 1313 
Q 1069 891 1326 650 
Q 1584 409 2034 409 
Q 2484 409 2743 651 
Q 3003 894 3003 1313 
Q 3003 1734 2745 1975 
Q 2488 2216 2034 2216 
z
M 1403 2484 
Q 997 2584 770 2862 
Q 544 3141 544 3541 
Q 544 4100 942 4425 
Q 1341 4750 2034 4750 
Q 2731 4750 3128 4425 
Q 3525 4100 3525 3541 
Q 3525 3141 3298 2862 
Q 3072 2584 2669 2484 
Q 3125 2378 3379 2068 
Q 3634 1759 3634 1313 
Q 3634 634 3220 271 
Q 2806 -91 2034 -91 
Q 1263 -91 848 271 
Q 434 634 434 1313 
Q 434 1759 690 2068 
Q 947 2378 1403 2484 
z
M 1172 3481 
Q 1172 3119 1398 2916 
Q 1625 2713 2034 2713 
Q 2441 2713 2670 2916 
Q 2900 3119 2900 3481 
Q 2900 3844 2670 4047 
Q 2441 4250 2034 4250 
Q 1625 4250 1398 4047 
Q 1172 3844 1172 3481 
z
" transform="scale(0.015625)"/>
       </defs>
       <use xlink:href="#DejaVuSans-38"/>
       <use xlink:href="#DejaVuSans-30" x="63.623047"/>
      </g>
     </g>
    </g>
    <g id="xtick_6">
     <g id="line2d_11">
      <path d="M 280.8 307.584 
L 280.8 41.472 
" clip-path="url(#pc958fecc0e)" style="fill: none; stroke: #b0b0b0; stroke-width: 0.8; stroke-linecap: square"/>
     </g>
     <g id="line2d_12">
      <g>
       <use xlink:href="#m88bbc57193" x="280.8" y="307.584" style="stroke: #000000; stroke-width: 0.8"/>
      </g>
     </g>
     <g id="text_6">
      <!-- 100 -->
      <g transform="translate(271.25625 322.182437) scale(0.1 -0.1)">
       <defs>
        <path id="DejaVuSans-31" d="M 794 531 
L 1825 531 
L 1825 4091 
L 703 3866 
L 703 4441 
L 1819 4666 
L 2450 4666 
L 2450 531 
L 3481 531 
L 3481 0 
L 794 0 
L 794 531 
z
" transform="scale(0.015625)"/>
       </defs>
       <use xlink:href="#DejaVuSans-31"/>
       <use xlink:href="#DejaVuSans-30" x="63.623047"/>
       <use xlink:href="#DejaVuSans-30" x="127.246094"/>
      </g>
     </g>
    </g>
    <g id="xtick_7">
     <g id="line2d_13">
      <path d="M 325.44 307.584 
L 325.44 41.472 
" clip-path="url(#pc958fecc0e)" style="fill: none; stroke: #b0b0b0; stroke-width: 0.8; stroke-linecap: square"/>
     </g>
     <g id="line2d_14">
      <g>
       <use xlink:href="#m88bbc57193" x="325.44" y="307.584" style="stroke: #000000; stroke-width: 0.8"/>
      </g>
     </g>
     <g id="text_7">
      <!-- 120 -->
      <g transform="translate(315.89625 322.182437) scale(0.1 -0.1)">
       <use xlink:href="#DejaVuSans-31"/>
       <use xlink:href="#DejaVuSans-32" x="63.623047"/>
       <use xlink:href="#DejaVuSans-30" x="127.246094"/>
      </g>
     </g>
    </g>
    <g id="xtick_8">
     <g id="line2d_15">
      <path d="M 370.08 307.584 
L 370.08 41.472 
" clip-path="url(#pc958fecc0e)" style="fill: none; stroke: #b0b0b0; stroke-width: 0.8; stroke-linecap: square"/>
     </g>
     <g id="line2d_16">
      <g>
       <use xlink:href="#m88bbc57193" x="370.08" y="307.584" style="stroke: #000000; stroke-width: 0.8"/>
      </g>
     </g>
     <g id="text_8">
      <!-- 140 -->
      <g transform="translate(360.53625 322.182437) scale(0.1 -0.1)">
       <use xlink:href="#DejaVuSans-31"/>
       <use xlink:href="#DejaVuSans-34" x="63.623047"/>
       <use xlink:href="#DejaVuSans-30" x="127.246094"/>
      </g>
     </g>
    </g>
    <g id="xtick_9">
     <g id="line2d_17">
      <path d="M 414.72 307.584 
L 414.72 41.472 
" clip-path="url(#pc958fecc0e)" style="fill: none; stroke: #b0b0b0; stroke-width: 0.8; stroke-linecap: square"/>
     </g>
     <g id="line2d_18">
      <g>
       <use xlink:href="#m88bbc57193" x="414.72" y="307.584" style="stroke: #000000; stroke-width: 0.8"/>
      </g>
     </g>
     <g id="text_9">
      <!-- 160 -->
      <g transform="translate(405.17625 322.182437) scale(0.1 -0.1)">
       <use xlink:href="#DejaVuSans-31"/>
       <use xlink:href="#DejaVuSans-36" x="63.623047"/>
       <use xlink:href="#DejaVuSans-30" x="127.246094"/>
      </g>
     </g>
    </g>
    <g id="text_10">
     <!-- 影响力 -->
     <g transform="translate(221.16 336.255875) scale(0.1 -0.1)">
      <defs>
       <path id="MicrosoftYaHei-5f71" d="M 119 2734 
L 1803 2734 
Q 1713 2903 1613 3053 
L 1897 3191 
L 875 3191 
L 875 3028 
L 450 3028 
L 450 5041 
L 3563 5041 
L 3563 3028 
L 3138 3028 
L 3138 3191 
L 2047 3191 
Q 2188 2972 2303 2734 
L 3969 2734 
L 3969 2372 
L 119 2372 
L 119 2734 
z
M 550 2016 
L 3475 2016 
L 3475 703 
L 3050 703 
L 3050 797 
L 2275 797 
L 2275 -72 
Q 2275 -791 1625 -791 
Q 1406 -791 1050 -784 
Q 1025 -559 969 -341 
Q 1288 -384 1513 -384 
Q 1844 -384 1844 -22 
L 1844 797 
L 975 797 
L 975 703 
L 550 703 
L 550 2016 
z
M 3600 -497 
Q 5038 378 5913 1734 
L 6300 1447 
Q 5319 -9 3931 -866 
Q 3763 -634 3600 -497 
z
M 3825 1784 
Q 4913 2522 5756 3634 
L 6144 3328 
Q 5200 2178 4150 1409 
Q 3981 1628 3825 1784 
z
M 3756 3616 
Q 4681 4203 5469 5222 
L 5856 4934 
Q 5075 3928 4088 3259 
Q 3906 3478 3756 3616 
z
M 3050 1678 
L 975 1678 
L 975 1134 
L 3050 1134 
L 3050 1678 
z
M 3138 4691 
L 875 4691 
L 875 4278 
L 3138 4278 
L 3138 4691 
z
M 875 3541 
L 3138 3541 
L 3138 3953 
L 875 3953 
L 875 3541 
z
M 81 -347 
Q 525 22 1019 609 
L 1381 359 
Q 838 -278 400 -634 
L 81 -347 
z
M 2575 372 
L 2869 641 
Q 3225 359 3675 -47 
L 3350 -366 
Q 3019 3 2575 372 
z
" transform="scale(0.015625)"/>
       <path id="MicrosoftYaHei-54cd" d="M 2425 4441 
L 3525 4441 
Q 3700 4884 3838 5316 
L 4344 5197 
Q 4181 4803 4019 4441 
L 5875 4441 
L 5875 -59 
Q 5875 -766 5225 -772 
Q 4900 -778 4444 -772 
Q 4413 -547 4356 -284 
Q 4781 -322 5100 -322 
Q 5438 -322 5438 72 
L 5438 4016 
L 2863 4016 
L 2863 -859 
L 2425 -859 
L 2425 4441 
z
M 413 4484 
L 1925 4484 
L 1925 166 
L 1488 166 
L 1488 641 
L 850 641 
L 850 72 
L 413 72 
L 413 4484 
z
M 3325 3191 
L 4975 3191 
L 4975 741 
L 3750 741 
L 3750 466 
L 3325 466 
L 3325 3191 
z
M 1488 4053 
L 850 4053 
L 850 1072 
L 1488 1072 
L 1488 4053 
z
M 4550 2803 
L 3750 2803 
L 3750 1128 
L 4550 1128 
L 4550 2803 
z
" transform="scale(0.015625)"/>
       <path id="MicrosoftYaHei-529b" d="M 400 3916 
L 2425 3916 
Q 2444 4603 2450 5316 
L 2994 5316 
Q 2981 4653 2963 3916 
L 5831 3916 
Q 5756 1472 5688 459 
Q 5606 -616 4538 -628 
Q 4025 -628 3300 -603 
Q 3275 -359 3206 -9 
L 3225 -9 
Q 4038 -84 4488 -78 
Q 5094 -66 5156 591 
Q 5231 1709 5269 3403 
L 2950 3403 
Q 2894 1775 2431 953 
Q 1938 41 506 -803 
Q 331 -578 131 -328 
Q 1488 434 1913 1209 
Q 2353 1913 2406 3403 
L 400 3403 
L 400 3916 
z
" transform="scale(0.015625)"/>
      </defs>
      <use xlink:href="#MicrosoftYaHei-5f71"/>
      <use xlink:href="#MicrosoftYaHei-54cd" x="100"/>
      <use xlink:href="#MicrosoftYaHei-529b" x="200"/>
     </g>
    </g>
   </g>
   <g id="matplotlib.axis_2">
    <g id="ytick_1">
     <g id="line2d_19">
      <path d="M 57.6 307.584 
L 414.72 307.584 
" clip-path="url(#pc958fecc0e)" style="fill: none; stroke: #b0b0b0; stroke-width: 0.8; stroke-linecap: square"/>
     </g>
     <g id="line2d_20">
      <defs>
       <path id="m3feac9ad46" d="M 0 0 
L -3.5 0 
" style="stroke: #000000; stroke-width: 0.8"/>
      </defs>
      <g>
       <use xlink:href="#m3feac9ad46" x="57.6" y="307.584" style="stroke: #000000; stroke-width: 0.8"/>
      </g>
     </g>
     <g id="text_11">
      <!-- 0 -->
      <g transform="translate(44.2375 311.383219) scale(0.1 -0.1)">
       <use xlink:href="#DejaVuSans-30"/>
      </g>
     </g>
    </g>
    <g id="ytick_2">
     <g id="line2d_21">
      <path d="M 57.6 263.232 
L 414.72 263.232 
" clip-path="url(#pc958fecc0e)" style="fill: none; stroke: #b0b0b0; stroke-width: 0.8; stroke-linecap: square"/>
     </g>
     <g id="line2d_22">
      <g>
       <use xlink:href="#m3feac9ad46" x="57.6" y="263.232" style="stroke: #000000; stroke-width: 0.8"/>
      </g>
     </g>
     <g id="text_12">
      <!-- 10 -->
      <g transform="translate(37.875 267.031219) scale(0.1 -0.1)">
       <use xlink:href="#DejaVuSans-31"/>
       <use xlink:href="#DejaVuSans-30" x="63.623047"/>
      </g>
     </g>
    </g>
    <g id="ytick_3">
     <g id="line2d_23">
      <path d="M 57.6 218.88 
L 414.72 218.88 
" clip-path="url(#pc958fecc0e)" style="fill: none; stroke: #b0b0b0; stroke-width: 0.8; stroke-linecap: square"/>
     </g>
     <g id="line2d_24">
      <g>
       <use xlink:href="#m3feac9ad46" x="57.6" y="218.88" style="stroke: #000000; stroke-width: 0.8"/>
      </g>
     </g>
     <g id="text_13">
      <!-- 20 -->
      <g transform="translate(37.875 222.679219) scale(0.1 -0.1)">
       <use xlink:href="#DejaVuSans-32"/>
       <use xlink:href="#DejaVuSans-30" x="63.623047"/>
      </g>
     </g>
    </g>
    <g id="ytick_4">
     <g id="line2d_25">
      <path d="M 57.6 174.528 
L 414.72 174.528 
" clip-path="url(#pc958fecc0e)" style="fill: none; stroke: #b0b0b0; stroke-width: 0.8; stroke-linecap: square"/>
     </g>
     <g id="line2d_26">
      <g>
       <use xlink:href="#m3feac9ad46" x="57.6" y="174.528" style="stroke: #000000; stroke-width: 0.8"/>
      </g>
     </g>
     <g id="text_14">
      <!-- 30 -->
      <g transform="translate(37.875 178.327219) scale(0.1 -0.1)">
       <defs>
        <path id="DejaVuSans-33" d="M 2597 2516 
Q 3050 2419 3304 2112 
Q 3559 1806 3559 1356 
Q 3559 666 3084 287 
Q 2609 -91 1734 -91 
Q 1441 -91 1130 -33 
Q 819 25 488 141 
L 488 750 
Q 750 597 1062 519 
Q 1375 441 1716 441 
Q 2309 441 2620 675 
Q 2931 909 2931 1356 
Q 2931 1769 2642 2001 
Q 2353 2234 1838 2234 
L 1294 2234 
L 1294 2753 
L 1863 2753 
Q 2328 2753 2575 2939 
Q 2822 3125 2822 3475 
Q 2822 3834 2567 4026 
Q 2313 4219 1838 4219 
Q 1578 4219 1281 4162 
Q 984 4106 628 3988 
L 628 4550 
Q 988 4650 1302 4700 
Q 1616 4750 1894 4750 
Q 2613 4750 3031 4423 
Q 3450 4097 3450 3541 
Q 3450 3153 3228 2886 
Q 3006 2619 2597 2516 
z
" transform="scale(0.015625)"/>
       </defs>
       <use xlink:href="#DejaVuSans-33"/>
       <use xlink:href="#DejaVuSans-30" x="63.623047"/>
      </g>
     </g>
    </g>
    <g id="ytick_5">
     <g id="line2d_27">
      <path d="M 57.6 130.176 
L 414.72 130.176 
" clip-path="url(#pc958fecc0e)" style="fill: none; stroke: #b0b0b0; stroke-width: 0.8; stroke-linecap: square"/>
     </g>
     <g id="line2d_28">
      <g>
       <use xlink:href="#m3feac9ad46" x="57.6" y="130.176" style="stroke: #000000; stroke-width: 0.8"/>
      </g>
     </g>
     <g id="text_15">
      <!-- 40 -->
      <g transform="translate(37.875 133.975219) scale(0.1 -0.1)">
       <use xlink:href="#DejaVuSans-34"/>
       <use xlink:href="#DejaVuSans-30" x="63.623047"/>
      </g>
     </g>
    </g>
    <g id="ytick_6">
     <g id="line2d_29">
      <path d="M 57.6 85.824 
L 414.72 85.824 
" clip-path="url(#pc958fecc0e)" style="fill: none; stroke: #b0b0b0; stroke-width: 0.8; stroke-linecap: square"/>
     </g>
     <g id="line2d_30">
      <g>
       <use xlink:href="#m3feac9ad46" x="57.6" y="85.824" style="stroke: #000000; stroke-width: 0.8"/>
      </g>
     </g>
     <g id="text_16">
      <!-- 50 -->
      <g transform="translate(37.875 89.623219) scale(0.1 -0.1)">
       <defs>
        <path id="DejaVuSans-35" d="M 691 4666 
L 3169 4666 
L 3169 4134 
L 1269 4134 
L 1269 2991 
Q 1406 3038 1543 3061 
Q 1681 3084 1819 3084 
Q 2600 3084 3056 2656 
Q 3513 2228 3513 1497 
Q 3513 744 3044 326 
Q 2575 -91 1722 -91 
Q 1428 -91 1123 -41 
Q 819 9 494 109 
L 494 744 
Q 775 591 1075 516 
Q 1375 441 1709 441 
Q 2250 441 2565 725 
Q 2881 1009 2881 1497 
Q 2881 1984 2565 2268 
Q 2250 2553 1709 2553 
Q 1456 2553 1204 2497 
Q 953 2441 691 2322 
L 691 4666 
z
" transform="scale(0.015625)"/>
       </defs>
       <use xlink:href="#DejaVuSans-35"/>
       <use xlink:href="#DejaVuSans-30" x="63.623047"/>
      </g>
     </g>
    </g>
    <g id="ytick_7">
     <g id="line2d_31">
      <path d="M 57.6 41.472 
L 414.72 41.472 
" clip-path="url(#pc958fecc0e)" style="fill: none; stroke: #b0b0b0; stroke-width: 0.8; stroke-linecap: square"/>
     </g>
     <g id="line2d_32">
      <g>
       <use xlink:href="#m3feac9ad46" x="57.6" y="41.472" style="stroke: #000000; stroke-width: 0.8"/>
      </g>
     </g>
     <g id="text_17">
      <!-- 60 -->
      <g transform="translate(37.875 45.271219) scale(0.1 -0.1)">
       <use xlink:href="#DejaVuSans-36"/>
       <use xlink:href="#DejaVuSans-30" x="63.623047"/>
      </g>
     </g>
    </g>
    <g id="text_18">
     <!-- 相似度 -->
     <g transform="translate(31.389062 189.528) rotate(-90) scale(0.1 -0.1)">
      <defs>
       <path id="MicrosoftYaHei-76f8" d="M 2738 4891 
L 6025 4891 
L 6025 -822 
L 5550 -822 
L 5550 -397 
L 3213 -397 
L 3213 -822 
L 2738 -822 
L 2738 4891 
z
M 94 1409 
Q 784 2372 1128 3622 
L 169 3622 
L 169 4041 
L 1138 4041 
L 1138 5284 
L 1594 5284 
L 1594 4041 
L 2506 4041 
L 2506 3622 
L 1594 3622 
L 1594 2534 
L 1844 2791 
Q 2275 2372 2638 1984 
L 2300 1653 
Q 1956 2059 1594 2444 
L 1594 -809 
L 1138 -809 
L 1138 2444 
Q 800 1516 319 866 
Q 225 1134 94 1409 
z
M 3213 28 
L 5550 28 
L 5550 1241 
L 3213 1241 
L 3213 28 
z
M 5550 4466 
L 3213 4466 
L 3213 3266 
L 5550 3266 
L 5550 4466 
z
M 3213 1653 
L 5550 1653 
L 5550 2853 
L 3213 2853 
L 3213 1653 
z
" transform="scale(0.015625)"/>
       <path id="MicrosoftYaHei-4f3c" d="M 5138 5128 
L 5638 5128 
Q 5638 3153 5500 2178 
Q 5416 1556 5181 1025 
Q 5841 241 6319 -353 
L 5869 -703 
Q 5469 -97 4953 581 
Q 4447 -266 3500 -847 
Q 3338 -653 3113 -434 
Q 4731 428 5013 2253 
Q 5138 3041 5138 5128 
z
M 81 2278 
Q 925 3709 1244 5316 
L 1706 5216 
Q 1550 4544 1331 3916 
L 1331 -828 
L 844 -828 
L 844 2747 
Q 594 2231 294 1747 
Q 194 2016 81 2278 
z
M 4163 1903 
Q 4188 1534 4213 1316 
Q 3506 866 2588 234 
Q 2419 109 2263 -28 
L 1913 397 
Q 2138 597 2138 966 
L 2138 4634 
L 2625 4634 
L 2625 891 
Q 3288 1316 4163 1903 
z
M 3163 5053 
L 3594 5278 
Q 4113 4372 4469 3684 
L 3975 3428 
Q 3550 4353 3163 5053 
z
" transform="scale(0.015625)"/>
       <path id="MicrosoftYaHei-5ea6" d="M 1550 1216 
L 1550 1628 
L 5469 1628 
L 5469 1222 
Q 4903 613 4147 163 
Q 5050 -200 6263 -309 
L 6019 -797 
Q 4625 -603 3644 -109 
Q 2600 -619 1250 -866 
Q 1150 -666 994 -416 
Q 2231 -222 3166 166 
Q 2497 600 2066 1216 
L 1550 1216 
z
M 1363 3541 
L 2294 3541 
L 2294 4066 
L 2769 4066 
L 2769 3541 
L 4538 3541 
L 4538 4072 
L 5013 4072 
L 5013 3541 
L 6150 3541 
L 6150 3128 
L 5013 3128 
L 5013 1928 
L 4538 1928 
L 4538 2147 
L 2769 2147 
L 2769 1922 
L 2294 1922 
L 2294 3128 
L 1363 3128 
L 1363 3541 
z
M 3025 5172 
L 3481 5391 
Q 3694 5056 3909 4634 
L 6213 4634 
L 6213 4197 
L 1225 4197 
L 1225 2316 
Q 1225 178 394 -872 
Q 238 -666 38 -447 
Q 725 397 738 2347 
L 738 4634 
L 3331 4634 
Q 3188 4909 3025 5172 
z
M 2769 2547 
L 4538 2547 
L 4538 3128 
L 2769 3128 
L 2769 2547 
z
M 4819 1216 
L 2588 1216 
Q 3031 728 3656 391 
Q 4334 741 4819 1216 
z
" transform="scale(0.015625)"/>
      </defs>
      <use xlink:href="#MicrosoftYaHei-76f8"/>
      <use xlink:href="#MicrosoftYaHei-4f3c" x="100"/>
      <use xlink:href="#MicrosoftYaHei-5ea6" x="200"/>
     </g>
    </g>
   </g>
   <g id="patch_3">
    <path d="M 57.6 307.584 
L 57.6 41.472 
" style="fill: none; stroke: #000000; stroke-width: 0.8; stroke-linejoin: miter; stroke-linecap: square"/>
   </g>
   <g id="patch_4">
    <path d="M 414.72 307.584 
L 414.72 41.472 
" style="fill: none; stroke: #000000; stroke-width: 0.8; stroke-linejoin: miter; stroke-linecap: square"/>
   </g>
   <g id="patch_5">
    <path d="M 57.6 307.584 
L 414.72 307.584 
" style="fill: none; stroke: #000000; stroke-width: 0.8; stroke-linejoin: miter; stroke-linecap: square"/>
   </g>
   <g id="patch_6">
    <path d="M 57.6 41.472 
L 414.72 41.472 
" style="fill: none; stroke: #000000; stroke-width: 0.8; stroke-linejoin: miter; stroke-linecap: square"/>
   </g>
   <g id="text_19">
    <!-- 闽南语 -->
    <g transform="translate(129.024 307.584) scale(0.1 -0.1)">
     <defs>
      <path id="MicrosoftYaHei-95fd" d="M 4031 1284 
L 4425 1484 
Q 4819 916 5256 178 
L 4819 -59 
Q 4706 153 4588 366 
Q 2944 266 1288 147 
L 1225 641 
Q 2181 672 2981 709 
L 2981 1616 
L 2056 1616 
L 2056 1353 
L 1619 1353 
L 1619 3422 
L 2981 3422 
L 2981 4216 
L 3431 4216 
L 3431 3422 
L 4794 3422 
L 4794 1616 
L 3431 1616 
L 3431 728 
Q 3919 753 4344 784 
Q 4194 1034 4031 1284 
z
M 2388 4459 
L 2388 4928 
L 5994 4928 
L 5994 97 
Q 5994 -803 5100 -803 
Q 4644 -803 4150 -791 
Q 4125 -603 4050 -284 
Q 4575 -322 5069 -322 
Q 5506 -322 5506 159 
L 5506 4459 
L 2388 4459 
z
M 419 4091 
L 906 4091 
L 906 -822 
L 419 -822 
L 419 4091 
z
M 4356 2034 
L 4356 3003 
L 3431 3003 
L 3431 2034 
L 4356 2034 
z
M 2056 2034 
L 2981 2034 
L 2981 3003 
L 2056 3003 
L 2056 2034 
z
M 744 5009 
L 1100 5328 
Q 1444 5003 1981 4453 
L 1575 4097 
Q 1063 4684 744 5009 
z
" transform="scale(0.015625)"/>
      <path id="MicrosoftYaHei-5357" d="M 163 4553 
L 2969 4553 
L 2969 5259 
L 3481 5259 
L 3481 4553 
L 6219 4553 
L 6219 4109 
L 3481 4109 
L 3481 3472 
L 5875 3472 
L 5875 -72 
Q 5875 -803 5150 -809 
Q 4738 -816 4119 -791 
Q 4081 -559 4025 -278 
Q 4644 -316 4969 -316 
Q 5381 -316 5381 47 
L 5381 3034 
L 1056 3034 
L 1056 -834 
L 563 -834 
L 563 3472 
L 2969 3472 
L 2969 4109 
L 163 4109 
L 163 4553 
z
M 1300 909 
L 2975 909 
L 2975 1591 
L 1500 1591 
L 1500 2003 
L 3463 2003 
Q 3763 2453 4069 2991 
L 4531 2734 
Q 4225 2316 3975 2003 
L 4938 2003 
L 4938 1591 
L 3463 1591 
L 3463 909 
L 5138 909 
L 5138 497 
L 3463 497 
L 3463 -703 
L 2975 -703 
L 2975 497 
L 1300 497 
L 1300 909 
z
M 1913 2741 
L 2281 2991 
Q 2600 2622 2863 2272 
L 2450 2016 
Q 2200 2378 1913 2741 
z
" transform="scale(0.015625)"/>
      <path id="MicrosoftYaHei-8bed" d="M 1825 2547 
L 2881 2547 
L 3006 3428 
L 2113 3428 
L 2113 3859 
L 3066 3859 
L 3169 4584 
L 1975 4584 
L 1975 5022 
L 6025 5022 
L 6025 4584 
L 3641 4584 
L 3541 3859 
L 5506 3859 
L 5506 2547 
L 6288 2547 
L 6288 2109 
L 1825 2109 
L 1825 2547 
z
M 2375 1466 
L 5719 1466 
L 5719 -822 
L 5250 -822 
L 5250 -441 
L 2844 -441 
L 2844 -822 
L 2375 -822 
L 2375 1466 
z
M 2094 716 
Q 2113 391 2138 178 
Q 1519 -216 888 -722 
L 594 -303 
Q 806 -103 806 259 
L 806 2716 
L 100 2716 
L 100 3166 
L 1288 3166 
L 1288 147 
Q 1725 441 2094 716 
z
M 5250 1028 
L 2844 1028 
L 2844 -3 
L 5250 -3 
L 5250 1028 
z
M 5038 3428 
L 3481 3428 
L 3363 2547 
L 5038 2547 
L 5038 3428 
z
M 738 5222 
Q 1419 4522 1725 4184 
L 1288 3816 
Q 894 4334 356 4891 
L 738 5222 
z
" transform="scale(0.015625)"/>
     </defs>
     <use xlink:href="#MicrosoftYaHei-95fd"/>
     <use xlink:href="#MicrosoftYaHei-5357" x="100"/>
     <use xlink:href="#MicrosoftYaHei-8bed" x="200"/>
    </g>
   </g>
   <g id="text_20">
    <!-- 杭州话 -->
    <g transform="translate(289.728 106.724295) scale(0.1 -0.1)">
     <defs>
      <path id="MicrosoftYaHei-676d" d="M 5081 3016 
L 5081 78 
Q 5081 -209 5331 -209 
L 5563 -209 
Q 5775 -209 5819 153 
Q 5869 528 5900 1172 
Q 6106 1078 6356 991 
Q 6288 272 6244 -16 
Q 6156 -647 5606 -647 
L 5169 -647 
Q 4619 -647 4619 53 
L 4619 2591 
L 3300 2591 
L 3300 2053 
Q 3300 953 3081 353 
Q 2850 -284 2238 -853 
Q 2063 -666 1856 -503 
Q 2450 16 2644 547 
Q 2838 1047 2838 2047 
L 2838 3016 
L 5081 3016 
z
M 63 1378 
Q 688 2334 1000 3584 
L 163 3584 
L 163 4016 
L 1006 4016 
L 1006 5266 
L 1463 5266 
L 1463 4016 
L 2213 4016 
L 2213 3584 
L 1463 3584 
L 1463 2603 
L 1731 2853 
Q 2175 2447 2544 2041 
L 2194 1697 
Q 1881 2081 1463 2509 
L 1463 -809 
L 1006 -809 
L 1006 2409 
Q 697 1475 263 834 
Q 181 1097 63 1378 
z
M 2363 4284 
L 6025 4284 
L 6025 3847 
L 2363 3847 
L 2363 4284 
z
M 3450 5134 
L 3844 5391 
Q 4150 5022 4463 4603 
L 4044 4316 
Q 3781 4722 3450 5134 
z
" transform="scale(0.015625)"/>
      <path id="MicrosoftYaHei-5dde" d="M 5288 5228 
L 5781 5228 
L 5781 -759 
L 5288 -759 
L 5288 5228 
z
M 3300 5109 
L 3794 5109 
L 3794 -641 
L 3300 -641 
L 3300 5109 
z
M 1319 5203 
L 1813 5203 
L 1813 2653 
Q 1813 316 600 -797 
Q 444 -616 225 -403 
Q 1325 578 1319 2816 
L 1319 5203 
z
M 575 3559 
L 1038 3447 
Q 813 2453 538 1678 
Q 294 1772 88 1834 
Q 381 2647 575 3559 
z
M 2019 3353 
L 2450 3528 
Q 2794 2722 3050 2066 
L 2581 1866 
Q 2344 2578 2019 3353 
z
M 3988 3341 
L 4419 3528 
Q 4763 2759 5044 2047 
L 4588 1847 
Q 4331 2584 3988 3341 
z
" transform="scale(0.015625)"/>
      <path id="MicrosoftYaHei-8bdd" d="M 2431 1928 
L 3825 1928 
L 3825 2972 
L 1813 2972 
L 1813 3434 
L 3825 3434 
L 3825 4475 
Q 3056 4428 2188 4384 
Q 2138 4616 2075 4847 
Q 4144 4928 5869 5103 
L 5981 4647 
Q 5231 4575 4325 4509 
L 4325 3434 
L 6263 3434 
L 6263 2972 
L 4325 2972 
L 4325 1928 
L 5738 1928 
L 5738 -841 
L 5250 -841 
L 5250 -397 
L 2919 -397 
L 2919 -841 
L 2431 -841 
L 2431 1928 
z
M 5250 1478 
L 2919 1478 
L 2919 53 
L 5250 53 
L 5250 1478 
z
M 2175 747 
Q 2194 409 2219 191 
Q 1506 -278 963 -722 
L 669 -303 
Q 881 -103 881 259 
L 881 2716 
L 100 2716 
L 100 3166 
L 1363 3166 
L 1363 166 
Q 1681 366 2175 747 
z
M 738 5222 
Q 1419 4522 1725 4184 
L 1288 3816 
Q 894 4334 356 4891 
L 738 5222 
z
" transform="scale(0.015625)"/>
     </defs>
     <use xlink:href="#MicrosoftYaHei-676d"/>
     <use xlink:href="#MicrosoftYaHei-5dde" x="100"/>
     <use xlink:href="#MicrosoftYaHei-8bdd" x="200"/>
    </g>
   </g>
   <g id="text_21">
    <!-- 上海话 -->
    <g transform="translate(238.392 96.799115) scale(0.1 -0.1)">
     <defs>
      <path id="MicrosoftYaHei-4e0a" d="M 163 47 
L 2613 47 
L 2613 5209 
L 3181 5209 
L 3181 3328 
L 5750 3328 
L 5750 2828 
L 3181 2828 
L 3181 47 
L 6244 47 
L 6244 -453 
L 163 -453 
L 163 47 
z
" transform="scale(0.015625)"/>
      <path id="MicrosoftYaHei-6d77" d="M 1475 2191 
L 2116 2191 
L 2338 3753 
L 5706 3753 
Q 5688 2884 5669 2191 
L 6325 2191 
L 6325 1753 
L 5653 1753 
Q 5634 1078 5616 603 
L 6125 603 
L 6125 178 
L 5588 178 
Q 5534 -281 5338 -509 
Q 5113 -766 4538 -766 
Q 4213 -766 3700 -741 
Q 3669 -528 3613 -234 
Q 4219 -291 4544 -291 
Q 5016 -291 5106 178 
L 1894 178 
L 1894 641 
L 2053 1753 
L 1475 1753 
L 1475 2191 
z
M 5184 1753 
L 2541 1753 
L 2388 603 
L 5141 603 
Q 5166 1116 5184 1753 
z
M 5225 3328 
L 2750 3328 
L 2597 2191 
L 5197 2191 
Q 5213 2722 5225 3328 
z
M 1425 3553 
Q 2200 4284 2675 5347 
L 3206 5347 
Q 3056 5022 2891 4728 
L 6194 4728 
L 6194 4291 
L 2628 4291 
Q 2225 3663 1744 3184 
Q 1600 3372 1425 3553 
z
M 275 -653 
Q 644 441 913 1741 
Q 1188 1622 1419 1547 
Q 1100 322 825 -822 
L 275 -653 
z
M 88 3253 
L 400 3609 
Q 975 3209 1469 2803 
Q 1244 2547 1106 2403 
Q 550 2903 88 3253 
z
M 325 4916 
L 644 5247 
Q 1019 4959 1688 4378 
Q 1475 4172 1319 4009 
Q 644 4653 325 4916 
z
M 3288 1372 
L 3575 1653 
Q 3994 1334 4356 1009 
L 4031 684 
Q 3663 1041 3288 1372 
z
M 3369 2972 
L 3650 3253 
Q 4050 2947 4438 2616 
L 4119 2291 
Q 3738 2666 3369 2972 
z
" transform="scale(0.015625)"/>
     </defs>
     <use xlink:href="#MicrosoftYaHei-4e0a"/>
     <use xlink:href="#MicrosoftYaHei-6d77" x="100"/>
     <use xlink:href="#MicrosoftYaHei-8bdd" x="200"/>
    </g>
   </g>
   <g id="text_22">
    <!-- 普通话 -->
    <g transform="translate(403.56 57.716386) scale(0.1 -0.1)">
     <defs>
      <path id="MicrosoftYaHei-666e" d="M 1025 1934 
L 5375 1934 
L 5375 -828 
L 4900 -828 
L 4900 -541 
L 1500 -541 
L 1500 -828 
L 1025 -828 
L 1025 1934 
z
M 150 2872 
L 2256 2872 
L 2256 4159 
L 350 4159 
L 350 4584 
L 2066 4584 
Q 1881 4838 1638 5109 
L 2000 5372 
Q 2288 5078 2538 4772 
L 2275 4584 
L 3872 4584 
Q 4116 4938 4369 5359 
L 4825 5109 
Q 4619 4822 4438 4584 
L 6050 4584 
L 6050 4159 
L 4144 4159 
L 4144 2872 
L 6250 2872 
L 6250 2447 
L 150 2447 
L 150 2872 
z
M 1500 -116 
L 4900 -116 
L 4900 491 
L 1500 491 
L 1500 -116 
z
M 4900 1509 
L 1500 1509 
L 1500 903 
L 4900 903 
L 4900 1509 
z
M 2713 2872 
L 3688 2872 
L 3688 4159 
L 2713 4159 
L 2713 2872 
z
M 4513 3259 
Q 4850 3603 5175 4041 
L 5575 3753 
Q 5225 3334 4863 2966 
L 4513 3259 
z
M 788 3722 
L 1125 4028 
Q 1525 3647 1838 3309 
L 1475 2984 
Q 1194 3316 788 3722 
z
" transform="scale(0.015625)"/>
      <path id="MicrosoftYaHei-901a" d="M 2594 147 
L 2150 147 
L 2150 3666 
L 3656 3666 
Q 3188 3906 2688 4147 
L 2944 4447 
Q 3434 4209 3866 3994 
L 4981 4578 
L 2050 4578 
L 2050 4978 
L 5806 4978 
L 5806 4559 
L 4297 3775 
Q 4406 3719 4509 3666 
L 5850 3666 
L 5850 841 
Q 5850 128 5194 128 
Q 4869 128 4488 147 
Q 4456 384 4394 628 
Q 4788 584 5069 584 
Q 5406 584 5406 909 
L 5406 1216 
L 4213 1216 
L 4213 241 
L 3769 241 
L 3769 1216 
L 2594 1216 
L 2594 147 
z
M 2663 -197 
L 4219 -222 
L 6300 -172 
Q 6231 -378 6125 -666 
L 4056 -678 
L 2569 -641 
Q 1506 -628 1081 91 
Q 825 -147 331 -747 
L 75 -228 
Q 628 306 875 538 
L 875 2641 
L 131 2641 
L 131 3103 
L 1356 3103 
L 1356 431 
Q 1741 -191 2663 -197 
z
M 856 5203 
Q 1175 4816 1731 4022 
L 1288 3709 
Q 781 4503 456 4934 
L 856 5203 
z
M 5406 3266 
L 4213 3266 
L 4213 2641 
L 5406 2641 
L 5406 3266 
z
M 4213 1616 
L 5406 1616 
L 5406 2241 
L 4213 2241 
L 4213 1616 
z
M 2594 2641 
L 3769 2641 
L 3769 3266 
L 2594 3266 
L 2594 2641 
z
M 2594 1616 
L 3769 1616 
L 3769 2241 
L 2594 2241 
L 2594 1616 
z
" transform="scale(0.015625)"/>
     </defs>
     <use xlink:href="#MicrosoftYaHei-666e"/>
     <use xlink:href="#MicrosoftYaHei-901a" x="100"/>
     <use xlink:href="#MicrosoftYaHei-8bdd" x="200"/>
    </g>
   </g>
   <g id="text_23">
    <!-- 广东话 -->
    <g transform="translate(93.312 70.25671) scale(0.1 -0.1)">
     <defs>
      <path id="MicrosoftYaHei-5e7f" d="M 975 4384 
L 3466 4384 
Q 3291 4684 3000 5097 
L 3456 5359 
Q 3763 4966 4000 4591 
L 3650 4384 
L 6213 4384 
L 6213 3878 
L 1531 3878 
L 1531 2328 
Q 1538 366 513 -797 
Q 369 -641 63 -403 
Q 975 591 975 2391 
L 975 4384 
z
" transform="scale(0.015625)"/>
      <path id="MicrosoftYaHei-4e1c" d="M 706 1884 
L 706 2359 
L 1422 4022 
L 194 4022 
L 194 4497 
L 1625 4497 
L 1994 5353 
L 2531 5241 
L 2206 4497 
L 6206 4497 
L 6206 4022 
L 2000 4022 
L 1275 2359 
L 3156 2359 
L 3156 3728 
L 3681 3728 
L 3681 2359 
L 5913 2359 
L 5913 1884 
L 3681 1884 
L 3681 41 
Q 3681 -741 2869 -741 
Q 2456 -741 1931 -734 
Q 1894 -491 1838 -172 
Q 2250 -225 2725 -228 
Q 3156 -231 3156 216 
L 3156 1884 
L 706 1884 
z
M 1619 1509 
L 2038 1191 
Q 1325 353 413 -534 
Q 250 -359 56 -184 
Q 888 603 1619 1509 
z
M 4288 1091 
L 4638 1434 
Q 5500 722 6363 -59 
L 5975 -453 
Q 5119 391 4288 1091 
z
" transform="scale(0.015625)"/>
     </defs>
     <use xlink:href="#MicrosoftYaHei-5e7f"/>
     <use xlink:href="#MicrosoftYaHei-4e1c" x="100"/>
     <use xlink:href="#MicrosoftYaHei-8bdd" x="200"/>
    </g>
   </g>
  </g>
 </g>
 <defs>
  <clipPath id="pc958fecc0e">
   <rect x="57.6" y="41.472" width="357.12" height="266.112"/>
  </clipPath>
 </defs>
</svg>
