<?xml version="1.0" encoding="utf-8"?>
<svg xmlns="http://www.w3.org/2000/svg" xmlns:xlink="http://www.w3.org/1999/xlink" width="600" height="400" viewBox="0 0 2400 1600">
<defs>
  <clipPath id="clip060">
    <rect x="0" y="0" width="2400" height="1600"/>
  </clipPath>
</defs>
<path clip-path="url(#clip060)" d="M0 1600 L2400 1600 L2400 0 L0 0  Z" fill="#ffffff" fill-rule="evenodd" fill-opacity="1"/>
<defs>
  <clipPath id="clip061">
    <rect x="480" y="0" width="1681" height="1600"/>
  </clipPath>
</defs>
<path clip-path="url(#clip060)" d="M110.881 1486.45 L2352.76 1486.45 L2352.76 47.2441 L110.881 47.2441  Z" fill="#ffffff" fill-rule="evenodd" fill-opacity="1"/>
<defs>
  <clipPath id="clip062">
    <rect x="110" y="47" width="2243" height="1440"/>
  </clipPath>
</defs>
<polyline clip-path="url(#clip062)" style="stroke:#000000; stroke-linecap:round; stroke-linejoin:round; stroke-width:2; stroke-opacity:0.1; fill:none" points="174.33,1486.45 174.33,47.2441 "/>
<polyline clip-path="url(#clip062)" style="stroke:#000000; stroke-linecap:round; stroke-linejoin:round; stroke-width:2; stroke-opacity:0.1; fill:none" points="703.074,1486.45 703.074,47.2441 "/>
<polyline clip-path="url(#clip062)" style="stroke:#000000; stroke-linecap:round; stroke-linejoin:round; stroke-width:2; stroke-opacity:0.1; fill:none" points="1231.82,1486.45 1231.82,47.2441 "/>
<polyline clip-path="url(#clip062)" style="stroke:#000000; stroke-linecap:round; stroke-linejoin:round; stroke-width:2; stroke-opacity:0.1; fill:none" points="1760.56,1486.45 1760.56,47.2441 "/>
<polyline clip-path="url(#clip062)" style="stroke:#000000; stroke-linecap:round; stroke-linejoin:round; stroke-width:2; stroke-opacity:0.1; fill:none" points="2289.31,1486.45 2289.31,47.2441 "/>
<polyline clip-path="url(#clip060)" style="stroke:#000000; stroke-linecap:round; stroke-linejoin:round; stroke-width:4; stroke-opacity:1; fill:none" points="110.881,1486.45 2352.76,1486.45 "/>
<polyline clip-path="url(#clip060)" style="stroke:#000000; stroke-linecap:round; stroke-linejoin:round; stroke-width:4; stroke-opacity:1; fill:none" points="174.33,1486.45 174.33,1467.55 "/>
<polyline clip-path="url(#clip060)" style="stroke:#000000; stroke-linecap:round; stroke-linejoin:round; stroke-width:4; stroke-opacity:1; fill:none" points="703.074,1486.45 703.074,1467.55 "/>
<polyline clip-path="url(#clip060)" style="stroke:#000000; stroke-linecap:round; stroke-linejoin:round; stroke-width:4; stroke-opacity:1; fill:none" points="1231.82,1486.45 1231.82,1467.55 "/>
<polyline clip-path="url(#clip060)" style="stroke:#000000; stroke-linecap:round; stroke-linejoin:round; stroke-width:4; stroke-opacity:1; fill:none" points="1760.56,1486.45 1760.56,1467.55 "/>
<polyline clip-path="url(#clip060)" style="stroke:#000000; stroke-linecap:round; stroke-linejoin:round; stroke-width:4; stroke-opacity:1; fill:none" points="2289.31,1486.45 2289.31,1467.55 "/>
<path clip-path="url(#clip060)" d="M151.715 1517.37 Q148.103 1517.37 146.275 1520.93 Q144.469 1524.47 144.469 1531.6 Q144.469 1538.71 146.275 1542.27 Q148.103 1545.82 151.715 1545.82 Q155.349 1545.82 157.154 1542.27 Q158.983 1538.71 158.983 1531.6 Q158.983 1524.47 157.154 1520.93 Q155.349 1517.37 151.715 1517.37 M151.715 1513.66 Q157.525 1513.66 160.58 1518.27 Q163.659 1522.85 163.659 1531.6 Q163.659 1540.33 160.58 1544.94 Q157.525 1549.52 151.715 1549.52 Q145.904 1549.52 142.826 1544.94 Q139.77 1540.33 139.77 1531.6 Q139.77 1522.85 142.826 1518.27 Q145.904 1513.66 151.715 1513.66 Z" fill="#000000" fill-rule="nonzero" fill-opacity="1" /><path clip-path="url(#clip060)" d="M171.876 1542.97 L176.761 1542.97 L176.761 1548.85 L171.876 1548.85 L171.876 1542.97 Z" fill="#000000" fill-rule="nonzero" fill-opacity="1" /><path clip-path="url(#clip060)" d="M196.946 1517.37 Q193.335 1517.37 191.506 1520.93 Q189.7 1524.47 189.7 1531.6 Q189.7 1538.71 191.506 1542.27 Q193.335 1545.82 196.946 1545.82 Q200.58 1545.82 202.386 1542.27 Q204.214 1538.71 204.214 1531.6 Q204.214 1524.47 202.386 1520.93 Q200.58 1517.37 196.946 1517.37 M196.946 1513.66 Q202.756 1513.66 205.811 1518.27 Q208.89 1522.85 208.89 1531.6 Q208.89 1540.33 205.811 1544.94 Q202.756 1549.52 196.946 1549.52 Q191.136 1549.52 188.057 1544.94 Q185.001 1540.33 185.001 1531.6 Q185.001 1522.85 188.057 1518.27 Q191.136 1513.66 196.946 1513.66 Z" fill="#000000" fill-rule="nonzero" fill-opacity="1" /><path clip-path="url(#clip060)" d="M674.811 1544.91 L691.13 1544.91 L691.13 1548.85 L669.186 1548.85 L669.186 1544.91 Q671.848 1542.16 676.431 1537.53 Q681.037 1532.88 682.218 1531.53 Q684.463 1529.01 685.343 1527.27 Q686.246 1525.51 686.246 1523.82 Q686.246 1521.07 684.301 1519.33 Q682.38 1517.6 679.278 1517.6 Q677.079 1517.6 674.625 1518.36 Q672.195 1519.13 669.417 1520.68 L669.417 1515.95 Q672.241 1514.82 674.695 1514.24 Q677.149 1513.66 679.186 1513.66 Q684.556 1513.66 687.75 1516.35 Q690.945 1519.03 690.945 1523.52 Q690.945 1525.65 690.135 1527.57 Q689.348 1529.47 687.241 1532.07 Q686.662 1532.74 683.561 1535.95 Q680.459 1539.15 674.811 1544.91 Z" fill="#000000" fill-rule="nonzero" fill-opacity="1" /><path clip-path="url(#clip060)" d="M700.945 1542.97 L705.829 1542.97 L705.829 1548.85 L700.945 1548.85 L700.945 1542.97 Z" fill="#000000" fill-rule="nonzero" fill-opacity="1" /><path clip-path="url(#clip060)" d="M716.06 1514.29 L734.417 1514.29 L734.417 1518.22 L720.343 1518.22 L720.343 1526.7 Q721.361 1526.35 722.38 1526.19 Q723.398 1526 724.417 1526 Q730.204 1526 733.583 1529.17 Q736.963 1532.34 736.963 1537.76 Q736.963 1543.34 733.491 1546.44 Q730.019 1549.52 723.699 1549.52 Q721.523 1549.52 719.255 1549.15 Q717.009 1548.78 714.602 1548.04 L714.602 1543.34 Q716.685 1544.47 718.908 1545.03 Q721.13 1545.58 723.607 1545.58 Q727.611 1545.58 729.949 1543.48 Q732.287 1541.37 732.287 1537.76 Q732.287 1534.15 729.949 1532.04 Q727.611 1529.94 723.607 1529.94 Q721.732 1529.94 719.857 1530.35 Q718.005 1530.77 716.06 1531.65 L716.06 1514.29 Z" fill="#000000" fill-rule="nonzero" fill-opacity="1" /><path clip-path="url(#clip060)" d="M1198.98 1514.29 L1217.34 1514.29 L1217.34 1518.22 L1203.27 1518.22 L1203.27 1526.7 Q1204.28 1526.35 1205.3 1526.19 Q1206.32 1526 1207.34 1526 Q1213.13 1526 1216.51 1529.17 Q1219.89 1532.34 1219.89 1537.76 Q1219.89 1543.34 1216.41 1546.44 Q1212.94 1549.52 1206.62 1549.52 Q1204.45 1549.52 1202.18 1549.15 Q1199.93 1548.78 1197.52 1548.04 L1197.52 1543.34 Q1199.61 1544.47 1201.83 1545.03 Q1204.05 1545.58 1206.53 1545.58 Q1210.53 1545.58 1212.87 1543.48 Q1215.21 1541.37 1215.21 1537.76 Q1215.21 1534.15 1212.87 1532.04 Q1210.53 1529.94 1206.53 1529.94 Q1204.65 1529.94 1202.78 1530.35 Q1200.93 1530.77 1198.98 1531.65 L1198.98 1514.29 Z" fill="#000000" fill-rule="nonzero" fill-opacity="1" /><path clip-path="url(#clip060)" d="M1229.1 1542.97 L1233.98 1542.97 L1233.98 1548.85 L1229.1 1548.85 L1229.1 1542.97 Z" fill="#000000" fill-rule="nonzero" fill-opacity="1" /><path clip-path="url(#clip060)" d="M1254.17 1517.37 Q1250.56 1517.37 1248.73 1520.93 Q1246.92 1524.47 1246.92 1531.6 Q1246.92 1538.71 1248.73 1542.27 Q1250.56 1545.82 1254.17 1545.82 Q1257.8 1545.82 1259.61 1542.27 Q1261.44 1538.71 1261.44 1531.6 Q1261.44 1524.47 1259.61 1520.93 Q1257.8 1517.37 1254.17 1517.37 M1254.17 1513.66 Q1259.98 1513.66 1263.03 1518.27 Q1266.11 1522.85 1266.11 1531.6 Q1266.11 1540.33 1263.03 1544.94 Q1259.98 1549.52 1254.17 1549.52 Q1248.36 1549.52 1245.28 1544.94 Q1242.22 1540.33 1242.22 1531.6 Q1242.22 1522.85 1245.28 1518.27 Q1248.36 1513.66 1254.17 1513.66 Z" fill="#000000" fill-rule="nonzero" fill-opacity="1" /><path clip-path="url(#clip060)" d="M1726.88 1514.29 L1749.1 1514.29 L1749.1 1516.28 L1736.56 1548.85 L1731.67 1548.85 L1743.48 1518.22 L1726.88 1518.22 L1726.88 1514.29 Z" fill="#000000" fill-rule="nonzero" fill-opacity="1" /><path clip-path="url(#clip060)" d="M1758.22 1542.97 L1763.11 1542.97 L1763.11 1548.85 L1758.22 1548.85 L1758.22 1542.97 Z" fill="#000000" fill-rule="nonzero" fill-opacity="1" /><path clip-path="url(#clip060)" d="M1773.34 1514.29 L1791.7 1514.29 L1791.7 1518.22 L1777.62 1518.22 L1777.62 1526.7 Q1778.64 1526.35 1779.66 1526.19 Q1780.68 1526 1781.7 1526 Q1787.48 1526 1790.86 1529.17 Q1794.24 1532.34 1794.24 1537.76 Q1794.24 1543.34 1790.77 1546.44 Q1787.3 1549.52 1780.98 1549.52 Q1778.8 1549.52 1776.53 1549.15 Q1774.29 1548.78 1771.88 1548.04 L1771.88 1543.34 Q1773.97 1544.47 1776.19 1545.03 Q1778.41 1545.58 1780.89 1545.58 Q1784.89 1545.58 1787.23 1543.48 Q1789.57 1541.37 1789.57 1537.76 Q1789.57 1534.15 1787.23 1532.04 Q1784.89 1529.94 1780.89 1529.94 Q1779.01 1529.94 1777.14 1530.35 Q1775.28 1530.77 1773.34 1531.65 L1773.34 1514.29 Z" fill="#000000" fill-rule="nonzero" fill-opacity="1" /><path clip-path="url(#clip060)" d="M2241.38 1544.91 L2249.02 1544.91 L2249.02 1518.55 L2240.71 1520.21 L2240.71 1515.95 L2248.97 1514.29 L2253.65 1514.29 L2253.65 1544.91 L2261.29 1544.91 L2261.29 1548.85 L2241.38 1548.85 L2241.38 1544.91 Z" fill="#000000" fill-rule="nonzero" fill-opacity="1" /><path clip-path="url(#clip060)" d="M2280.73 1517.37 Q2277.12 1517.37 2275.29 1520.93 Q2273.48 1524.47 2273.48 1531.6 Q2273.48 1538.71 2275.29 1542.27 Q2277.12 1545.82 2280.73 1545.82 Q2284.36 1545.82 2286.17 1542.27 Q2288 1538.71 2288 1531.6 Q2288 1524.47 2286.17 1520.93 Q2284.36 1517.37 2280.73 1517.37 M2280.73 1513.66 Q2286.54 1513.66 2289.6 1518.27 Q2292.67 1522.85 2292.67 1531.6 Q2292.67 1540.33 2289.6 1544.94 Q2286.54 1549.52 2280.73 1549.52 Q2274.92 1549.52 2271.84 1544.94 Q2268.79 1540.33 2268.79 1531.6 Q2268.79 1522.85 2271.84 1518.27 Q2274.92 1513.66 2280.73 1513.66 Z" fill="#000000" fill-rule="nonzero" fill-opacity="1" /><path clip-path="url(#clip060)" d="M2300.89 1542.97 L2305.78 1542.97 L2305.78 1548.85 L2300.89 1548.85 L2300.89 1542.97 Z" fill="#000000" fill-rule="nonzero" fill-opacity="1" /><path clip-path="url(#clip060)" d="M2325.96 1517.37 Q2322.35 1517.37 2320.52 1520.93 Q2318.72 1524.47 2318.72 1531.6 Q2318.72 1538.71 2320.52 1542.27 Q2322.35 1545.82 2325.96 1545.82 Q2329.6 1545.82 2331.4 1542.27 Q2333.23 1538.71 2333.23 1531.6 Q2333.23 1524.47 2331.4 1520.93 Q2329.6 1517.37 2325.96 1517.37 M2325.96 1513.66 Q2331.77 1513.66 2334.83 1518.27 Q2337.91 1522.85 2337.91 1531.6 Q2337.91 1540.33 2334.83 1544.94 Q2331.77 1549.52 2325.96 1549.52 Q2320.15 1549.52 2317.07 1544.94 Q2314.02 1540.33 2314.02 1531.6 Q2314.02 1522.85 2317.07 1518.27 Q2320.15 1513.66 2325.96 1513.66 Z" fill="#000000" fill-rule="nonzero" fill-opacity="1" /><polyline clip-path="url(#clip062)" style="stroke:#000000; stroke-linecap:round; stroke-linejoin:round; stroke-width:2; stroke-opacity:0.1; fill:none" points="110.881,1381.06 2352.76,1381.06 "/>
<polyline clip-path="url(#clip062)" style="stroke:#000000; stroke-linecap:round; stroke-linejoin:round; stroke-width:2; stroke-opacity:0.1; fill:none" points="110.881,969.461 2352.76,969.461 "/>
<polyline clip-path="url(#clip062)" style="stroke:#000000; stroke-linecap:round; stroke-linejoin:round; stroke-width:2; stroke-opacity:0.1; fill:none" points="110.881,557.86 2352.76,557.86 "/>
<polyline clip-path="url(#clip062)" style="stroke:#000000; stroke-linecap:round; stroke-linejoin:round; stroke-width:2; stroke-opacity:0.1; fill:none" points="110.881,146.259 2352.76,146.259 "/>
<polyline clip-path="url(#clip060)" style="stroke:#000000; stroke-linecap:round; stroke-linejoin:round; stroke-width:4; stroke-opacity:1; fill:none" points="110.881,1486.45 110.881,47.2441 "/>
<polyline clip-path="url(#clip060)" style="stroke:#000000; stroke-linecap:round; stroke-linejoin:round; stroke-width:4; stroke-opacity:1; fill:none" points="110.881,1381.06 129.779,1381.06 "/>
<polyline clip-path="url(#clip060)" style="stroke:#000000; stroke-linecap:round; stroke-linejoin:round; stroke-width:4; stroke-opacity:1; fill:none" points="110.881,969.461 129.779,969.461 "/>
<polyline clip-path="url(#clip060)" style="stroke:#000000; stroke-linecap:round; stroke-linejoin:round; stroke-width:4; stroke-opacity:1; fill:none" points="110.881,557.86 129.779,557.86 "/>
<polyline clip-path="url(#clip060)" style="stroke:#000000; stroke-linecap:round; stroke-linejoin:round; stroke-width:4; stroke-opacity:1; fill:none" points="110.881,146.259 129.779,146.259 "/>
<path clip-path="url(#clip060)" d="M62.9365 1366.86 Q59.3254 1366.86 57.4967 1370.43 Q55.6912 1373.97 55.6912 1381.1 Q55.6912 1388.2 57.4967 1391.77 Q59.3254 1395.31 62.9365 1395.31 Q66.5707 1395.31 68.3763 1391.77 Q70.205 1388.2 70.205 1381.1 Q70.205 1373.97 68.3763 1370.43 Q66.5707 1366.86 62.9365 1366.86 M62.9365 1363.16 Q68.7467 1363.16 71.8022 1367.76 Q74.8809 1372.35 74.8809 1381.1 Q74.8809 1389.82 71.8022 1394.43 Q68.7467 1399.01 62.9365 1399.01 Q57.1264 1399.01 54.0477 1394.43 Q50.9921 1389.82 50.9921 1381.1 Q50.9921 1372.35 54.0477 1367.76 Q57.1264 1363.16 62.9365 1363.16 Z" fill="#000000" fill-rule="nonzero" fill-opacity="1" /><path clip-path="url(#clip060)" d="M54.9736 982.805 L62.6124 982.805 L62.6124 956.44 L54.3023 958.107 L54.3023 953.847 L62.5661 952.181 L67.242 952.181 L67.242 982.805 L74.8809 982.805 L74.8809 986.741 L54.9736 986.741 L54.9736 982.805 Z" fill="#000000" fill-rule="nonzero" fill-opacity="1" /><path clip-path="url(#clip060)" d="M58.5615 571.205 L74.8809 571.205 L74.8809 575.14 L52.9366 575.14 L52.9366 571.205 Q55.5986 568.45 60.1819 563.82 Q64.7883 559.168 65.9689 557.825 Q68.2143 555.302 69.0939 553.566 Q69.9967 551.806 69.9967 550.117 Q69.9967 547.362 68.0522 545.626 Q66.1309 543.89 63.0291 543.89 Q60.83 543.89 58.3763 544.654 Q55.9458 545.418 53.168 546.969 L53.168 542.246 Q55.9921 541.112 58.4458 540.533 Q60.8995 539.955 62.9365 539.955 Q68.3068 539.955 71.5013 542.64 Q74.6957 545.325 74.6957 549.816 Q74.6957 551.945 73.8855 553.867 Q73.0985 555.765 70.992 558.357 Q70.4133 559.029 67.3115 562.246 Q64.2096 565.441 58.5615 571.205 Z" fill="#000000" fill-rule="nonzero" fill-opacity="1" /><path clip-path="url(#clip060)" d="M67.7513 144.905 Q71.1078 145.622 72.9827 147.891 Q74.8809 150.159 74.8809 153.493 Q74.8809 158.608 71.3624 161.409 Q67.8439 164.21 61.3624 164.21 Q59.1865 164.21 56.8717 163.77 Q54.5801 163.354 52.1264 162.497 L52.1264 157.983 Q54.0708 159.117 56.3856 159.696 Q58.7004 160.275 61.2236 160.275 Q65.6217 160.275 67.9133 158.539 Q70.2281 156.803 70.2281 153.493 Q70.2281 150.437 68.0754 148.724 Q65.9457 146.988 62.1263 146.988 L58.0986 146.988 L58.0986 143.145 L62.3115 143.145 Q65.7606 143.145 67.5893 141.78 Q69.418 140.391 69.418 137.798 Q69.418 135.136 67.5198 133.724 Q65.6448 132.289 62.1263 132.289 Q60.205 132.289 58.006 132.706 Q55.8069 133.122 53.168 134.002 L53.168 129.835 Q55.8301 129.095 58.1449 128.724 Q60.4828 128.354 62.543 128.354 Q67.867 128.354 70.9689 130.784 Q74.0707 133.192 74.0707 137.312 Q74.0707 140.182 72.4272 142.173 Q70.7837 144.141 67.7513 144.905 Z" fill="#000000" fill-rule="nonzero" fill-opacity="1" /><polyline clip-path="url(#clip062)" style="stroke:#009af9; stroke-linecap:round; stroke-linejoin:round; stroke-width:4; stroke-opacity:1; fill:none" points="174.33,1300.24 182.824,1197.96 191.318,1098.48 199.812,1003.13 208.306,912.957 216.8,828.69 225.293,750.767 233.787,679.35 242.281,614.388 250.775,555.662 259.269,502.845 267.763,455.535 276.257,413.298 284.751,375.688 293.245,342.269 301.738,312.623 310.232,286.356 318.726,263.11 327.22,242.55 335.714,224.38 344.208,208.327 352.702,194.154 361.196,181.639 369.689,170.597 378.183,160.849 386.677,152.253 395.171,144.665 403.665,137.975 412.159,132.07 420.653,126.867 429.147,122.271 437.64,118.226 446.134,114.648 454.628,111.504 463.122,108.719 471.616,106.276 480.11,104.108 488.604,102.21 497.098,100.522 505.592,99.0474 514.085,97.7335 522.579,96.5873 531.073,95.565 539.567,94.6739 548.061,93.8785 556.555,93.186 565.049,92.5668 573.543,92.029 582.036,91.5465 590.53,91.1291 599.024,90.7532 607.518,90.429 616.012,90.1365 624.506,89.8844 633,89.6569 641.494,89.4608 649.988,89.2841 658.481,89.1312 666.975,88.9942 675.469,88.8749 683.963,88.7688 692.457,88.6756 700.951,88.5934 709.445,88.5206 717.939,88.4569 726.432,88.4002 734.926,88.3507 743.42,88.3067 751.914,88.2679 760.408,88.2341 768.902,88.2033 777.396,88.1779 785.89,88.1528 794.384,88.1345 802.877,88.1136 811.371,88.1001 819.865,88.0841 828.359,88.0723 836.853,88.062 845.347,88.0502 853.841,88.0447 862.335,88.034 870.828,88.0298 879.322,88.0227 887.816,88.0173 896.31,88.0143 904.804,88.0078 913.298,88.0069 921.792,88.0016 930.286,87.9999 938.779,87.9979 947.273,87.9939 955.767,87.9949 964.261,87.9897 972.755,87.992 981.249,87.9869 989.743,87.9894 998.237,87.9852 1006.73,87.9869 1015.22,87.9842 1023.72,87.9846 1032.21,87.9837 1040.71,87.9827 1049.2,87.9834 1057.69,87.9814 1066.19,87.9829 1074.68,87.9804 1083.18,87.9826 1091.67,87.9797 1100.16,87.9823 1108.66,87.9793 1117.15,87.9816 1125.64,87.9794 1134.14,87.9807 1142.63,87.9801 1151.13,87.9793 1159.62,87.9811 1168.11,87.9784 1176.61,87.9812 1185.1,87.9787 1193.6,87.98 1202.09,87.9805 1210.58,87.9778 1219.08,87.9824 1227.57,87.9763 1236.07,87.9833 1244.56,87.9763 1253.05,87.9826 1261.55,87.9776 1270.04,87.9815 1278.53,87.9786 1287.03,87.9811 1295.52,87.9789 1304.02,87.9814 1312.51,87.9789 1321,87.982 1329.5,87.9788 1337.99,87.9827 1346.49,87.9788 1354.98,87.9834 1363.47,87.9793 1371.97,87.9839 1380.46,87.9803 1388.96,87.9839 1397.45,87.9823 1405.94,87.9834 1414.44,87.985 1422.93,87.983 1431.42,87.9879 1439.92,87.9837 1448.41,87.9899 1456.91,87.9861 1465.4,87.9915 1473.89,87.9897 1482.39,87.9935 1490.88,87.9941 1499.38,87.9965 1507.87,87.9994 1516.36,88.0006 1524.86,88.0059 1533.35,88.0062 1541.85,88.0138 1550.34,88.0139 1558.83,88.0237 1567.33,88.0241 1575.82,88.036 1584.31,88.0374 1592.81,88.0516 1601.3,88.0549 1609.8,88.0714 1618.29,88.0774 1626.78,88.0967 1635.28,88.1065 1643.77,88.1293 1652.27,88.1439 1660.76,88.1711 1669.25,88.1921 1677.75,88.2248 1686.24,88.254 1694.73,88.2938 1703.23,88.3336 1711.72,88.3827 1720.22,88.4356 1728.71,88.4972 1737.2,88.5665 1745.7,88.6447 1754.19,88.7345 1762.69,88.8347 1771.18,88.95 1779.67,89.0792 1788.17,89.227 1796.66,89.3936 1805.16,89.583 1813.65,89.7978 1822.14,90.0406 1830.64,90.3172 1839.13,90.6291 1847.62,90.9848 1856.12,91.3858 1864.61,91.8429 1873.11,92.3587 1881.6,92.9458 1890.09,93.6095 1898.59,94.3635 1907.08,95.2174 1915.58,96.1859 1924.07,97.2843 1932.56,98.5288 1941.06,99.9413 1949.55,101.541 1958.05,103.356 1966.54,105.413 1975.03,107.744 1983.53,110.387 1992.02,113.38 2000.51,116.757 2009.01,120.572 2017.5,124.889 2026,129.765 2034.49,135.247 2042.98,141.462 2051.48,148.502 2059.97,156.424 2068.47,165.195 2076.96,174.787 2085.45,185.481 2093.95,197.477 2102.44,210.897 2110.94,225.848 2119.43,242.466 2127.92,261.437 2136.42,282.957 2144.91,307.317 2153.4,334.527 2161.9,364.957 2170.39,399.356 2178.89,438.171 2187.38,481.75 2195.87,530.572 2204.37,585.107 2212.86,645.726 2221.36,712.703 2229.85,786.18 2238.34,866.121 2246.84,952.239 2255.33,1043.98 2263.82,1140.48 2272.32,1240.57 2280.81,1342.84 2289.31,1445.72 "/>
<path clip-path="url(#clip060)" d="M185.61 1438.47 L737.967 1438.47 L737.967 1334.79 L185.61 1334.79  Z" fill="#ffffff" fill-rule="evenodd" fill-opacity="1"/>
<polyline clip-path="url(#clip060)" style="stroke:#000000; stroke-linecap:round; stroke-linejoin:round; stroke-width:4; stroke-opacity:1; fill:none" points="185.61,1438.47 737.967,1438.47 737.967,1334.79 185.61,1334.79 185.61,1438.47 "/>
<polyline clip-path="url(#clip060)" style="stroke:#009af9; stroke-linecap:round; stroke-linejoin:round; stroke-width:4; stroke-opacity:1; fill:none" points="210.52,1386.63 359.978,1386.63 "/>
<path clip-path="url(#clip060)" d="M389.286 1390.97 Q389.286 1395.67 391.207 1398.36 Q393.152 1401.02 396.531 1401.02 Q399.911 1401.02 401.855 1398.36 Q403.8 1395.67 403.8 1390.97 Q403.8 1386.28 401.855 1383.61 Q399.911 1380.93 396.531 1380.93 Q393.152 1380.93 391.207 1383.61 Q389.286 1386.28 389.286 1390.97 M403.8 1400.03 Q402.457 1402.34 400.397 1403.47 Q398.36 1404.59 395.49 1404.59 Q390.791 1404.59 387.828 1400.84 Q384.888 1397.09 384.888 1390.97 Q384.888 1384.86 387.828 1381.11 Q390.791 1377.36 395.49 1377.36 Q398.36 1377.36 400.397 1378.5 Q402.457 1379.61 403.8 1381.92 L403.8 1377.99 L408.059 1377.99 L408.059 1413.78 L403.8 1413.78 L403.8 1400.03 Z" fill="#000000" fill-rule="nonzero" fill-opacity="1" /><path clip-path="url(#clip060)" d="M427.064 1367.94 Q423.962 1373.27 422.457 1378.47 Q420.952 1383.68 420.952 1389.03 Q420.952 1394.38 422.457 1399.63 Q423.985 1404.86 427.064 1410.16 L423.36 1410.16 Q419.888 1404.72 418.152 1399.47 Q416.439 1394.22 416.439 1389.03 Q416.439 1383.87 418.152 1378.64 Q419.864 1373.41 423.36 1367.94 L427.064 1367.94 Z" fill="#000000" fill-rule="nonzero" fill-opacity="1" /><path clip-path="url(#clip060)" d="M439.54 1370.63 L439.54 1377.99 L448.313 1377.99 L448.313 1381.3 L439.54 1381.3 L439.54 1395.37 Q439.54 1398.54 440.397 1399.45 Q441.276 1400.35 443.938 1400.35 L448.313 1400.35 L448.313 1403.91 L443.938 1403.91 Q439.008 1403.91 437.133 1402.09 Q435.258 1400.23 435.258 1395.37 L435.258 1381.3 L432.133 1381.3 L432.133 1377.99 L435.258 1377.99 L435.258 1370.63 L439.54 1370.63 Z" fill="#000000" fill-rule="nonzero" fill-opacity="1" /><path clip-path="url(#clip060)" d="M453.244 1367.94 L456.948 1367.94 Q460.42 1373.41 462.133 1378.64 Q463.869 1383.87 463.869 1389.03 Q463.869 1394.22 462.133 1399.47 Q460.42 1404.72 456.948 1410.16 L453.244 1410.16 Q456.323 1404.86 457.827 1399.63 Q459.355 1394.38 459.355 1389.03 Q459.355 1383.68 457.827 1378.47 Q456.323 1373.27 453.244 1367.94 Z" fill="#000000" fill-rule="nonzero" fill-opacity="1" /><path clip-path="url(#clip060)" d="M497.526 1380.97 Q494.1 1380.97 492.109 1383.66 Q490.119 1386.32 490.119 1390.97 Q490.119 1395.63 492.086 1398.31 Q494.077 1400.97 497.526 1400.97 Q500.929 1400.97 502.92 1398.29 Q504.91 1395.6 504.91 1390.97 Q504.91 1386.37 502.92 1383.68 Q500.929 1380.97 497.526 1380.97 M497.526 1377.36 Q503.082 1377.36 506.253 1380.97 Q509.424 1384.59 509.424 1390.97 Q509.424 1397.34 506.253 1400.97 Q503.082 1404.59 497.526 1404.59 Q491.947 1404.59 488.776 1400.97 Q485.628 1397.34 485.628 1390.97 Q485.628 1384.59 488.776 1380.97 Q491.947 1377.36 497.526 1377.36 Z" fill="#000000" fill-rule="nonzero" fill-opacity="1" /><path clip-path="url(#clip060)" d="M520.605 1400.03 L520.605 1413.78 L516.322 1413.78 L516.322 1377.99 L520.605 1377.99 L520.605 1381.92 Q521.947 1379.61 523.984 1378.5 Q526.044 1377.36 528.892 1377.36 Q533.614 1377.36 536.554 1381.11 Q539.517 1384.86 539.517 1390.97 Q539.517 1397.09 536.554 1400.84 Q533.614 1404.59 528.892 1404.59 Q526.044 1404.59 523.984 1403.47 Q521.947 1402.34 520.605 1400.03 M535.095 1390.97 Q535.095 1386.28 533.151 1383.61 Q531.23 1380.93 527.85 1380.93 Q524.47 1380.93 522.526 1383.61 Q520.605 1386.28 520.605 1390.97 Q520.605 1395.67 522.526 1398.36 Q524.47 1401.02 527.85 1401.02 Q531.23 1401.02 533.151 1398.36 Q535.095 1395.67 535.095 1390.97 Z" fill="#000000" fill-rule="nonzero" fill-opacity="1" /><path clip-path="url(#clip060)" d="M550.79 1370.63 L550.79 1377.99 L559.563 1377.99 L559.563 1381.3 L550.79 1381.3 L550.79 1395.37 Q550.79 1398.54 551.646 1399.45 Q552.526 1400.35 555.188 1400.35 L559.563 1400.35 L559.563 1403.91 L555.188 1403.91 Q550.257 1403.91 548.382 1402.09 Q546.507 1400.23 546.507 1395.37 L546.507 1381.3 L543.382 1381.3 L543.382 1377.99 L546.507 1377.99 L546.507 1370.63 L550.79 1370.63 Z" fill="#000000" fill-rule="nonzero" fill-opacity="1" /><path clip-path="url(#clip060)" d="M565.165 1377.99 L569.424 1377.99 L569.424 1403.91 L565.165 1403.91 L565.165 1377.99 M565.165 1367.9 L569.424 1367.9 L569.424 1373.29 L565.165 1373.29 L565.165 1367.9 Z" fill="#000000" fill-rule="nonzero" fill-opacity="1" /><path clip-path="url(#clip060)" d="M598.521 1382.97 Q600.118 1380.1 602.34 1378.73 Q604.563 1377.36 607.572 1377.36 Q611.623 1377.36 613.822 1380.21 Q616.021 1383.03 616.021 1388.27 L616.021 1403.91 L611.738 1403.91 L611.738 1388.41 Q611.738 1384.68 610.419 1382.87 Q609.1 1381.07 606.391 1381.07 Q603.081 1381.07 601.16 1383.27 Q599.239 1385.47 599.239 1389.26 L599.239 1403.91 L594.956 1403.91 L594.956 1388.41 Q594.956 1384.66 593.637 1382.87 Q592.317 1381.07 589.563 1381.07 Q586.299 1381.07 584.378 1383.29 Q582.456 1385.49 582.456 1389.26 L582.456 1403.91 L578.174 1403.91 L578.174 1377.99 L582.456 1377.99 L582.456 1382.02 Q583.915 1379.63 585.952 1378.5 Q587.989 1377.36 590.79 1377.36 Q593.614 1377.36 595.581 1378.8 Q597.572 1380.23 598.521 1382.97 Z" fill="#000000" fill-rule="nonzero" fill-opacity="1" /><path clip-path="url(#clip060)" d="M624.516 1377.99 L628.775 1377.99 L628.775 1403.91 L624.516 1403.91 L624.516 1377.99 M624.516 1367.9 L628.775 1367.9 L628.775 1373.29 L624.516 1373.29 L624.516 1367.9 Z" fill="#000000" fill-rule="nonzero" fill-opacity="1" /><path clip-path="url(#clip060)" d="M635.836 1377.99 L656.067 1377.99 L656.067 1381.88 L640.049 1400.51 L656.067 1400.51 L656.067 1403.91 L635.257 1403.91 L635.257 1400.03 L651.275 1381.39 L635.836 1381.39 L635.836 1377.99 Z" fill="#000000" fill-rule="nonzero" fill-opacity="1" /><path clip-path="url(#clip060)" d="M684.747 1389.89 L684.747 1391.97 L665.164 1391.97 Q665.442 1396.37 667.803 1398.68 Q670.187 1400.97 674.423 1400.97 Q676.877 1400.97 679.169 1400.37 Q681.483 1399.77 683.752 1398.57 L683.752 1402.59 Q681.46 1403.57 679.053 1404.08 Q676.646 1404.59 674.169 1404.59 Q667.965 1404.59 664.331 1400.97 Q660.72 1397.36 660.72 1391.21 Q660.72 1384.84 664.146 1381.11 Q667.595 1377.36 673.428 1377.36 Q678.659 1377.36 681.692 1380.74 Q684.747 1384.1 684.747 1389.89 M680.488 1388.64 Q680.442 1385.14 678.521 1383.06 Q676.622 1380.97 673.474 1380.97 Q669.909 1380.97 667.757 1382.99 Q665.627 1385 665.303 1388.66 L680.488 1388.64 Z" fill="#000000" fill-rule="nonzero" fill-opacity="1" /><path clip-path="url(#clip060)" d="M708.798 1381.92 L708.798 1367.9 L713.057 1367.9 L713.057 1403.91 L708.798 1403.91 L708.798 1400.03 Q707.456 1402.34 705.395 1403.47 Q703.358 1404.59 700.488 1404.59 Q695.789 1404.59 692.826 1400.84 Q689.886 1397.09 689.886 1390.97 Q689.886 1384.86 692.826 1381.11 Q695.789 1377.36 700.488 1377.36 Q703.358 1377.36 705.395 1378.5 Q707.456 1379.61 708.798 1381.92 M694.284 1390.97 Q694.284 1395.67 696.206 1398.36 Q698.15 1401.02 701.53 1401.02 Q704.909 1401.02 706.854 1398.36 Q708.798 1395.67 708.798 1390.97 Q708.798 1386.28 706.854 1383.61 Q704.909 1380.93 701.53 1380.93 Q698.15 1380.93 696.206 1383.61 Q694.284 1386.28 694.284 1390.97 Z" fill="#000000" fill-rule="nonzero" fill-opacity="1" /></svg>
