# Möbius strip, generated parametrically (u in [0,2pi+delta), v in [-1,1])
# Vertices: 803
# Faces: 1440
o MobiusStrip
v 0.450000 0.000000 0.000000
v 0.560000 0.000000 0.000000
v 0.670000 0.000000 0.000000
v 0.780000 0.000000 0.000000
v 0.890000 0.000000 0.000000
v 1.000000 0.000000 0.000000
v 1.110000 0.000000 0.000000
v 1.220000 0.000000 0.000000
v 1.330000 0.000000 0.000000
v 1.440000 0.000000 0.000000
v 1.550000 0.000000 0.000000
v 0.448808 0.039278 -0.023998
v 0.558285 0.048859 -0.019199
v 0.667762 0.058440 -0.014399
v 0.777239 0.068021 -0.009599
v 0.886715 0.077602 -0.004800
v 0.996192 0.087183 0.000000
v 1.105669 0.096764 0.004800
v 1.215146 0.106345 0.009599
v 1.324623 0.115927 0.014399
v 1.434099 0.125508 0.019199
v 1.543576 0.135089 0.023998
v 0.445222 0.078530 -0.047951
v 0.553137 0.097565 -0.038361
v 0.661052 0.116599 -0.028771
v 0.768967 0.135634 -0.019180
v 0.876883 0.154668 -0.009590
v 0.984798 0.173703 0.000000
v 1.092713 0.192737 0.009590
v 1.200629 0.211772 0.019180
v 1.308544 0.230807 0.028771
v 1.416459 0.249841 0.038361
v 1.524375 0.268876 0.047951
v 0.439205 0.117724 -0.071812
v 0.544545 0.145959 -0.057450
v 0.649885 0.174194 -0.043087
v 0.755224 0.202429 -0.028725
v 0.860564 0.230664 -0.014362
v 0.965904 0.258900 0.000000
v 1.071244 0.287135 0.014362
v 1.176584 0.315370 0.028725
v 1.281924 0.343605 0.043087
v 1.387264 0.371840 0.057450
v 1.492604 0.400075 0.071812
v 0.430701 0.156817 -0.095537
v 0.532492 0.193878 -0.076429
v 0.634282 0.230940 -0.057322
v 0.736073 0.268001 -0.038215
v 0.837864 0.305063 -0.019107
v 0.939655 0.342125 0.000000
v 1.041445 0.379186 0.019107
v 1.143236 0.416248 0.038215
v 1.245027 0.453309 0.057322
v 1.346817 0.490371 0.076429
v 1.448608 0.527433 0.095537
v 0.419635 0.195750 -0.119079
v 0.516957 0.241149 -0.095263
v 0.614280 0.286548 -0.071447
v 0.711603 0.331946 -0.047632
v 0.808926 0.377345 -0.023816
v 0.906249 0.422744 0.000000
v 1.003572 0.468143 0.023816
v 1.100895 0.513542 0.047632
v 1.198218 0.558941 0.071447
v 1.295541 0.604340 0.095263
v 1.392864 0.649739 0.119079
v 0.405913 0.234444 -0.142395
v 0.497919 0.287584 -0.113916
v 0.589924 0.340724 -0.085437
v 0.681930 0.393864 -0.056958
v 0.773936 0.447004 -0.028479
v 0.865942 0.500144 0.000000
v 0.957948 0.553284 0.028479
v 1.049954 0.606424 0.056958
v 1.141960 0.659565 0.085437
v 1.233966 0.712705 0.113916
v 1.325971 0.765845 0.142395
v 0.389431 0.272795 -0.165439
v 0.475353 0.332983 -0.132351
v 0.561275 0.393171 -0.099264
v 0.647197 0.453359 -0.066176
v 0.733119 0.513548 -0.033088
v 0.819041 0.573736 0.000000
v 0.904962 0.633924 0.033088
v 0.990884 0.694112 0.066176
v 1.076806 0.754300 0.099264
v 1.162728 0.814488 0.132351
v 1.248650 0.874676 0.165439
v 0.370076 0.310671 -0.188169
v 0.449241 0.377128 -0.150535
v 0.528406 0.443586 -0.112901
v 0.607571 0.510043 -0.075267
v 0.686736 0.576500 -0.037634
v 0.765902 0.642958 0.000000
v 0.845067 0.709415 0.037634
v 0.924232 0.775873 0.075267
v 1.003397 0.842330 0.112901
v 1.082562 0.908787 0.150535
v 1.161727 0.975245 0.188169
v 0.347734 0.347908 -0.210539
v 0.419573 0.419783 -0.168432
v 0.491412 0.491658 -0.126324
v 0.563251 0.563533 -0.084216
v 0.635091 0.635408 -0.042108
v 0.706930 0.707284 0.000000
v 0.778769 0.779159 0.042108
v 0.850609 0.851034 0.084216
v 0.922448 0.922909 0.126324
v 0.994287 0.994784 0.168432
v 1.066126 1.066660 0.210539
v 0.322292 0.384309 -0.232509
v 0.386348 0.460692 -0.186007
v 0.450405 0.537075 -0.139506
v 0.514462 0.613457 -0.093004
v 0.578518 0.689840 -0.046502
v 0.642575 0.766223 0.000000
v 0.706631 0.842606 0.046502
v 0.770688 0.918989 0.093004
v 0.834745 0.995371 0.139506
v 0.898801 1.071754 0.186007
v 0.962858 1.148137 0.232509
v 0.293648 0.419645 -0.254036
v 0.349583 0.499582 -0.203229
v 0.405519 0.579518 -0.152422
v 0.461455 0.659455 -0.101615
v 0.517390 0.739391 -0.050807
v 0.573326 0.819327 0.000000
v 0.629262 0.899264 0.050807
v 0.685197 0.979200 0.101615
v 0.741133 1.059136 0.152422
v 0.797069 1.139073 0.203229
v 0.853004 1.219009 0.254036
v 0.261715 0.453652 -0.275079
v 0.309314 0.536160 -0.220064
v 0.356913 0.618668 -0.165048
v 0.404513 0.701176 -0.110032
v 0.452112 0.783684 -0.055016
v 0.499711 0.866192 0.000000
v 0.547311 0.948700 0.055016
v 0.594910 1.031208 0.110032
v 0.642509 1.113716 0.165048
v 0.690109 1.196224 0.220064
v 0.737708 1.278732 0.275079
v 0.226427 0.486033 -0.295599
v 0.265600 0.570119 -0.236479
v 0.304773 0.654204 -0.177359
v 0.343946 0.738289 -0.118239
v 0.383118 0.822375 -0.059120
v 0.422291 0.906460 0.000000
v 0.461464 0.990546 0.059120
v 0.500636 1.074631 0.118239
v 0.539809 1.158717 0.177359
v 0.578982 1.242802 0.236479
v 0.618155 1.326887 0.295599
v 0.187749 0.516460 -0.315555
v 0.218530 0.601133 -0.252444
v 0.249311 0.685806 -0.189333
v 0.280092 0.770479 -0.126222
v 0.310873 0.855152 -0.063111
v 0.341655 0.939826 0.000000
v 0.372436 1.024499 0.063111
v 0.403217 1.109172 0.126222
v 0.433998 1.193845 0.189333
v 0.464779 1.278518 0.252444
v 0.495561 1.363191 0.315555
v 0.145676 0.544578 -0.334910
v 0.168224 0.628869 -0.267928
v 0.190772 0.713160 -0.200946
v 0.213320 0.797451 -0.133964
v 0.235868 0.881742 -0.066982
v 0.258417 0.966034 0.000000
v 0.280965 1.050325 0.066982
v 0.303513 1.134616 0.133964
v 0.326061 1.218907 0.200946
v 0.348609 1.303198 0.267928
v 0.371157 1.387489 0.334910
v 0.100246 0.570006 -0.353627
v 0.114839 0.652982 -0.282901
v 0.129432 0.735958 -0.212176
v 0.144025 0.818933 -0.141451
v 0.158618 0.901909 -0.070725
v 0.173210 0.984885 0.000000
v 0.187803 1.067861 0.070725
v 0.202396 1.150836 0.141451
v 0.216989 1.233812 0.212176
v 0.231582 1.316788 0.282901
v 0.246175 1.399764 0.353627
v 0.051542 0.592347 -0.371670
v 0.058571 0.673125 -0.297336
v 0.065599 0.753903 -0.223002
v 0.072628 0.834680 -0.148668
v 0.079657 0.915458 -0.074334
v 0.086685 0.996236 0.000000
v 0.093714 1.077013 0.074334
v 0.100743 1.157791 0.148668
v 0.107771 1.238569 0.223002
v 0.114800 1.319347 0.297336
v 0.121829 1.400124 0.371670
v -0.000306 0.611188 -0.389006
v -0.000344 0.688951 -0.311205
v -0.000383 0.766713 -0.233404
v -0.000422 0.844475 -0.155602
v -0.000461 0.922238 -0.077801
v -0.000500 1.000000 0.000000
v -0.000539 1.077762 0.077801
v -0.000578 1.155524 0.155602
v -0.000617 1.233287 0.233404
v -0.000656 1.311049 0.311205
v -0.000694 1.388811 0.389006
v -0.055111 0.626112 -0.405601
v -0.061625 0.700119 -0.324480
v -0.068139 0.774126 -0.243360
v -0.074653 0.848134 -0.162240
v -0.081167 0.922141 -0.081120
v -0.087682 0.996149 0.000000
v -0.094196 1.070156 0.081120
v -0.100710 1.144163 0.162240
v -0.107224 1.218171 0.243360
v -0.113738 1.292178 0.324480
v -0.120252 1.366185 0.405601
v -0.112632 0.636698 -0.421423
v -0.124945 0.706301 -0.337138
v -0.137257 0.775903 -0.252854
v -0.149570 0.845506 -0.168569
v -0.161883 0.915109 -0.084285
v -0.174195 0.984711 0.000000
v -0.186508 1.054314 0.084285
v -0.198821 1.123916 0.168569
v -0.211133 1.193519 0.252854
v -0.223446 1.263121 0.337138
v -0.235759 1.332724 0.421423
v -0.172569 0.642538 -0.436442
v -0.189932 0.707185 -0.349154
v -0.207295 0.771833 -0.261865
v -0.224657 0.836480 -0.174577
v -0.242020 0.901127 -0.087288
v -0.259382 0.965775 0.000000
v -0.276745 1.030422 0.087288
v -0.294108 1.095069 0.174577
v -0.311470 1.159717 0.261865
v -0.328833 1.224364 0.349154
v -0.346196 1.289011 0.436442
v -0.234564 0.643237 -0.450630
v -0.256170 0.702486 -0.360504
v -0.277776 0.761735 -0.270378
v -0.299382 0.820985 -0.180252
v -0.320988 0.880234 -0.090126
v -0.342594 0.939483 0.000000
v -0.364200 0.998733 0.090126
v -0.385806 1.057982 0.180252
v -0.407412 1.117231 0.270378
v -0.429018 1.176481 0.360504
v -0.450624 1.235730 0.450630
v -0.298199 0.638424 -0.463960
v -0.323199 0.691947 -0.371168
v -0.348198 0.745470 -0.278376
v -0.373198 0.798992 -0.185584
v -0.398198 0.852515 -0.092792
v -0.423197 0.906038 0.000000
v -0.448197 0.959560 0.092792
v -0.473197 1.013083 0.185584
v -0.498196 1.066606 0.278376
v -0.523196 1.120128 0.371168
v -0.548196 1.173651 0.463960
v -0.362998 0.627764 -0.476406
v -0.390514 0.675350 -0.381124
v -0.418030 0.722935 -0.285843
v -0.445546 0.770521 -0.190562
v -0.473061 0.818106 -0.095281
v -0.500577 0.865692 0.000000
v -0.528093 0.913277 0.095281
v -0.555609 0.960863 0.190562
v -0.583125 1.008449 0.285843
v -0.610641 1.056034 0.381124
v -0.638156 1.103620 0.476406
v -0.428432 0.610960 -0.487944
v -0.457574 0.652519 -0.390355
v -0.486717 0.694078 -0.292766
v -0.515860 0.735636 -0.195178
v -0.545002 0.777195 -0.097589
v -0.574145 0.818754 0.000000
v -0.603288 0.860312 0.097589
v -0.632431 0.901871 0.195178
v -0.661573 0.943430 0.292766
v -0.690716 0.984988 0.390355
v -0.719859 1.026547 0.487944
v -0.493918 0.587766 -0.498553
v -0.523803 0.623329 -0.398843
v -0.553687 0.658892 -0.299132
v -0.583572 0.694455 -0.199421
v -0.613456 0.730017 -0.099711
v -0.643341 0.765580 0.000000
v -0.673225 0.801143 0.099711
v -0.703110 0.836705 0.199421
v -0.732994 0.872268 0.299132
v -0.762879 0.907831 0.398843
v -0.792763 0.943394 0.498553
v -0.558831 0.557994 -0.508213
v -0.588592 0.587710 -0.406570
v -0.618354 0.617427 -0.304928
v -0.648115 0.647143 -0.203285
v -0.677876 0.676860 -0.101643
v -0.707637 0.706576 0.000000
v -0.737398 0.736293 0.101643
v -0.767159 0.766009 0.203285
v -0.796920 0.795726 0.304928
v -0.826681 0.825442 0.406570
v -0.856443 0.855159 0.508213
v -0.622503 0.521517 -0.516904
v -0.651311 0.545652 -0.413523
v -0.680119 0.569787 -0.310142
v -0.708928 0.593922 -0.206762
v -0.737736 0.618057 -0.103381
v -0.766544 0.642192 0.000000
v -0.795352 0.666326 0.103381
v -0.824161 0.690461 0.206762
v -0.852969 0.714596 0.310142
v -0.881777 0.738731 0.413523
v -0.910586 0.762866 0.516904
v -0.684233 0.478284 -0.524611
v -0.711309 0.497210 -0.419689
v -0.738385 0.516137 -0.314767
v -0.765461 0.535063 -0.209844
v -0.792538 0.553990 -0.104922
v -0.819614 0.572916 0.000000
v -0.846690 0.591843 0.104922
v -0.873766 0.610769 0.209844
v -0.900843 0.629696 0.314767
v -0.927919 0.648622 0.419689
v -0.954995 0.667549 0.524611
v -0.743295 0.428316 -0.531318
v -0.767924 0.442509 -0.425055
v -0.792554 0.456701 -0.318791
v -0.817183 0.470893 -0.212527
v -0.841812 0.485086 -0.106264
v -0.866442 0.499278 0.000000
v -0.891071 0.513471 0.106264
v -0.915700 0.527663 0.212527
v -0.940330 0.541855 0.318791
v -0.964959 0.556048 0.425055
v -0.989588 0.570240 0.531318
v -0.798949 0.371719 -0.537014
v -0.820494 0.381743 -0.429611
v -0.842038 0.391766 -0.322208
v -0.863583 0.401790 -0.214806
v -0.885127 0.411814 -0.107403
v -0.906671 0.421838 0.000000
v -0.928216 0.431861 0.107403
v -0.949760 0.441885 0.214806
v -0.971305 0.451909 0.322208
v -0.992849 0.461933 0.429611
v -1.014394 0.471956 0.537014
v -0.850447 0.308682 -0.541687
v -0.868357 0.315182 -0.433349
v -0.886267 0.321683 -0.325012
v -0.904176 0.328183 -0.216675
v -0.922086 0.334684 -0.108337
v -0.939996 0.341185 0.000000
v -0.957906 0.347685 0.108337
v -0.975816 0.354186 0.216675
v -0.993726 0.360687 0.325012
v -1.011636 0.367187 0.433349
v -1.029546 0.373688 0.541687
v -0.897044 0.239481 -0.545328
v -0.910868 0.243172 -0.436262
v -0.924691 0.246862 -0.327197
v -0.938515 0.250553 -0.218131
v -0.952339 0.254243 -0.109066
v -0.966163 0.257934 0.000000
v -0.979986 0.261624 0.109066
v -0.993810 0.265314 0.218131
v -1.007634 0.269005 0.327197
v -1.021458 0.272695 0.436262
v -1.035281 0.276386 0.545328
v -0.938011 0.164483 -0.547930
v -0.947403 0.166130 -0.438344
v -0.956795 0.167777 -0.328758
v -0.966187 0.169424 -0.219172
v -0.975579 0.171071 -0.109586
v -0.984971 0.172718 0.000000
v -0.994363 0.174365 0.109586
v -1.003755 0.176012 0.219172
v -1.013148 0.177659 0.328758
v -1.022540 0.179306 0.438344
v -1.031932 0.180953 0.547930
v -0.972644 0.084143 -0.549488
v -0.977371 0.084551 -0.439590
v -0.982098 0.084960 -0.329693
v -0.986825 0.085369 -0.219795
v -0.991552 0.085778 -0.109898
v -0.996279 0.086187 0.000000
v -1.001006 0.086596 0.109898
v -1.005733 0.087005 0.219795
v -1.010460 0.087414 0.329693
v -1.015187 0.087823 0.439590
v -1.019914 0.088232 0.549488
v -1.000274 -0.001000 -0.550000
v -1.000219 -0.001000 -0.440000
v -1.000164 -0.001000 -0.330000
v -1.000109 -0.001000 -0.220000
v -1.000054 -0.001000 -0.110000
v -1.000000 -0.001000 0.000000
v -0.999945 -0.001000 0.110000
v -0.999890 -0.001000 0.220000
v -0.999835 -0.001000 0.330000
v -0.999780 -0.001000 0.440000
v -0.999725 -0.001000 0.550000
v -1.020283 -0.090320 -0.549464
v -1.015447 -0.089892 -0.439571
v -1.010612 -0.089464 -0.329678
v -1.005776 -0.089036 -0.219786
v -1.000940 -0.088608 -0.109893
v -0.996105 -0.088180 0.000000
v -0.991269 -0.087751 0.109893
v -0.986433 -0.087323 0.219786
v -0.981598 -0.086895 0.329678
v -0.976762 -0.086467 0.439571
v -0.971926 -0.086039 0.549464
v -1.032107 -0.183112 -0.547882
v -1.022611 -0.181427 -0.438305
v -1.013114 -0.179742 -0.328729
v -1.003617 -0.178057 -0.219153
v -0.994121 -0.176372 -0.109576
v -0.984624 -0.174688 0.000000
v -0.975127 -0.173003 0.109576
v -0.965631 -0.171318 0.219153
v -0.956134 -0.169633 0.328729
v -0.946637 -0.167948 0.438305
v -0.937141 -0.166263 0.547882
v -1.035253 -0.278598 -0.545256
v -1.021331 -0.274851 -0.436205
v -1.007410 -0.271105 -0.327153
v -0.993488 -0.267358 -0.218102
v -0.979567 -0.263612 -0.109051
v -0.965645 -0.259865 0.000000
v -0.951723 -0.256119 0.109051
v -0.937802 -0.252372 0.218102
v -0.923880 -0.248626 0.327153
v -0.909958 -0.244879 0.436205
v -0.896037 -0.241133 0.545256
v -1.029305 -0.375932 -0.541591
v -1.011306 -0.369358 -0.433273
v -0.993308 -0.362785 -0.324955
v -0.975309 -0.356211 -0.216636
v -0.957311 -0.349638 -0.108318
v -0.939312 -0.343064 0.000000
v -0.921313 -0.336490 0.108318
v -0.903315 -0.329917 0.216636
v -0.885316 -0.323343 0.324955
v -0.867318 -0.316770 0.433273
v -0.849319 -0.310196 0.541591
v -1.013934 -0.474212 -0.536895
v -0.992312 -0.464099 -0.429516
v -0.970691 -0.453987 -0.322137
v -0.949069 -0.443875 -0.214758
v -0.927448 -0.433762 -0.107379
v -0.905826 -0.423650 0.000000
v -0.884204 -0.413538 0.107379
v -0.862583 -0.403426 0.214758
v -0.840961 -0.393313 0.322137
v -0.819339 -0.383201 0.429516
v -0.797718 -0.373089 0.536895
v -0.988906 -0.572484 -0.531176
v -0.964213 -0.558189 -0.424941
v -0.939520 -0.543895 -0.318706
v -0.914827 -0.529600 -0.212470
v -0.890134 -0.515305 -0.106235
v -0.865441 -0.501010 0.000000
v -0.840749 -0.486715 0.106235
v -0.816056 -0.472420 0.212470
v -0.791363 -0.458125 0.318706
v -0.766670 -0.443831 0.424941
v -0.741977 -0.429536 0.531176
v -0.954087 -0.669759 -0.524445
v -0.926963 -0.650718 -0.419556
v -0.899839 -0.631677 -0.314667
v -0.872715 -0.612636 -0.209778
v -0.845591 -0.593595 -0.104889
v -0.818466 -0.574554 0.000000
v -0.791342 -0.555514 0.104889
v -0.764218 -0.536473 0.209778
v -0.737094 -0.517432 0.314667
v -0.709970 -0.498391 0.419556
v -0.682845 -0.479350 0.524445
v -0.909453 -0.765018 -0.516716
v -0.880614 -0.740759 -0.413373
v -0.851775 -0.716500 -0.310030
v -0.822936 -0.692241 -0.206686
v -0.794097 -0.667982 -0.103343
v -0.765258 -0.643723 0.000000
v -0.736419 -0.619464 0.103343
v -0.707580 -0.595205 0.206686
v -0.678741 -0.570947 0.310030
v -0.649902 -0.546688 0.413373
v -0.621063 -0.522429 0.516716
v -0.855089 -0.857230 -0.508002
v -0.825316 -0.827382 -0.406402
v -0.795543 -0.797534 -0.304801
v -0.765769 -0.767686 -0.203201
v -0.735996 -0.737838 -0.101600
v -0.706222 -0.707990 0.000000
v -0.676449 -0.678142 0.101600
v -0.646676 -0.648294 0.203201
v -0.616902 -0.618446 0.304801
v -0.587129 -0.588598 0.406402
v -0.557355 -0.558750 0.508002
v -0.791195 -0.945360 -0.498321
v -0.761317 -0.909661 -0.398657
v -0.731440 -0.873962 -0.298992
v -0.701563 -0.838263 -0.199328
v -0.671686 -0.802564 -0.099664
v -0.641808 -0.766865 0.000000
v -0.611931 -0.731166 0.099664
v -0.582054 -0.695467 0.199328
v -0.552176 -0.659769 0.298992
v -0.522299 -0.624070 0.398657
v -0.492422 -0.588371 0.498321
v -0.718084 -1.028385 -0.487690
v -0.688968 -0.986688 -0.390152
v -0.659853 -0.944991 -0.292614
v -0.630737 -0.903294 -0.195076
v -0.601622 -0.861597 -0.097538
v -0.572506 -0.819900 0.000000
v -0.543391 -0.778203 0.097538
v -0.514276 -0.736506 0.195076
v -0.485160 -0.694810 0.292614
v -0.456045 -0.653113 0.390152
v -0.426929 -0.611416 0.487690
v -0.636186 -1.105307 -0.476131
v -0.608717 -1.057584 -0.380904
v -0.581249 -1.009860 -0.285678
v -0.553781 -0.962137 -0.190452
v -0.526313 -0.914414 -0.095226
v -0.498845 -0.866691 0.000000
v -0.471377 -0.818968 0.095226
v -0.443909 -0.771245 0.190452
v -0.416440 -0.723522 0.285678
v -0.388972 -0.675799 0.380904
v -0.361504 -0.628076 0.476131
v -0.546043 -1.175165 -0.463664
v -0.521111 -1.121509 -0.370931
v -0.496179 -1.067852 -0.278198
v -0.471248 -1.014196 -0.185466
v -0.446316 -0.960539 -0.092733
v -0.421384 -0.906882 0.000000
v -0.396453 -0.853226 0.092733
v -0.371521 -0.799569 0.185466
v -0.346589 -0.745912 0.278198
v -0.321658 -0.692256 0.370931
v -0.296726 -0.638599 0.463664
v -0.448306 -1.237052 -0.450314
v -0.426787 -1.177675 -0.360252
v -0.405269 -1.118298 -0.270189
v -0.383751 -1.058921 -0.180126
v -0.362233 -0.999544 -0.090063
v -0.340715 -0.940167 0.000000
v -0.319197 -0.880790 0.090063
v -0.297678 -0.821412 0.180126
v -0.276160 -0.762035 0.270189
v -0.254642 -0.702658 0.360252
v -0.233124 -0.643281 0.450314
v -0.343729 -1.290123 -0.436107
v -0.326473 -1.225356 -0.348886
v -0.309218 -1.160590 -0.261664
v -0.291962 -1.095824 -0.174443
v -0.274706 -1.031058 -0.087221
v -0.257450 -0.966292 0.000000
v -0.240195 -0.901525 0.087221
v -0.222939 -0.836759 0.174443
v -0.205683 -0.771993 0.261664
v -0.188427 -0.707227 0.348886
v -0.171172 -0.642460 0.436107
v -0.233165 -1.333608 -0.421069
v -0.220977 -1.263898 -0.336855
v -0.208789 -1.194188 -0.252641
v -0.196601 -1.124478 -0.168428
v -0.184413 -1.054768 -0.084214
v -0.172225 -0.985058 0.000000
v -0.160038 -0.915348 0.084214
v -0.147850 -0.845637 0.168428
v -0.135662 -0.775927 0.252641
v -0.123474 -0.706217 0.336855
v -0.111286 -0.636507 0.421069
v -0.117554 -1.366827 -0.405229
v -0.111181 -1.292726 -0.324183
v -0.104808 -1.218625 -0.243137
v -0.098435 -1.144524 -0.162092
v -0.092062 -1.070423 -0.081046
v -0.085689 -0.996322 0.000000
v -0.079316 -0.922221 0.081046
v -0.072943 -0.848120 0.162092
v -0.066570 -0.774019 0.243137
v -0.060197 -0.699918 0.324183
v -0.053824 -0.625817 0.405229
v 0.002084 -1.389199 -0.388617
v 0.001967 -1.311359 -0.310894
v 0.001850 -1.233519 -0.233170
v 0.001734 -1.155679 -0.155447
v 0.001617 -1.077839 -0.077723
v 0.001500 -0.999999 0.000000
v 0.001383 -0.922159 0.077723
v 0.001266 -0.844319 0.155447
v 0.001150 -0.766479 0.233170
v 0.001033 -0.688639 0.310894
v 0.000916 -0.610799 0.388617
v 0.124662 -1.400248 -0.371265
v 0.117465 -1.319410 -0.297012
v 0.110268 -1.238573 -0.222759
v 0.103071 -1.157735 -0.148506
v 0.095874 -1.076898 -0.074253
v 0.088678 -0.996060 0.000000
v 0.081481 -0.915223 0.074253
v 0.074284 -0.834385 0.148506
v 0.067087 -0.753548 0.222759
v 0.059890 -0.672710 0.297012
v 0.052693 -0.591873 0.371265
v 0.249036 -1.399616 -0.353205
v 0.234264 -1.316600 -0.282564
v 0.219493 -1.233584 -0.211923
v 0.204722 -1.150568 -0.141282
v 0.189951 -1.067552 -0.070641
v 0.175180 -0.984536 0.000000
v 0.160409 -0.901520 0.070641
v 0.145638 -0.818504 0.141282
v 0.130866 -0.735489 0.211923
v 0.116095 -0.652473 0.282564
v 0.101324 -0.569457 0.353205
v 0.374018 -1.387068 -0.334473
v 0.351284 -1.302757 -0.267579
v 0.328550 -1.218446 -0.200684
v 0.305816 -1.134136 -0.133789
v 0.283082 -1.049825 -0.066895
v 0.260348 -0.965515 0.000000
v 0.237614 -0.881204 0.066895
v 0.214880 -0.796894 0.133789
v 0.192146 -0.712583 0.200684
v 0.169412 -0.628273 0.267579
v 0.146678 -0.543962 0.334473
v 0.498394 -1.362493 -0.315104
v 0.467422 -1.277823 -0.252083
v 0.436450 -1.193152 -0.189062
v 0.405478 -1.108482 -0.126042
v 0.374506 -1.023811 -0.063021
v 0.343534 -0.939140 0.000000
v 0.312562 -0.854470 0.063021
v 0.281589 -0.769799 0.126042
v 0.250617 -0.685129 0.189062
v 0.219645 -0.600458 0.252083
v 0.188673 -0.515788 0.315104
v 0.620932 -1.325916 -0.295135
v 0.581566 -1.241856 -0.236108
v 0.542201 -1.157795 -0.177081
v 0.502835 -1.073735 -0.118054
v 0.463469 -0.989674 -0.059027
v 0.424103 -0.905614 0.000000
v 0.384737 -0.821554 0.059027
v 0.345371 -0.737493 0.118054
v 0.306005 -0.653433 0.177081
v 0.266640 -0.569372 0.236108
v 0.227274 -0.485312 0.295135
v 0.740402 -1.277491 -0.274603
v 0.692610 -1.195031 -0.219682
v 0.644818 -1.112571 -0.164762
v 0.597026 -1.030111 -0.109841
v 0.549234 -0.947651 -0.054921
v 0.501443 -0.865191 0.000000
v 0.453651 -0.782731 0.054921
v 0.405859 -0.700271 0.109841
v 0.358067 -0.617810 0.164762
v 0.310275 -0.535350 0.219682
v 0.262484 -0.452890 0.274603
v 0.855587 -1.217508 -0.253548
v 0.799462 -1.137642 -0.202839
v 0.743337 -1.057777 -0.152129
v 0.687213 -0.977911 -0.101419
v 0.631088 -0.898045 -0.050710
v 0.574964 -0.818179 0.000000
v 0.518839 -0.738313 0.050710
v 0.462714 -0.658447 0.101419
v 0.406590 -0.578581 0.152129
v 0.350465 -0.498715 0.202839
v 0.294341 -0.418850 0.253548
v 0.965302 -1.146386 -0.232011
v 0.901063 -1.070096 -0.185609
v 0.836823 -0.993806 -0.139206
v 0.772584 -0.917516 -0.092804
v 0.708345 -0.841226 -0.046402
v 0.644106 -0.764936 0.000000
v 0.579867 -0.688646 0.046402
v 0.515628 -0.612356 0.092804
v 0.451388 -0.536066 0.139206
v 0.387149 -0.459776 0.185609
v 0.322910 -0.383486 0.232011
v 1.068406 -1.064674 -0.210031
v 0.996394 -0.992913 -0.168025
v 0.924381 -0.921151 -0.126019
v 0.852368 -0.849390 -0.084012
v 0.780356 -0.777629 -0.042006
v 0.708343 -0.705868 0.000000
v 0.636330 -0.634107 0.042006
v 0.564318 -0.562346 0.084012
v 0.492305 -0.490585 0.126019
v 0.420292 -0.418824 0.168025
v 0.348280 -0.347063 0.210031
v 1.163820 -0.973040 -0.187652
v 1.084493 -0.906717 -0.150121
v 1.005166 -0.840394 -0.112591
v 0.925839 -0.774071 -0.075061
v 0.846513 -0.707748 -0.037530
v 0.767186 -0.641425 0.000000
v 0.687859 -0.575102 0.037530
v 0.608533 -0.508779 0.075061
v 0.529206 -0.442456 0.112591
v 0.449879 -0.376133 0.150121
v 0.370552 -0.309809 0.187652
v 1.250533 -0.872272 -0.164915
v 1.164463 -0.812237 -0.131932
v 1.078394 -0.752202 -0.098949
v 0.992325 -0.692167 -0.065966
v 0.906256 -0.632132 -0.032983
v 0.820186 -0.572096 0.000000
v 0.734117 -0.512061 0.032983
v 0.648048 -0.452026 0.065966
v 0.561979 -0.391991 0.098949
v 0.475909 -0.331956 0.131932
v 0.389840 -0.271921 0.164915
v 1.327624 -0.763262 -0.141863
v 1.235487 -0.710292 -0.113491
v 1.143350 -0.657322 -0.085118
v 1.051214 -0.604352 -0.056745
v 0.959077 -0.551382 -0.028373
v 0.866941 -0.498411 0.000000
v 0.774804 -0.445441 0.028373
v 0.682667 -0.392471 0.056745
v 0.590531 -0.339501 0.085118
v 0.498394 -0.286531 0.113491
v 0.406258 -0.233561 0.141863
v 1.394268 -0.647001 -0.118542
v 1.296833 -0.601787 -0.094834
v 1.199398 -0.556573 -0.071125
v 1.101963 -0.511359 -0.047417
v 1.004528 -0.466145 -0.023708
v 0.907093 -0.420931 0.000000
v 0.809658 -0.375717 0.023708
v 0.712223 -0.330503 0.047417
v 0.614788 -0.285288 0.071125
v 0.517352 -0.240074 0.094834
v 0.419917 -0.194860 0.118542
v 1.449750 -0.524567 -0.094995
v 1.347867 -0.487702 -0.075996
v 1.245985 -0.450838 -0.056997
v 1.144102 -0.413973 -0.037998
v 1.042220 -0.377109 -0.018999
v 0.940337 -0.340245 0.000000
v 0.838454 -0.303380 0.018999
v 0.736572 -0.266516 0.037998
v 0.634689 -0.229651 0.056997
v 0.532807 -0.192787 0.075996
v 0.430924 -0.155922 0.094995
v 1.493470 -0.397108 -0.071267
v 1.388060 -0.369080 -0.057013
v 1.282650 -0.341051 -0.042760
v 1.177240 -0.313023 -0.028507
v 1.071830 -0.284995 -0.014253
v 0.966420 -0.256967 0.000000
v 0.861010 -0.228939 0.014253
v 0.755600 -0.200911 0.028507
v 0.650190 -0.172883 0.042760
v 0.544780 -0.144855 0.057013
v 0.439370 -0.116827 0.071267
v 1.524956 -0.265835 -0.047403
v 1.416994 -0.247014 -0.037922
v 1.309031 -0.228194 -0.028442
v 1.201069 -0.209374 -0.018961
v 1.093106 -0.190553 -0.009481
v 0.985144 -0.171733 0.000000
v 0.877181 -0.152913 0.009481
v 0.769218 -0.134092 0.018961
v 0.661256 -0.115272 0.028442
v 0.553293 -0.096452 0.037922
v 0.445331 -0.077631 0.047403
v 1.543867 -0.132003 -0.023449
v 1.434366 -0.122641 -0.018759
v 1.324866 -0.113278 -0.014069
v 1.215366 -0.103916 -0.009380
v 1.105865 -0.094553 -0.004690
v 0.996365 -0.085191 0.000000
v 0.886864 -0.075828 0.004690
v 0.777364 -0.066466 0.009380
v 0.667863 -0.057103 0.014069
v 0.558363 -0.047741 0.018759
v 0.448862 -0.038378 0.023449
v 1.549997 0.003100 0.000550
v 1.439997 0.002880 0.000440
v 1.329997 0.002660 0.000330
v 1.219997 0.002440 0.000220
v 1.109998 0.002220 0.000110
v 0.999998 0.002000 0.000000
v 0.889998 0.001780 -0.000110
v 0.779999 0.001560 -0.000220
v 0.669999 0.001340 -0.000330
v 0.559999 0.001120 -0.000440
v 0.449999 0.000900 -0.000550
f 1 12 2
f 2 12 13
f 2 13 3
f 3 13 14
f 3 14 4
f 4 14 15
f 4 15 5
f 5 15 16
f 5 16 6
f 6 16 17
f 6 17 7
f 7 17 18
f 7 18 8
f 8 18 19
f 8 19 9
f 9 19 20
f 9 20 10
f 10 20 21
f 10 21 11
f 11 21 22
f 12 23 13
f 13 23 24
f 13 24 14
f 14 24 25
f 14 25 15
f 15 25 26
f 15 26 16
f 16 26 27
f 16 27 17
f 17 27 28
f 17 28 18
f 18 28 29
f 18 29 19
f 19 29 30
f 19 30 20
f 20 30 31
f 20 31 21
f 21 31 32
f 21 32 22
f 22 32 33
f 23 34 24
f 24 34 35
f 24 35 25
f 25 35 36
f 25 36 26
f 26 36 37
f 26 37 27
f 27 37 38
f 27 38 28
f 28 38 39
f 28 39 29
f 29 39 40
f 29 40 30
f 30 40 41
f 30 41 31
f 31 41 42
f 31 42 32
f 32 42 43
f 32 43 33
f 33 43 44
f 34 45 35
f 35 45 46
f 35 46 36
f 36 46 47
f 36 47 37
f 37 47 48
f 37 48 38
f 38 48 49
f 38 49 39
f 39 49 50
f 39 50 40
f 40 50 51
f 40 51 41
f 41 51 52
f 41 52 42
f 42 52 53
f 42 53 43
f 43 53 54
f 43 54 44
f 44 54 55
f 45 56 46
f 46 56 57
f 46 57 47
f 47 57 58
f 47 58 48
f 48 58 59
f 48 59 49
f 49 59 60
f 49 60 50
f 50 60 61
f 50 61 51
f 51 61 62
f 51 62 52
f 52 62 63
f 52 63 53
f 53 63 64
f 53 64 54
f 54 64 65
f 54 65 55
f 55 65 66
f 56 67 57
f 57 67 68
f 57 68 58
f 58 68 69
f 58 69 59
f 59 69 70
f 59 70 60
f 60 70 71
f 60 71 61
f 61 71 72
f 61 72 62
f 62 72 73
f 62 73 63
f 63 73 74
f 63 74 64
f 64 74 75
f 64 75 65
f 65 75 76
f 65 76 66
f 66 76 77
f 67 78 68
f 68 78 79
f 68 79 69
f 69 79 80
f 69 80 70
f 70 80 81
f 70 81 71
f 71 81 82
f 71 82 72
f 72 82 83
f 72 83 73
f 73 83 84
f 73 84 74
f 74 84 85
f 74 85 75
f 75 85 86
f 75 86 76
f 76 86 87
f 76 87 77
f 77 87 88
f 78 89 79
f 79 89 90
f 79 90 80
f 80 90 91
f 80 91 81
f 81 91 92
f 81 92 82
f 82 92 93
f 82 93 83
f 83 93 94
f 83 94 84
f 84 94 95
f 84 95 85
f 85 95 96
f 85 96 86
f 86 96 97
f 86 97 87
f 87 97 98
f 87 98 88
f 88 98 99
f 89 100 90
f 90 100 101
f 90 101 91
f 91 101 102
f 91 102 92
f 92 102 103
f 92 103 93
f 93 103 104
f 93 104 94
f 94 104 105
f 94 105 95
f 95 105 106
f 95 106 96
f 96 106 107
f 96 107 97
f 97 107 108
f 97 108 98
f 98 108 109
f 98 109 99
f 99 109 110
f 100 111 101
f 101 111 112
f 101 112 102
f 102 112 113
f 102 113 103
f 103 113 114
f 103 114 104
f 104 114 115
f 104 115 105
f 105 115 116
f 105 116 106
f 106 116 117
f 106 117 107
f 107 117 118
f 107 118 108
f 108 118 119
f 108 119 109
f 109 119 120
f 109 120 110
f 110 120 121
f 111 122 112
f 112 122 123
f 112 123 113
f 113 123 124
f 113 124 114
f 114 124 125
f 114 125 115
f 115 125 126
f 115 126 116
f 116 126 127
f 116 127 117
f 117 127 128
f 117 128 118
f 118 128 129
f 118 129 119
f 119 129 130
f 119 130 120
f 120 130 131
f 120 131 121
f 121 131 132
f 122 133 123
f 123 133 134
f 123 134 124
f 124 134 135
f 124 135 125
f 125 135 136
f 125 136 126
f 126 136 137
f 126 137 127
f 127 137 138
f 127 138 128
f 128 138 139
f 128 139 129
f 129 139 140
f 129 140 130
f 130 140 141
f 130 141 131
f 131 141 142
f 131 142 132
f 132 142 143
f 133 144 134
f 134 144 145
f 134 145 135
f 135 145 146
f 135 146 136
f 136 146 147
f 136 147 137
f 137 147 148
f 137 148 138
f 138 148 149
f 138 149 139
f 139 149 150
f 139 150 140
f 140 150 151
f 140 151 141
f 141 151 152
f 141 152 142
f 142 152 153
f 142 153 143
f 143 153 154
f 144 155 145
f 145 155 156
f 145 156 146
f 146 156 157
f 146 157 147
f 147 157 158
f 147 158 148
f 148 158 159
f 148 159 149
f 149 159 160
f 149 160 150
f 150 160 161
f 150 161 151
f 151 161 162
f 151 162 152
f 152 162 163
f 152 163 153
f 153 163 164
f 153 164 154
f 154 164 165
f 155 166 156
f 156 166 167
f 156 167 157
f 157 167 168
f 157 168 158
f 158 168 169
f 158 169 159
f 159 169 170
f 159 170 160
f 160 170 171
f 160 171 161
f 161 171 172
f 161 172 162
f 162 172 173
f 162 173 163
f 163 173 174
f 163 174 164
f 164 174 175
f 164 175 165
f 165 175 176
f 166 177 167
f 167 177 178
f 167 178 168
f 168 178 179
f 168 179 169
f 169 179 180
f 169 180 170
f 170 180 181
f 170 181 171
f 171 181 182
f 171 182 172
f 172 182 183
f 172 183 173
f 173 183 184
f 173 184 174
f 174 184 185
f 174 185 175
f 175 185 186
f 175 186 176
f 176 186 187
f 177 188 178
f 178 188 189
f 178 189 179
f 179 189 190
f 179 190 180
f 180 190 191
f 180 191 181
f 181 191 192
f 181 192 182
f 182 192 193
f 182 193 183
f 183 193 194
f 183 194 184
f 184 194 195
f 184 195 185
f 185 195 196
f 185 196 186
f 186 196 197
f 186 197 187
f 187 197 198
f 188 199 189
f 189 199 200
f 189 200 190
f 190 200 201
f 190 201 191
f 191 201 202
f 191 202 192
f 192 202 203
f 192 203 193
f 193 203 204
f 193 204 194
f 194 204 205
f 194 205 195
f 195 205 206
f 195 206 196
f 196 206 207
f 196 207 197
f 197 207 208
f 197 208 198
f 198 208 209
f 199 210 200
f 200 210 211
f 200 211 201
f 201 211 212
f 201 212 202
f 202 212 213
f 202 213 203
f 203 213 214
f 203 214 204
f 204 214 215
f 204 215 205
f 205 215 216
f 205 216 206
f 206 216 217
f 206 217 207
f 207 217 218
f 207 218 208
f 208 218 219
f 208 219 209
f 209 219 220
f 210 221 211
f 211 221 222
f 211 222 212
f 212 222 223
f 212 223 213
f 213 223 224
f 213 224 214
f 214 224 225
f 214 225 215
f 215 225 226
f 215 226 216
f 216 226 227
f 216 227 217
f 217 227 228
f 217 228 218
f 218 228 229
f 218 229 219
f 219 229 230
f 219 230 220
f 220 230 231
f 221 232 222
f 222 232 233
f 222 233 223
f 223 233 234
f 223 234 224
f 224 234 235
f 224 235 225
f 225 235 236
f 225 236 226
f 226 236 237
f 226 237 227
f 227 237 238
f 227 238 228
f 228 238 239
f 228 239 229
f 229 239 240
f 229 240 230
f 230 240 241
f 230 241 231
f 231 241 242
f 232 243 233
f 233 243 244
f 233 244 234
f 234 244 245
f 234 245 235
f 235 245 246
f 235 246 236
f 236 246 247
f 236 247 237
f 237 247 248
f 237 248 238
f 238 248 249
f 238 249 239
f 239 249 250
f 239 250 240
f 240 250 251
f 240 251 241
f 241 251 252
f 241 252 242
f 242 252 253
f 243 254 244
f 244 254 255
f 244 255 245
f 245 255 256
f 245 256 246
f 246 256 257
f 246 257 247
f 247 257 258
f 247 258 248
f 248 258 259
f 248 259 249
f 249 259 260
f 249 260 250
f 250 260 261
f 250 261 251
f 251 261 262
f 251 262 252
f 252 262 263
f 252 263 253
f 253 263 264
f 254 265 255
f 255 265 266
f 255 266 256
f 256 266 267
f 256 267 257
f 257 267 268
f 257 268 258
f 258 268 269
f 258 269 259
f 259 269 270
f 259 270 260
f 260 270 271
f 260 271 261
f 261 271 272
f 261 272 262
f 262 272 273
f 262 273 263
f 263 273 274
f 263 274 264
f 264 274 275
f 265 276 266
f 266 276 277
f 266 277 267
f 267 277 278
f 267 278 268
f 268 278 279
f 268 279 269
f 269 279 280
f 269 280 270
f 270 280 281
f 270 281 271
f 271 281 282
f 271 282 272
f 272 282 283
f 272 283 273
f 273 283 284
f 273 284 274
f 274 284 285
f 274 285 275
f 275 285 286
f 276 287 277
f 277 287 288
f 277 288 278
f 278 288 289
f 278 289 279
f 279 289 290
f 279 290 280
f 280 290 291
f 280 291 281
f 281 291 292
f 281 292 282
f 282 292 293
f 282 293 283
f 283 293 294
f 283 294 284
f 284 294 295
f 284 295 285
f 285 295 296
f 285 296 286
f 286 296 297
f 287 298 288
f 288 298 299
f 288 299 289
f 289 299 300
f 289 300 290
f 290 300 301
f 290 301 291
f 291 301 302
f 291 302 292
f 292 302 303
f 292 303 293
f 293 303 304
f 293 304 294
f 294 304 305
f 294 305 295
f 295 305 306
f 295 306 296
f 296 306 307
f 296 307 297
f 297 307 308
f 298 309 299
f 299 309 310
f 299 310 300
f 300 310 311
f 300 311 301
f 301 311 312
f 301 312 302
f 302 312 313
f 302 313 303
f 303 313 314
f 303 314 304
f 304 314 315
f 304 315 305
f 305 315 316
f 305 316 306
f 306 316 317
f 306 317 307
f 307 317 318
f 307 318 308
f 308 318 319
f 309 320 310
f 310 320 321
f 310 321 311
f 311 321 322
f 311 322 312
f 312 322 323
f 312 323 313
f 313 323 324
f 313 324 314
f 314 324 325
f 314 325 315
f 315 325 326
f 315 326 316
f 316 326 327
f 316 327 317
f 317 327 328
f 317 328 318
f 318 328 329
f 318 329 319
f 319 329 330
f 320 331 321
f 321 331 332
f 321 332 322
f 322 332 333
f 322 333 323
f 323 333 334
f 323 334 324
f 324 334 335
f 324 335 325
f 325 335 336
f 325 336 326
f 326 336 337
f 326 337 327
f 327 337 338
f 327 338 328
f 328 338 339
f 328 339 329
f 329 339 340
f 329 340 330
f 330 340 341
f 331 342 332
f 332 342 343
f 332 343 333
f 333 343 344
f 333 344 334
f 334 344 345
f 334 345 335
f 335 345 346
f 335 346 336
f 336 346 347
f 336 347 337
f 337 347 348
f 337 348 338
f 338 348 349
f 338 349 339
f 339 349 350
f 339 350 340
f 340 350 351
f 340 351 341
f 341 351 352
f 342 353 343
f 343 353 354
f 343 354 344
f 344 354 355
f 344 355 345
f 345 355 356
f 345 356 346
f 346 356 357
f 346 357 347
f 347 357 358
f 347 358 348
f 348 358 359
f 348 359 349
f 349 359 360
f 349 360 350
f 350 360 361
f 350 361 351
f 351 361 362
f 351 362 352
f 352 362 363
f 353 364 354
f 354 364 365
f 354 365 355
f 355 365 366
f 355 366 356
f 356 366 367
f 356 367 357
f 357 367 368
f 357 368 358
f 358 368 369
f 358 369 359
f 359 369 370
f 359 370 360
f 360 370 371
f 360 371 361
f 361 371 372
f 361 372 362
f 362 372 373
f 362 373 363
f 363 373 374
f 364 375 365
f 365 375 376
f 365 376 366
f 366 376 377
f 366 377 367
f 367 377 378
f 367 378 368
f 368 378 379
f 368 379 369
f 369 379 380
f 369 380 370
f 370 380 381
f 370 381 371
f 371 381 382
f 371 382 372
f 372 382 383
f 372 383 373
f 373 383 384
f 373 384 374
f 374 384 385
f 375 386 376
f 376 386 387
f 376 387 377
f 377 387 388
f 377 388 378
f 378 388 389
f 378 389 379
f 379 389 390
f 379 390 380
f 380 390 391
f 380 391 381
f 381 391 392
f 381 392 382
f 382 392 393
f 382 393 383
f 383 393 394
f 383 394 384
f 384 394 395
f 384 395 385
f 385 395 396
f 386 397 387
f 387 397 398
f 387 398 388
f 388 398 399
f 388 399 389
f 389 399 400
f 389 400 390
f 390 400 401
f 390 401 391
f 391 401 402
f 391 402 392
f 392 402 403
f 392 403 393
f 393 403 404
f 393 404 394
f 394 404 405
f 394 405 395
f 395 405 406
f 395 406 396
f 396 406 407
f 397 408 398
f 398 408 409
f 398 409 399
f 399 409 410
f 399 410 400
f 400 410 411
f 400 411 401
f 401 411 412
f 401 412 402
f 402 412 413
f 402 413 403
f 403 413 414
f 403 414 404
f 404 414 415
f 404 415 405
f 405 415 416
f 405 416 406
f 406 416 417
f 406 417 407
f 407 417 418
f 408 419 409
f 409 419 420
f 409 420 410
f 410 420 421
f 410 421 411
f 411 421 422
f 411 422 412
f 412 422 423
f 412 423 413
f 413 423 424
f 413 424 414
f 414 424 425
f 414 425 415
f 415 425 426
f 415 426 416
f 416 426 427
f 416 427 417
f 417 427 428
f 417 428 418
f 418 428 429
f 419 430 420
f 420 430 431
f 420 431 421
f 421 431 432
f 421 432 422
f 422 432 433
f 422 433 423
f 423 433 434
f 423 434 424
f 424 434 435
f 424 435 425
f 425 435 436
f 425 436 426
f 426 436 437
f 426 437 427
f 427 437 438
f 427 438 428
f 428 438 439
f 428 439 429
f 429 439 440
f 430 441 431
f 431 441 442
f 431 442 432
f 432 442 443
f 432 443 433
f 433 443 444
f 433 444 434
f 434 444 445
f 434 445 435
f 435 445 446
f 435 446 436
f 436 446 447
f 436 447 437
f 437 447 448
f 437 448 438
f 438 448 449
f 438 449 439
f 439 449 450
f 439 450 440
f 440 450 451
f 441 452 442
f 442 452 453
f 442 453 443
f 443 453 454
f 443 454 444
f 444 454 455
f 444 455 445
f 445 455 456
f 445 456 446
f 446 456 457
f 446 457 447
f 447 457 458
f 447 458 448
f 448 458 459
f 448 459 449
f 449 459 460
f 449 460 450
f 450 460 461
f 450 461 451
f 451 461 462
f 452 463 453
f 453 463 464
f 453 464 454
f 454 464 465
f 454 465 455
f 455 465 466
f 455 466 456
f 456 466 467
f 456 467 457
f 457 467 468
f 457 468 458
f 458 468 469
f 458 469 459
f 459 469 470
f 459 470 460
f 460 470 471
f 460 471 461
f 461 471 472
f 461 472 462
f 462 472 473
f 463 474 464
f 464 474 475
f 464 475 465
f 465 475 476
f 465 476 466
f 466 476 477
f 466 477 467
f 467 477 478
f 467 478 468
f 468 478 479
f 468 479 469
f 469 479 480
f 469 480 470
f 470 480 481
f 470 481 471
f 471 481 482
f 471 482 472
f 472 482 483
f 472 483 473
f 473 483 484
f 474 485 475
f 475 485 486
f 475 486 476
f 476 486 487
f 476 487 477
f 477 487 488
f 477 488 478
f 478 488 489
f 478 489 479
f 479 489 490
f 479 490 480
f 480 490 491
f 480 491 481
f 481 491 492
f 481 492 482
f 482 492 493
f 482 493 483
f 483 493 494
f 483 494 484
f 484 494 495
f 485 496 486
f 486 496 497
f 486 497 487
f 487 497 498
f 487 498 488
f 488 498 499
f 488 499 489
f 489 499 500
f 489 500 490
f 490 500 501
f 490 501 491
f 491 501 502
f 491 502 492
f 492 502 503
f 492 503 493
f 493 503 504
f 493 504 494
f 494 504 505
f 494 505 495
f 495 505 506
f 496 507 497
f 497 507 508
f 497 508 498
f 498 508 509
f 498 509 499
f 499 509 510
f 499 510 500
f 500 510 511
f 500 511 501
f 501 511 512
f 501 512 502
f 502 512 513
f 502 513 503
f 503 513 514
f 503 514 504
f 504 514 515
f 504 515 505
f 505 515 516
f 505 516 506
f 506 516 517
f 507 518 508
f 508 518 519
f 508 519 509
f 509 519 520
f 509 520 510
f 510 520 521
f 510 521 511
f 511 521 522
f 511 522 512
f 512 522 523
f 512 523 513
f 513 523 524
f 513 524 514
f 514 524 525
f 514 525 515
f 515 525 526
f 515 526 516
f 516 526 527
f 516 527 517
f 517 527 528
f 518 529 519
f 519 529 530
f 519 530 520
f 520 530 531
f 520 531 521
f 521 531 532
f 521 532 522
f 522 532 533
f 522 533 523
f 523 533 534
f 523 534 524
f 524 534 535
f 524 535 525
f 525 535 536
f 525 536 526
f 526 536 537
f 526 537 527
f 527 537 538
f 527 538 528
f 528 538 539
f 529 540 530
f 530 540 541
f 530 541 531
f 531 541 542
f 531 542 532
f 532 542 543
f 532 543 533
f 533 543 544
f 533 544 534
f 534 544 545
f 534 545 535
f 535 545 546
f 535 546 536
f 536 546 547
f 536 547 537
f 537 547 548
f 537 548 538
f 538 548 549
f 538 549 539
f 539 549 550
f 540 551 541
f 541 551 552
f 541 552 542
f 542 552 553
f 542 553 543
f 543 553 554
f 543 554 544
f 544 554 555
f 544 555 545
f 545 555 556
f 545 556 546
f 546 556 557
f 546 557 547
f 547 557 558
f 547 558 548
f 548 558 559
f 548 559 549
f 549 559 560
f 549 560 550
f 550 560 561
f 551 562 552
f 552 562 563
f 552 563 553
f 553 563 564
f 553 564 554
f 554 564 565
f 554 565 555
f 555 565 566
f 555 566 556
f 556 566 567
f 556 567 557
f 557 567 568
f 557 568 558
f 558 568 569
f 558 569 559
f 559 569 570
f 559 570 560
f 560 570 571
f 560 571 561
f 561 571 572
f 562 573 563
f 563 573 574
f 563 574 564
f 564 574 575
f 564 575 565
f 565 575 576
f 565 576 566
f 566 576 577
f 566 577 567
f 567 577 578
f 567 578 568
f 568 578 579
f 568 579 569
f 569 579 580
f 569 580 570
f 570 580 581
f 570 581 571
f 571 581 582
f 571 582 572
f 572 582 583
f 573 584 574
f 574 584 585
f 574 585 575
f 575 585 586
f 575 586 576
f 576 586 587
f 576 587 577
f 577 587 588
f 577 588 578
f 578 588 589
f 578 589 579
f 579 589 590
f 579 590 580
f 580 590 591
f 580 591 581
f 581 591 592
f 581 592 582
f 582 592 593
f 582 593 583
f 583 593 594
f 584 595 585
f 585 595 596
f 585 596 586
f 586 596 597
f 586 597 587
f 587 597 598
f 587 598 588
f 588 598 599
f 588 599 589
f 589 599 600
f 589 600 590
f 590 600 601
f 590 601 591
f 591 601 602
f 591 602 592
f 592 602 603
f 592 603 593
f 593 603 604
f 593 604 594
f 594 604 605
f 595 606 596
f 596 606 607
f 596 607 597
f 597 607 608
f 597 608 598
f 598 608 609
f 598 609 599
f 599 609 610
f 599 610 600
f 600 610 611
f 600 611 601
f 601 611 612
f 601 612 602
f 602 612 613
f 602 613 603
f 603 613 614
f 603 614 604
f 604 614 615
f 604 615 605
f 605 615 616
f 606 617 607
f 607 617 618
f 607 618 608
f 608 618 619
f 608 619 609
f 609 619 620
f 609 620 610
f 610 620 621
f 610 621 611
f 611 621 622
f 611 622 612
f 612 622 623
f 612 623 613
f 613 623 624
f 613 624 614
f 614 624 625
f 614 625 615
f 615 625 626
f 615 626 616
f 616 626 627
f 617 628 618
f 618 628 629
f 618 629 619
f 619 629 630
f 619 630 620
f 620 630 631
f 620 631 621
f 621 631 632
f 621 632 622
f 622 632 633
f 622 633 623
f 623 633 634
f 623 634 624
f 624 634 635
f 624 635 625
f 625 635 636
f 625 636 626
f 626 636 637
f 626 637 627
f 627 637 638
f 628 639 629
f 629 639 640
f 629 640 630
f 630 640 641
f 630 641 631
f 631 641 642
f 631 642 632
f 632 642 643
f 632 643 633
f 633 643 644
f 633 644 634
f 634 644 645
f 634 645 635
f 635 645 646
f 635 646 636
f 636 646 647
f 636 647 637
f 637 647 648
f 637 648 638
f 638 648 649
f 639 650 640
f 640 650 651
f 640 651 641
f 641 651 652
f 641 652 642
f 642 652 653
f 642 653 643
f 643 653 654
f 643 654 644
f 644 654 655
f 644 655 645
f 645 655 656
f 645 656 646
f 646 656 657
f 646 657 647
f 647 657 658
f 647 658 648
f 648 658 659
f 648 659 649
f 649 659 660
f 650 661 651
f 651 661 662
f 651 662 652
f 652 662 663
f 652 663 653
f 653 663 664
f 653 664 654
f 654 664 665
f 654 665 655
f 655 665 666
f 655 666 656
f 656 666 667
f 656 667 657
f 657 667 668
f 657 668 658
f 658 668 669
f 658 669 659
f 659 669 670
f 659 670 660
f 660 670 671
f 661 672 662
f 662 672 673
f 662 673 663
f 663 673 674
f 663 674 664
f 664 674 675
f 664 675 665
f 665 675 676
f 665 676 666
f 666 676 677
f 666 677 667
f 667 677 678
f 667 678 668
f 668 678 679
f 668 679 669
f 669 679 680
f 669 680 670
f 670 680 681
f 670 681 671
f 671 681 682
f 672 683 673
f 673 683 684
f 673 684 674
f 674 684 685
f 674 685 675
f 675 685 686
f 675 686 676
f 676 686 687
f 676 687 677
f 677 687 688
f 677 688 678
f 678 688 689
f 678 689 679
f 679 689 690
f 679 690 680
f 680 690 691
f 680 691 681
f 681 691 692
f 681 692 682
f 682 692 693
f 683 694 684
f 684 694 695
f 684 695 685
f 685 695 696
f 685 696 686
f 686 696 697
f 686 697 687
f 687 697 698
f 687 698 688
f 688 698 699
f 688 699 689
f 689 699 700
f 689 700 690
f 690 700 701
f 690 701 691
f 691 701 702
f 691 702 692
f 692 702 703
f 692 703 693
f 693 703 704
f 694 705 695
f 695 705 706
f 695 706 696
f 696 706 707
f 696 707 697
f 697 707 708
f 697 708 698
f 698 708 709
f 698 709 699
f 699 709 710
f 699 710 700
f 700 710 711
f 700 711 701
f 701 711 712
f 701 712 702
f 702 712 713
f 702 713 703
f 703 713 714
f 703 714 704
f 704 714 715
f 705 716 706
f 706 716 717
f 706 717 707
f 707 717 718
f 707 718 708
f 708 718 719
f 708 719 709
f 709 719 720
f 709 720 710
f 710 720 721
f 710 721 711
f 711 721 722
f 711 722 712
f 712 722 723
f 712 723 713
f 713 723 724
f 713 724 714
f 714 724 725
f 714 725 715
f 715 725 726
f 716 727 717
f 717 727 728
f 717 728 718
f 718 728 729
f 718 729 719
f 719 729 730
f 719 730 720
f 720 730 731
f 720 731 721
f 721 731 732
f 721 732 722
f 722 732 733
f 722 733 723
f 723 733 734
f 723 734 724
f 724 734 735
f 724 735 725
f 725 735 736
f 725 736 726
f 726 736 737
f 727 738 728
f 728 738 739
f 728 739 729
f 729 739 740
f 729 740 730
f 730 740 741
f 730 741 731
f 731 741 742
f 731 742 732
f 732 742 743
f 732 743 733
f 733 743 744
f 733 744 734
f 734 744 745
f 734 745 735
f 735 745 746
f 735 746 736
f 736 746 747
f 736 747 737
f 737 747 748
f 738 749 739
f 739 749 750
f 739 750 740
f 740 750 751
f 740 751 741
f 741 751 752
f 741 752 742
f 742 752 753
f 742 753 743
f 743 753 754
f 743 754 744
f 744 754 755
f 744 755 745
f 745 755 756
f 745 756 746
f 746 756 757
f 746 757 747
f 747 757 758
f 747 758 748
f 748 758 759
f 749 760 750
f 750 760 761
f 750 761 751
f 751 761 762
f 751 762 752
f 752 762 763
f 752 763 753
f 753 763 764
f 753 764 754
f 754 764 765
f 754 765 755
f 755 765 766
f 755 766 756
f 756 766 767
f 756 767 757
f 757 767 768
f 757 768 758
f 758 768 769
f 758 769 759
f 759 769 770
f 760 771 761
f 761 771 772
f 761 772 762
f 762 772 773
f 762 773 763
f 763 773 774
f 763 774 764
f 764 774 775
f 764 775 765
f 765 775 776
f 765 776 766
f 766 776 777
f 766 777 767
f 767 777 778
f 767 778 768
f 768 778 779
f 768 779 769
f 769 779 780
f 769 780 770
f 770 780 781
f 771 782 772
f 772 782 783
f 772 783 773
f 773 783 784
f 773 784 774
f 774 784 785
f 774 785 775
f 775 785 786
f 775 786 776
f 776 786 787
f 776 787 777
f 777 787 788
f 777 788 778
f 778 788 789
f 778 789 779
f 779 789 790
f 779 790 780
f 780 790 791
f 780 791 781
f 781 791 792
f 782 793 783
f 783 793 794
f 783 794 784
f 784 794 795
f 784 795 785
f 785 795 796
f 785 796 786
f 786 796 797
f 786 797 787
f 787 797 798
f 787 798 788
f 788 798 799
f 788 799 789
f 789 799 800
f 789 800 790
f 790 800 801
f 790 801 791
f 791 801 802
f 791 802 792
f 792 802 803
