<?xml version="1.0" encoding="utf-8"?>
<svg xmlns="http://www.w3.org/2000/svg" xmlns:xlink="http://www.w3.org/1999/xlink" width="600" height="400" viewBox="0 0 2400 1600">
<defs>
  <clipPath id="clip880">
    <rect x="0" y="0" width="2400" height="1600"/>
  </clipPath>
</defs>
<path clip-path="url(#clip880)" d="M0 1600 L2400 1600 L2400 0 L0 0  Z" fill="#ffffff" fill-rule="evenodd" fill-opacity="1"/>
<defs>
  <clipPath id="clip881">
    <rect x="480" y="0" width="1681" height="1600"/>
  </clipPath>
</defs>
<path clip-path="url(#clip880)" d="M148.057 1486.45 L2352.76 1486.45 L2352.76 47.2441 L148.057 47.2441  Z" fill="#ffffff" fill-rule="evenodd" fill-opacity="1"/>
<defs>
  <clipPath id="clip882">
    <rect x="148" y="47" width="2206" height="1440"/>
  </clipPath>
</defs>
<polyline clip-path="url(#clip882)" style="stroke:#000000; stroke-linecap:round; stroke-linejoin:round; stroke-width:2; stroke-opacity:0.1; fill:none" points="210.454,1486.45 210.454,47.2441 "/>
<polyline clip-path="url(#clip882)" style="stroke:#000000; stroke-linecap:round; stroke-linejoin:round; stroke-width:2; stroke-opacity:0.1; fill:none" points="730.43,1486.45 730.43,47.2441 "/>
<polyline clip-path="url(#clip882)" style="stroke:#000000; stroke-linecap:round; stroke-linejoin:round; stroke-width:2; stroke-opacity:0.1; fill:none" points="1250.41,1486.45 1250.41,47.2441 "/>
<polyline clip-path="url(#clip882)" style="stroke:#000000; stroke-linecap:round; stroke-linejoin:round; stroke-width:2; stroke-opacity:0.1; fill:none" points="1770.38,1486.45 1770.38,47.2441 "/>
<polyline clip-path="url(#clip882)" style="stroke:#000000; stroke-linecap:round; stroke-linejoin:round; stroke-width:2; stroke-opacity:0.1; fill:none" points="2290.36,1486.45 2290.36,47.2441 "/>
<polyline clip-path="url(#clip880)" style="stroke:#000000; stroke-linecap:round; stroke-linejoin:round; stroke-width:4; stroke-opacity:1; fill:none" points="148.057,1486.45 2352.76,1486.45 "/>
<polyline clip-path="url(#clip880)" style="stroke:#000000; stroke-linecap:round; stroke-linejoin:round; stroke-width:4; stroke-opacity:1; fill:none" points="210.454,1486.45 210.454,1467.55 "/>
<polyline clip-path="url(#clip880)" style="stroke:#000000; stroke-linecap:round; stroke-linejoin:round; stroke-width:4; stroke-opacity:1; fill:none" points="730.43,1486.45 730.43,1467.55 "/>
<polyline clip-path="url(#clip880)" style="stroke:#000000; stroke-linecap:round; stroke-linejoin:round; stroke-width:4; stroke-opacity:1; fill:none" points="1250.41,1486.45 1250.41,1467.55 "/>
<polyline clip-path="url(#clip880)" style="stroke:#000000; stroke-linecap:round; stroke-linejoin:round; stroke-width:4; stroke-opacity:1; fill:none" points="1770.38,1486.45 1770.38,1467.55 "/>
<polyline clip-path="url(#clip880)" style="stroke:#000000; stroke-linecap:round; stroke-linejoin:round; stroke-width:4; stroke-opacity:1; fill:none" points="2290.36,1486.45 2290.36,1467.55 "/>
<path clip-path="url(#clip880)" d="M187.838 1517.37 Q184.227 1517.37 182.398 1520.93 Q180.593 1524.47 180.593 1531.6 Q180.593 1538.71 182.398 1542.27 Q184.227 1545.82 187.838 1545.82 Q191.472 1545.82 193.278 1542.27 Q195.107 1538.71 195.107 1531.6 Q195.107 1524.47 193.278 1520.93 Q191.472 1517.37 187.838 1517.37 M187.838 1513.66 Q193.648 1513.66 196.704 1518.27 Q199.783 1522.85 199.783 1531.6 Q199.783 1540.33 196.704 1544.94 Q193.648 1549.52 187.838 1549.52 Q182.028 1549.52 178.949 1544.94 Q175.894 1540.33 175.894 1531.6 Q175.894 1522.85 178.949 1518.27 Q182.028 1513.66 187.838 1513.66 Z" fill="#000000" fill-rule="nonzero" fill-opacity="1" /><path clip-path="url(#clip880)" d="M208 1542.97 L212.884 1542.97 L212.884 1548.85 L208 1548.85 L208 1542.97 Z" fill="#000000" fill-rule="nonzero" fill-opacity="1" /><path clip-path="url(#clip880)" d="M233.069 1517.37 Q229.458 1517.37 227.63 1520.93 Q225.824 1524.47 225.824 1531.6 Q225.824 1538.71 227.63 1542.27 Q229.458 1545.82 233.069 1545.82 Q236.704 1545.82 238.509 1542.27 Q240.338 1538.71 240.338 1531.6 Q240.338 1524.47 238.509 1520.93 Q236.704 1517.37 233.069 1517.37 M233.069 1513.66 Q238.88 1513.66 241.935 1518.27 Q245.014 1522.85 245.014 1531.6 Q245.014 1540.33 241.935 1544.94 Q238.88 1549.52 233.069 1549.52 Q227.259 1549.52 224.181 1544.94 Q221.125 1540.33 221.125 1531.6 Q221.125 1522.85 224.181 1518.27 Q227.259 1513.66 233.069 1513.66 Z" fill="#000000" fill-rule="nonzero" fill-opacity="1" /><path clip-path="url(#clip880)" d="M702.166 1544.91 L718.486 1544.91 L718.486 1548.85 L696.541 1548.85 L696.541 1544.91 Q699.203 1542.16 703.787 1537.53 Q708.393 1532.88 709.574 1531.53 Q711.819 1529.01 712.699 1527.27 Q713.601 1525.51 713.601 1523.82 Q713.601 1521.07 711.657 1519.33 Q709.736 1517.6 706.634 1517.6 Q704.435 1517.6 701.981 1518.36 Q699.551 1519.13 696.773 1520.68 L696.773 1515.95 Q699.597 1514.82 702.051 1514.24 Q704.504 1513.66 706.541 1513.66 Q711.912 1513.66 715.106 1516.35 Q718.3 1519.03 718.3 1523.52 Q718.3 1525.65 717.49 1527.57 Q716.703 1529.47 714.597 1532.07 Q714.018 1532.74 710.916 1535.95 Q707.814 1539.15 702.166 1544.91 Z" fill="#000000" fill-rule="nonzero" fill-opacity="1" /><path clip-path="url(#clip880)" d="M728.3 1542.97 L733.185 1542.97 L733.185 1548.85 L728.3 1548.85 L728.3 1542.97 Z" fill="#000000" fill-rule="nonzero" fill-opacity="1" /><path clip-path="url(#clip880)" d="M743.416 1514.29 L761.772 1514.29 L761.772 1518.22 L747.698 1518.22 L747.698 1526.7 Q748.717 1526.35 749.735 1526.19 Q750.754 1526 751.772 1526 Q757.559 1526 760.939 1529.17 Q764.319 1532.34 764.319 1537.76 Q764.319 1543.34 760.847 1546.44 Q757.374 1549.52 751.055 1549.52 Q748.879 1549.52 746.61 1549.15 Q744.365 1548.78 741.958 1548.04 L741.958 1543.34 Q744.041 1544.47 746.263 1545.03 Q748.485 1545.58 750.962 1545.58 Q754.967 1545.58 757.305 1543.48 Q759.643 1541.37 759.643 1537.76 Q759.643 1534.15 757.305 1532.04 Q754.967 1529.94 750.962 1529.94 Q749.087 1529.94 747.212 1530.35 Q745.36 1530.77 743.416 1531.65 L743.416 1514.29 Z" fill="#000000" fill-rule="nonzero" fill-opacity="1" /><path clip-path="url(#clip880)" d="M1217.57 1514.29 L1235.93 1514.29 L1235.93 1518.22 L1221.85 1518.22 L1221.85 1526.7 Q1222.87 1526.35 1223.89 1526.19 Q1224.91 1526 1225.93 1526 Q1231.71 1526 1235.09 1529.17 Q1238.47 1532.34 1238.47 1537.76 Q1238.47 1543.34 1235 1546.44 Q1231.53 1549.52 1225.21 1549.52 Q1223.03 1549.52 1220.77 1549.15 Q1218.52 1548.78 1216.11 1548.04 L1216.11 1543.34 Q1218.2 1544.47 1220.42 1545.03 Q1222.64 1545.58 1225.12 1545.58 Q1229.12 1545.58 1231.46 1543.48 Q1233.8 1541.37 1233.8 1537.76 Q1233.8 1534.15 1231.46 1532.04 Q1229.12 1529.94 1225.12 1529.94 Q1223.24 1529.94 1221.37 1530.35 Q1219.52 1530.77 1217.57 1531.65 L1217.57 1514.29 Z" fill="#000000" fill-rule="nonzero" fill-opacity="1" /><path clip-path="url(#clip880)" d="M1247.69 1542.97 L1252.57 1542.97 L1252.57 1548.85 L1247.69 1548.85 L1247.69 1542.97 Z" fill="#000000" fill-rule="nonzero" fill-opacity="1" /><path clip-path="url(#clip880)" d="M1272.76 1517.37 Q1269.14 1517.37 1267.32 1520.93 Q1265.51 1524.47 1265.51 1531.6 Q1265.51 1538.71 1267.32 1542.27 Q1269.14 1545.82 1272.76 1545.82 Q1276.39 1545.82 1278.2 1542.27 Q1280.02 1538.71 1280.02 1531.6 Q1280.02 1524.47 1278.2 1520.93 Q1276.39 1517.37 1272.76 1517.37 M1272.76 1513.66 Q1278.57 1513.66 1281.62 1518.27 Q1284.7 1522.85 1284.7 1531.6 Q1284.7 1540.33 1281.62 1544.94 Q1278.57 1549.52 1272.76 1549.52 Q1266.95 1549.52 1263.87 1544.94 Q1260.81 1540.33 1260.81 1531.6 Q1260.81 1522.85 1263.87 1518.27 Q1266.95 1513.66 1272.76 1513.66 Z" fill="#000000" fill-rule="nonzero" fill-opacity="1" /><path clip-path="url(#clip880)" d="M1736.7 1514.29 L1758.92 1514.29 L1758.92 1516.28 L1746.38 1548.85 L1741.49 1548.85 L1753.3 1518.22 L1736.7 1518.22 L1736.7 1514.29 Z" fill="#000000" fill-rule="nonzero" fill-opacity="1" /><path clip-path="url(#clip880)" d="M1768.04 1542.97 L1772.93 1542.97 L1772.93 1548.85 L1768.04 1548.85 L1768.04 1542.97 Z" fill="#000000" fill-rule="nonzero" fill-opacity="1" /><path clip-path="url(#clip880)" d="M1783.16 1514.29 L1801.52 1514.29 L1801.52 1518.22 L1787.44 1518.22 L1787.44 1526.7 Q1788.46 1526.35 1789.48 1526.19 Q1790.5 1526 1791.52 1526 Q1797.3 1526 1800.68 1529.17 Q1804.06 1532.34 1804.06 1537.76 Q1804.06 1543.34 1800.59 1546.44 Q1797.12 1549.52 1790.8 1549.52 Q1788.62 1549.52 1786.35 1549.15 Q1784.11 1548.78 1781.7 1548.04 L1781.7 1543.34 Q1783.79 1544.47 1786.01 1545.03 Q1788.23 1545.58 1790.71 1545.58 Q1794.71 1545.58 1797.05 1543.48 Q1799.39 1541.37 1799.39 1537.76 Q1799.39 1534.15 1797.05 1532.04 Q1794.71 1529.94 1790.71 1529.94 Q1788.83 1529.94 1786.96 1530.35 Q1785.1 1530.77 1783.16 1531.65 L1783.16 1514.29 Z" fill="#000000" fill-rule="nonzero" fill-opacity="1" /><path clip-path="url(#clip880)" d="M2242.43 1544.91 L2250.07 1544.91 L2250.07 1518.55 L2241.76 1520.21 L2241.76 1515.95 L2250.02 1514.29 L2254.7 1514.29 L2254.7 1544.91 L2262.34 1544.91 L2262.34 1548.85 L2242.43 1548.85 L2242.43 1544.91 Z" fill="#000000" fill-rule="nonzero" fill-opacity="1" /><path clip-path="url(#clip880)" d="M2281.78 1517.37 Q2278.17 1517.37 2276.34 1520.93 Q2274.54 1524.47 2274.54 1531.6 Q2274.54 1538.71 2276.34 1542.27 Q2278.17 1545.82 2281.78 1545.82 Q2285.42 1545.82 2287.22 1542.27 Q2289.05 1538.71 2289.05 1531.6 Q2289.05 1524.47 2287.22 1520.93 Q2285.42 1517.37 2281.78 1517.37 M2281.78 1513.66 Q2287.59 1513.66 2290.65 1518.27 Q2293.73 1522.85 2293.73 1531.6 Q2293.73 1540.33 2290.65 1544.94 Q2287.59 1549.52 2281.78 1549.52 Q2275.97 1549.52 2272.89 1544.94 Q2269.84 1540.33 2269.84 1531.6 Q2269.84 1522.85 2272.89 1518.27 Q2275.97 1513.66 2281.78 1513.66 Z" fill="#000000" fill-rule="nonzero" fill-opacity="1" /><path clip-path="url(#clip880)" d="M2301.94 1542.97 L2306.83 1542.97 L2306.83 1548.85 L2301.94 1548.85 L2301.94 1542.97 Z" fill="#000000" fill-rule="nonzero" fill-opacity="1" /><path clip-path="url(#clip880)" d="M2327.01 1517.37 Q2323.4 1517.37 2321.57 1520.93 Q2319.77 1524.47 2319.77 1531.6 Q2319.77 1538.71 2321.57 1542.27 Q2323.4 1545.82 2327.01 1545.82 Q2330.65 1545.82 2332.45 1542.27 Q2334.28 1538.71 2334.28 1531.6 Q2334.28 1524.47 2332.45 1520.93 Q2330.65 1517.37 2327.01 1517.37 M2327.01 1513.66 Q2332.82 1513.66 2335.88 1518.27 Q2338.96 1522.85 2338.96 1531.6 Q2338.96 1540.33 2335.88 1544.94 Q2332.82 1549.52 2327.01 1549.52 Q2321.2 1549.52 2318.12 1544.94 Q2315.07 1540.33 2315.07 1531.6 Q2315.07 1522.85 2318.12 1518.27 Q2321.2 1513.66 2327.01 1513.66 Z" fill="#000000" fill-rule="nonzero" fill-opacity="1" /><polyline clip-path="url(#clip882)" style="stroke:#000000; stroke-linecap:round; stroke-linejoin:round; stroke-width:2; stroke-opacity:0.1; fill:none" points="148.057,1415.57 2352.76,1415.57 "/>
<polyline clip-path="url(#clip882)" style="stroke:#000000; stroke-linecap:round; stroke-linejoin:round; stroke-width:2; stroke-opacity:0.1; fill:none" points="148.057,1199.26 2352.76,1199.26 "/>
<polyline clip-path="url(#clip882)" style="stroke:#000000; stroke-linecap:round; stroke-linejoin:round; stroke-width:2; stroke-opacity:0.1; fill:none" points="148.057,982.952 2352.76,982.952 "/>
<polyline clip-path="url(#clip882)" style="stroke:#000000; stroke-linecap:round; stroke-linejoin:round; stroke-width:2; stroke-opacity:0.1; fill:none" points="148.057,766.641 2352.76,766.641 "/>
<polyline clip-path="url(#clip882)" style="stroke:#000000; stroke-linecap:round; stroke-linejoin:round; stroke-width:2; stroke-opacity:0.1; fill:none" points="148.057,550.33 2352.76,550.33 "/>
<polyline clip-path="url(#clip882)" style="stroke:#000000; stroke-linecap:round; stroke-linejoin:round; stroke-width:2; stroke-opacity:0.1; fill:none" points="148.057,334.02 2352.76,334.02 "/>
<polyline clip-path="url(#clip882)" style="stroke:#000000; stroke-linecap:round; stroke-linejoin:round; stroke-width:2; stroke-opacity:0.1; fill:none" points="148.057,117.709 2352.76,117.709 "/>
<polyline clip-path="url(#clip880)" style="stroke:#000000; stroke-linecap:round; stroke-linejoin:round; stroke-width:4; stroke-opacity:1; fill:none" points="148.057,1486.45 148.057,47.2441 "/>
<polyline clip-path="url(#clip880)" style="stroke:#000000; stroke-linecap:round; stroke-linejoin:round; stroke-width:4; stroke-opacity:1; fill:none" points="148.057,1415.57 166.954,1415.57 "/>
<polyline clip-path="url(#clip880)" style="stroke:#000000; stroke-linecap:round; stroke-linejoin:round; stroke-width:4; stroke-opacity:1; fill:none" points="148.057,1199.26 166.954,1199.26 "/>
<polyline clip-path="url(#clip880)" style="stroke:#000000; stroke-linecap:round; stroke-linejoin:round; stroke-width:4; stroke-opacity:1; fill:none" points="148.057,982.952 166.954,982.952 "/>
<polyline clip-path="url(#clip880)" style="stroke:#000000; stroke-linecap:round; stroke-linejoin:round; stroke-width:4; stroke-opacity:1; fill:none" points="148.057,766.641 166.954,766.641 "/>
<polyline clip-path="url(#clip880)" style="stroke:#000000; stroke-linecap:round; stroke-linejoin:round; stroke-width:4; stroke-opacity:1; fill:none" points="148.057,550.33 166.954,550.33 "/>
<polyline clip-path="url(#clip880)" style="stroke:#000000; stroke-linecap:round; stroke-linejoin:round; stroke-width:4; stroke-opacity:1; fill:none" points="148.057,334.02 166.954,334.02 "/>
<polyline clip-path="url(#clip880)" style="stroke:#000000; stroke-linecap:round; stroke-linejoin:round; stroke-width:4; stroke-opacity:1; fill:none" points="148.057,117.709 166.954,117.709 "/>
<path clip-path="url(#clip880)" d="M50.9921 1416.02 L80.6679 1416.02 L80.6679 1419.96 L50.9921 1419.96 L50.9921 1416.02 Z" fill="#000000" fill-rule="nonzero" fill-opacity="1" /><path clip-path="url(#clip880)" d="M104.927 1414.22 Q108.283 1414.94 110.158 1417.2 Q112.057 1419.47 112.057 1422.81 Q112.057 1427.92 108.538 1430.72 Q105.02 1433.52 98.5382 1433.52 Q96.3623 1433.52 94.0475 1433.08 Q91.7558 1432.67 89.3021 1431.81 L89.3021 1427.3 Q91.2465 1428.43 93.5613 1429.01 Q95.8761 1429.59 98.3993 1429.59 Q102.797 1429.59 105.089 1427.85 Q107.404 1426.12 107.404 1422.81 Q107.404 1419.75 105.251 1418.04 Q103.121 1416.3 99.3021 1416.3 L95.2743 1416.3 L95.2743 1412.46 L99.4872 1412.46 Q102.936 1412.46 104.765 1411.09 Q106.594 1409.71 106.594 1407.11 Q106.594 1404.45 104.696 1403.04 Q102.821 1401.6 99.3021 1401.6 Q97.3808 1401.6 95.1817 1402.02 Q92.9826 1402.44 90.3438 1403.32 L90.3438 1399.15 Q93.0058 1398.41 95.3206 1398.04 Q97.6585 1397.67 99.7187 1397.67 Q105.043 1397.67 108.145 1400.1 Q111.246 1402.51 111.246 1406.63 Q111.246 1409.5 109.603 1411.49 Q107.959 1413.46 104.927 1414.22 Z" fill="#000000" fill-rule="nonzero" fill-opacity="1" /><path clip-path="url(#clip880)" d="M51.9412 1199.71 L81.617 1199.71 L81.617 1203.65 L51.9412 1203.65 L51.9412 1199.71 Z" fill="#000000" fill-rule="nonzero" fill-opacity="1" /><path clip-path="url(#clip880)" d="M95.7373 1212.61 L112.057 1212.61 L112.057 1216.54 L90.1123 1216.54 L90.1123 1212.61 Q92.7743 1209.85 97.3576 1205.22 Q101.964 1200.57 103.145 1199.23 Q105.39 1196.7 106.27 1194.97 Q107.172 1193.21 107.172 1191.52 Q107.172 1188.76 105.228 1187.03 Q103.307 1185.29 100.205 1185.29 Q98.0058 1185.29 95.5521 1186.06 Q93.1215 1186.82 90.3438 1188.37 L90.3438 1183.65 Q93.1678 1182.51 95.6215 1181.94 Q98.0752 1181.36 100.112 1181.36 Q105.483 1181.36 108.677 1184.04 Q111.871 1186.73 111.871 1191.22 Q111.871 1193.35 111.061 1195.27 Q110.274 1197.17 108.168 1199.76 Q107.589 1200.43 104.487 1203.65 Q101.385 1206.84 95.7373 1212.61 Z" fill="#000000" fill-rule="nonzero" fill-opacity="1" /><path clip-path="url(#clip880)" d="M51.5708 983.403 L81.2466 983.403 L81.2466 987.338 L51.5708 987.338 L51.5708 983.403 Z" fill="#000000" fill-rule="nonzero" fill-opacity="1" /><path clip-path="url(#clip880)" d="M92.1493 996.296 L99.7882 996.296 L99.7882 969.931 L91.478 971.598 L91.478 967.338 L99.7419 965.672 L104.418 965.672 L104.418 996.296 L112.057 996.296 L112.057 1000.23 L92.1493 1000.23 L92.1493 996.296 Z" fill="#000000" fill-rule="nonzero" fill-opacity="1" /><path clip-path="url(#clip880)" d="M100.112 752.44 Q96.5011 752.44 94.6724 756.004 Q92.8669 759.546 92.8669 766.676 Q92.8669 773.782 94.6724 777.347 Q96.5011 780.889 100.112 780.889 Q103.746 780.889 105.552 777.347 Q107.381 773.782 107.381 766.676 Q107.381 759.546 105.552 756.004 Q103.746 752.44 100.112 752.44 M100.112 748.736 Q105.922 748.736 108.978 753.342 Q112.057 757.926 112.057 766.676 Q112.057 775.402 108.978 780.009 Q105.922 784.592 100.112 784.592 Q94.3021 784.592 91.2234 780.009 Q88.1679 775.402 88.1679 766.676 Q88.1679 757.926 91.2234 753.342 Q94.3021 748.736 100.112 748.736 Z" fill="#000000" fill-rule="nonzero" fill-opacity="1" /><path clip-path="url(#clip880)" d="M92.1493 563.675 L99.7882 563.675 L99.7882 537.309 L91.478 538.976 L91.478 534.717 L99.7419 533.05 L104.418 533.05 L104.418 563.675 L112.057 563.675 L112.057 567.61 L92.1493 567.61 L92.1493 563.675 Z" fill="#000000" fill-rule="nonzero" fill-opacity="1" /><path clip-path="url(#clip880)" d="M95.7373 347.364 L112.057 347.364 L112.057 351.3 L90.1123 351.3 L90.1123 347.364 Q92.7743 344.61 97.3576 339.98 Q101.964 335.327 103.145 333.985 Q105.39 331.462 106.27 329.726 Q107.172 327.966 107.172 326.277 Q107.172 323.522 105.228 321.786 Q103.307 320.05 100.205 320.05 Q98.0058 320.05 95.5521 320.814 Q93.1215 321.577 90.3438 323.128 L90.3438 318.406 Q93.1678 317.272 95.6215 316.693 Q98.0752 316.115 100.112 316.115 Q105.483 316.115 108.677 318.8 Q111.871 321.485 111.871 325.976 Q111.871 328.105 111.061 330.026 Q110.274 331.925 108.168 334.517 Q107.589 335.189 104.487 338.406 Q101.385 341.601 95.7373 347.364 Z" fill="#000000" fill-rule="nonzero" fill-opacity="1" /><path clip-path="url(#clip880)" d="M104.927 116.355 Q108.283 117.072 110.158 119.341 Q112.057 121.609 112.057 124.943 Q112.057 130.058 108.538 132.859 Q105.02 135.66 98.5382 135.66 Q96.3623 135.66 94.0475 135.22 Q91.7558 134.804 89.3021 133.947 L89.3021 129.433 Q91.2465 130.568 93.5613 131.146 Q95.8761 131.725 98.3993 131.725 Q102.797 131.725 105.089 129.989 Q107.404 128.253 107.404 124.943 Q107.404 121.887 105.251 120.174 Q103.121 118.438 99.3021 118.438 L95.2743 118.438 L95.2743 114.595 L99.4872 114.595 Q102.936 114.595 104.765 113.23 Q106.594 111.841 106.594 109.248 Q106.594 106.586 104.696 105.174 Q102.821 103.739 99.3021 103.739 Q97.3808 103.739 95.1817 104.156 Q92.9826 104.572 90.3438 105.452 L90.3438 101.285 Q93.0058 100.545 95.3206 100.174 Q97.6585 99.8038 99.7187 99.8038 Q105.043 99.8038 108.145 102.234 Q111.246 104.642 111.246 108.762 Q111.246 111.632 109.603 113.623 Q107.959 115.591 104.927 116.355 Z" fill="#000000" fill-rule="nonzero" fill-opacity="1" /><polyline clip-path="url(#clip882)" style="stroke:#009af9; stroke-linecap:round; stroke-linejoin:round; stroke-width:4; stroke-opacity:1; fill:none" points="210.454,724.168 218.807,670.413 227.16,618.14 235.513,568.023 243.866,520.641 252.219,476.346 260.572,435.405 268.925,397.862 277.278,363.733 285.631,332.861 293.984,305.112 302.337,280.243 310.69,258.05 319.043,238.282 327.396,220.721 335.749,205.141 344.102,191.336 352.455,179.122 360.808,168.314 369.161,158.77 377.514,150.329 385.867,142.886 394.22,136.304 402.574,130.507 410.927,125.379 419.28,120.867 427.633,116.876 435.986,113.365 444.339,110.259 452.692,107.529 461.045,105.113 469.398,102.989 477.751,101.111 486.104,99.4599 494.457,98 502.81,96.7164 511.163,95.5825 519.516,94.5849 527.869,93.7051 536.222,92.9302 544.575,92.2486 552.928,91.6469 561.281,91.1206 569.634,90.6533 577.987,90.2499 586.34,89.8861 594.693,89.5812 603.046,89.2967 611.399,89.0707 619.752,88.8495 628.105,88.6849 636.458,88.5169 644.811,88.399 653.164,88.2771 661.517,88.196 669.871,88.1135 678.224,88.0639 686.577,88.0152 694.93,87.9946 703.283,87.9763 711.636,87.9835 719.989,87.9941 728.342,88.0295 736.695,88.07 745.048,88.1359 753.401,88.209 761.754,88.309 770.107,88.4197 778.46,88.56 786.813,88.7158 795.166,88.9048 803.519,89.116 811.872,89.3652 820.225,89.6456 828.578,89.9709 836.931,90.3382 845.284,90.7601 853.637,91.2377 861.99,91.7832 870.343,92.4013 878.696,93.105 887.049,93.9029 895.402,94.8095 903.755,95.8379 912.108,97.0049 920.461,98.3293 928.815,99.8306 937.168,101.535 945.521,103.466 953.874,105.659 962.227,108.141 970.58,110.961 978.933,114.153 987.286,117.778 995.639,121.88 1003.99,126.538 1012.34,131.809 1020.7,137.789 1029.05,144.56 1037.4,152.232 1045.76,160.919 1054.11,170.749 1062.46,181.877 1070.82,194.446 1079.17,208.661 1087.52,224.678 1095.88,242.756 1104.23,263.058 1112.58,285.882 1120.93,311.391 1129.29,339.883 1137.64,371.487 1145.99,406.44 1154.35,444.763 1162.7,486.533 1171.05,531.56 1179.41,579.653 1187.76,630.314 1196.11,683.026 1204.46,736.995 1212.82,791.464 1221.17,845.51 1229.52,898.367 1237.88,949.234 1246.23,997.575 1254.58,1042.89 1262.94,1084.95 1271.29,1123.58 1279.64,1158.83 1287.99,1190.73 1296.35,1219.49 1304.7,1245.25 1313.05,1268.3 1321.41,1288.82 1329.76,1307.09 1338.11,1323.28 1346.47,1337.65 1354.82,1350.35 1363.17,1361.61 1371.53,1371.54 1379.88,1380.33 1388.23,1388.08 1396.58,1394.93 1404.94,1400.97 1413.29,1406.31 1421.64,1411.01 1430,1415.17 1438.35,1418.83 1446.7,1422.06 1455.06,1424.91 1463.41,1427.42 1471.76,1429.64 1480.11,1431.6 1488.47,1433.32 1496.82,1434.84 1505.17,1436.18 1513.53,1437.36 1521.88,1438.41 1530.23,1439.32 1538.59,1440.13 1546.94,1440.85 1555.29,1441.48 1563.64,1442.03 1572,1442.52 1580.35,1442.95 1588.7,1443.33 1597.06,1443.66 1605.41,1443.96 1613.76,1444.22 1622.12,1444.44 1630.47,1444.64 1638.82,1444.82 1647.18,1444.97 1655.53,1445.1 1663.88,1445.22 1672.23,1445.32 1680.59,1445.4 1688.94,1445.48 1697.29,1445.54 1705.65,1445.59 1714,1445.63 1722.35,1445.66 1730.71,1445.69 1739.06,1445.7 1747.41,1445.72 1755.76,1445.71 1764.12,1445.71 1772.47,1445.69 1780.82,1445.67 1789.18,1445.64 1797.53,1445.6 1805.88,1445.55 1814.24,1445.49 1822.59,1445.42 1830.94,1445.33 1839.3,1445.24 1847.65,1445.12 1856,1444.99 1864.35,1444.84 1872.71,1444.67 1881.06,1444.48 1889.41,1444.26 1897.77,1444 1906.12,1443.72 1914.47,1443.39 1922.83,1443.02 1931.18,1442.6 1939.53,1442.12 1947.88,1441.58 1956.24,1440.96 1964.59,1440.26 1972.94,1439.47 1981.3,1438.57 1989.65,1437.55 1998,1436.39 2006.36,1435.08 2014.71,1433.59 2023.06,1431.9 2031.41,1429.99 2039.77,1427.82 2048.12,1425.36 2056.47,1422.57 2064.83,1419.4 2073.18,1415.82 2081.53,1411.75 2089.89,1407.14 2098.24,1401.92 2106.59,1396 2114.95,1389.3 2123.3,1381.7 2131.65,1373.1 2140,1363.36 2148.36,1352.35 2156.71,1339.89 2165.06,1325.83 2173.42,1309.95 2181.77,1292.06 2190.12,1271.93 2198.48,1249.33 2206.83,1224.03 2215.18,1195.8 2223.53,1164.43 2231.89,1129.77 2240.24,1091.7 2248.59,1050.22 2256.95,1005.43 2265.3,957.58 2273.65,907.09 2282.01,854.531 2290.36,800.619 "/>
<path clip-path="url(#clip880)" d="M1730.63 198.898 L2279.27 198.898 L2279.27 95.2176 L1730.63 95.2176  Z" fill="#ffffff" fill-rule="evenodd" fill-opacity="1"/>
<polyline clip-path="url(#clip880)" style="stroke:#000000; stroke-linecap:round; stroke-linejoin:round; stroke-width:4; stroke-opacity:1; fill:none" points="1730.63,198.898 2279.27,198.898 2279.27,95.2176 1730.63,95.2176 1730.63,198.898 "/>
<polyline clip-path="url(#clip880)" style="stroke:#009af9; stroke-linecap:round; stroke-linejoin:round; stroke-width:4; stroke-opacity:1; fill:none" points="1755.12,147.058 1902.1,147.058 "/>
<path clip-path="url(#clip880)" d="M1931 151.398 Q1931 156.097 1932.92 158.782 Q1934.86 161.444 1938.24 161.444 Q1941.62 161.444 1943.57 158.782 Q1945.51 156.097 1945.51 151.398 Q1945.51 146.699 1943.57 144.037 Q1941.62 141.352 1938.24 141.352 Q1934.86 141.352 1932.92 144.037 Q1931 146.699 1931 151.398 M1945.51 160.449 Q1944.17 162.763 1942.11 163.898 Q1940.07 165.009 1937.2 165.009 Q1932.5 165.009 1929.54 161.259 Q1926.6 157.509 1926.6 151.398 Q1926.6 145.287 1929.54 141.537 Q1932.5 137.787 1937.2 137.787 Q1940.07 137.787 1942.11 138.921 Q1944.17 140.032 1945.51 142.347 L1945.51 138.412 L1949.77 138.412 L1949.77 174.199 L1945.51 174.199 L1945.51 160.449 Z" fill="#000000" fill-rule="nonzero" fill-opacity="1" /><path clip-path="url(#clip880)" d="M1968.78 128.366 Q1965.67 133.69 1964.17 138.898 Q1962.66 144.106 1962.66 149.453 Q1962.66 154.801 1964.17 160.055 Q1965.7 165.287 1968.78 170.588 L1965.07 170.588 Q1961.6 165.148 1959.86 159.893 Q1958.15 154.639 1958.15 149.453 Q1958.15 144.291 1959.86 139.06 Q1961.58 133.828 1965.07 128.366 L1968.78 128.366 Z" fill="#000000" fill-rule="nonzero" fill-opacity="1" /><path clip-path="url(#clip880)" d="M1981.25 131.051 L1981.25 138.412 L1990.03 138.412 L1990.03 141.722 L1981.25 141.722 L1981.25 155.796 Q1981.25 158.967 1982.11 159.87 Q1982.99 160.773 1985.65 160.773 L1990.03 160.773 L1990.03 164.338 L1985.65 164.338 Q1980.72 164.338 1978.84 162.509 Q1976.97 160.657 1976.97 155.796 L1976.97 141.722 L1973.84 141.722 L1973.84 138.412 L1976.97 138.412 L1976.97 131.051 L1981.25 131.051 Z" fill="#000000" fill-rule="nonzero" fill-opacity="1" /><path clip-path="url(#clip880)" d="M1994.96 128.366 L1998.66 128.366 Q2002.13 133.828 2003.84 139.06 Q2005.58 144.291 2005.58 149.453 Q2005.58 154.639 2003.84 159.893 Q2002.13 165.148 1998.66 170.588 L1994.96 170.588 Q1998.03 165.287 1999.54 160.055 Q2001.07 154.801 2001.07 149.453 Q2001.07 144.106 1999.54 138.898 Q1998.03 133.69 1994.96 128.366 Z" fill="#000000" fill-rule="nonzero" fill-opacity="1" /><path clip-path="url(#clip880)" d="M2039.24 141.398 Q2035.81 141.398 2033.82 144.083 Q2031.83 146.745 2031.83 151.398 Q2031.83 156.051 2033.8 158.736 Q2035.79 161.398 2039.24 161.398 Q2042.64 161.398 2044.63 158.713 Q2046.62 156.027 2046.62 151.398 Q2046.62 146.791 2044.63 144.106 Q2042.64 141.398 2039.24 141.398 M2039.24 137.787 Q2044.79 137.787 2047.96 141.398 Q2051.14 145.009 2051.14 151.398 Q2051.14 157.764 2047.96 161.398 Q2044.79 165.009 2039.24 165.009 Q2033.66 165.009 2030.49 161.398 Q2027.34 157.764 2027.34 151.398 Q2027.34 145.009 2030.49 141.398 Q2033.66 137.787 2039.24 137.787 Z" fill="#000000" fill-rule="nonzero" fill-opacity="1" /><path clip-path="url(#clip880)" d="M2062.32 160.449 L2062.32 174.199 L2058.03 174.199 L2058.03 138.412 L2062.32 138.412 L2062.32 142.347 Q2063.66 140.032 2065.7 138.921 Q2067.76 137.787 2070.6 137.787 Q2075.33 137.787 2078.27 141.537 Q2081.23 145.287 2081.23 151.398 Q2081.23 157.509 2078.27 161.259 Q2075.33 165.009 2070.6 165.009 Q2067.76 165.009 2065.7 163.898 Q2063.66 162.763 2062.32 160.449 M2076.81 151.398 Q2076.81 146.699 2074.86 144.037 Q2072.94 141.352 2069.56 141.352 Q2066.18 141.352 2064.24 144.037 Q2062.32 146.699 2062.32 151.398 Q2062.32 156.097 2064.24 158.782 Q2066.18 161.444 2069.56 161.444 Q2072.94 161.444 2074.86 158.782 Q2076.81 156.097 2076.81 151.398 Z" fill="#000000" fill-rule="nonzero" fill-opacity="1" /><path clip-path="url(#clip880)" d="M2092.5 131.051 L2092.5 138.412 L2101.27 138.412 L2101.27 141.722 L2092.5 141.722 L2092.5 155.796 Q2092.5 158.967 2093.36 159.87 Q2094.24 160.773 2096.9 160.773 L2101.27 160.773 L2101.27 164.338 L2096.9 164.338 Q2091.97 164.338 2090.09 162.509 Q2088.22 160.657 2088.22 155.796 L2088.22 141.722 L2085.09 141.722 L2085.09 138.412 L2088.22 138.412 L2088.22 131.051 L2092.5 131.051 Z" fill="#000000" fill-rule="nonzero" fill-opacity="1" /><path clip-path="url(#clip880)" d="M2106.88 138.412 L2111.14 138.412 L2111.14 164.338 L2106.88 164.338 L2106.88 138.412 M2106.88 128.319 L2111.14 128.319 L2111.14 133.713 L2106.88 133.713 L2106.88 128.319 Z" fill="#000000" fill-rule="nonzero" fill-opacity="1" /><path clip-path="url(#clip880)" d="M2140.23 143.389 Q2141.83 140.518 2144.05 139.153 Q2146.27 137.787 2149.28 137.787 Q2153.33 137.787 2155.53 140.634 Q2157.73 143.458 2157.73 148.689 L2157.73 164.338 L2153.45 164.338 L2153.45 148.828 Q2153.45 145.102 2152.13 143.296 Q2150.81 141.49 2148.1 141.49 Q2144.79 141.49 2142.87 143.69 Q2140.95 145.889 2140.95 149.685 L2140.95 164.338 L2136.67 164.338 L2136.67 148.828 Q2136.67 145.078 2135.35 143.296 Q2134.03 141.49 2131.27 141.49 Q2128.01 141.49 2126.09 143.713 Q2124.17 145.912 2124.17 149.685 L2124.17 164.338 L2119.89 164.338 L2119.89 138.412 L2124.17 138.412 L2124.17 142.44 Q2125.63 140.055 2127.66 138.921 Q2129.7 137.787 2132.5 137.787 Q2135.33 137.787 2137.29 139.222 Q2139.28 140.657 2140.23 143.389 Z" fill="#000000" fill-rule="nonzero" fill-opacity="1" /><path clip-path="url(#clip880)" d="M2166.23 138.412 L2170.49 138.412 L2170.49 164.338 L2166.23 164.338 L2166.23 138.412 M2166.23 128.319 L2170.49 128.319 L2170.49 133.713 L2166.23 133.713 L2166.23 128.319 Z" fill="#000000" fill-rule="nonzero" fill-opacity="1" /><path clip-path="url(#clip880)" d="M2177.55 138.412 L2197.78 138.412 L2197.78 142.301 L2181.76 160.935 L2197.78 160.935 L2197.78 164.338 L2176.97 164.338 L2176.97 160.449 L2192.99 141.815 L2177.55 141.815 L2177.55 138.412 Z" fill="#000000" fill-rule="nonzero" fill-opacity="1" /><path clip-path="url(#clip880)" d="M2226.46 150.31 L2226.46 152.393 L2206.88 152.393 Q2207.15 156.791 2209.51 159.106 Q2211.9 161.398 2216.14 161.398 Q2218.59 161.398 2220.88 160.796 Q2223.2 160.194 2225.46 158.99 L2225.46 163.018 Q2223.17 163.99 2220.76 164.5 Q2218.36 165.009 2215.88 165.009 Q2209.68 165.009 2206.04 161.398 Q2202.43 157.787 2202.43 151.629 Q2202.43 145.264 2205.86 141.537 Q2209.31 137.787 2215.14 137.787 Q2220.37 137.787 2223.4 141.166 Q2226.46 144.523 2226.46 150.31 M2222.2 149.06 Q2222.15 145.565 2220.23 143.481 Q2218.33 141.398 2215.19 141.398 Q2211.62 141.398 2209.47 143.412 Q2207.34 145.426 2207.01 149.083 L2222.2 149.06 Z" fill="#000000" fill-rule="nonzero" fill-opacity="1" /><path clip-path="url(#clip880)" d="M2250.51 142.347 L2250.51 128.319 L2254.77 128.319 L2254.77 164.338 L2250.51 164.338 L2250.51 160.449 Q2249.17 162.763 2247.11 163.898 Q2245.07 165.009 2242.2 165.009 Q2237.5 165.009 2234.54 161.259 Q2231.6 157.509 2231.6 151.398 Q2231.6 145.287 2234.54 141.537 Q2237.5 137.787 2242.2 137.787 Q2245.07 137.787 2247.11 138.921 Q2249.17 140.032 2250.51 142.347 M2236 151.398 Q2236 156.097 2237.92 158.782 Q2239.86 161.444 2243.24 161.444 Q2246.62 161.444 2248.57 158.782 Q2250.51 156.097 2250.51 151.398 Q2250.51 146.699 2248.57 144.037 Q2246.62 141.352 2243.24 141.352 Q2239.86 141.352 2237.92 144.037 Q2236 146.699 2236 151.398 Z" fill="#000000" fill-rule="nonzero" fill-opacity="1" /></svg>
