<?xml version="1.0" encoding="UTF-8" standalone="no"?>
<!-- Created with Inkscape (http://www.inkscape.org/) -->

<svg
   width="210mm"
   height="297mm"
   viewBox="0 0 210 297"
   version="1.1"
   id="svg1"
   inkscape:version="1.3.2 (091e20e, 2023-11-25, custom)"
   sodipodi:docname="student_gov_logo.svg"
   inkscape:export-filename="student_gov_logo-plain.svg"
   inkscape:export-xdpi="96"
   inkscape:export-ydpi="96"
   xmlns:inkscape="http://www.inkscape.org/namespaces/inkscape"
   xmlns:sodipodi="http://sodipodi.sourceforge.net/DTD/sodipodi-0.dtd"
   xmlns="http://www.w3.org/2000/svg"
   xmlns:svg="http://www.w3.org/2000/svg">
  <sodipodi:namedview
     id="namedview1"
     pagecolor="#ffffff"
     bordercolor="#000000"
     borderopacity="0.25"
     inkscape:showpageshadow="2"
     inkscape:pageopacity="0.0"
     inkscape:pagecheckerboard="0"
     inkscape:deskcolor="#d1d1d1"
     inkscape:document-units="mm"
     showgrid="true"
     inkscape:zoom="2"
     inkscape:cx="231.75"
     inkscape:cy="150.5"
     inkscape:window-width="1920"
     inkscape:window-height="991"
     inkscape:window-x="-9"
     inkscape:window-y="-9"
     inkscape:window-maximized="1"
     inkscape:current-layer="layer1">
    <inkscape:grid
       id="grid1"
       units="mm"
       originx="0"
       originy="0"
       spacingx="0.99999998"
       spacingy="1"
       empcolor="#0099e5"
       empopacity="0.30196078"
       color="#0099e5"
       opacity="0.14901961"
       empspacing="5"
       dotted="false"
       gridanglex="30"
       gridanglez="30"
       visible="true" />
  </sodipodi:namedview>
  <defs
     id="defs1">
    <rect
       x="94.488191"
       y="219.21259"
       width="340.15749"
       height="45.354329"
       id="rect3" />
    <rect
       x="132.28347"
       y="215.43306"
       width="340.84822"
       height="48.284845"
       id="rect18" />
  </defs>
  <g
     inkscape:label="图层 1"
     inkscape:groupmode="layer"
     id="layer1">
    <path
       style="fill:#800000;fill-opacity:1;stroke-width:0.264583"
       d="m 25,34.999998 10.000001,-9.999999 9.999998,9.999999 2e-6,15.000001 h -20 z"
       id="path1"
       sodipodi:nodetypes="cccccc" />
    <path
       style="fill:#800000;fill-opacity:1;stroke-width:0.264583"
       d="M 54.999999,30.559375 60,34.999998"
       id="path2" />
    <path
       style="fill:#800000;fill-opacity:1;stroke-width:0.264583"
       d="M 59.116669,34.999999 H 81.11667 v -10 c -8.666667,0 33.26191,8e-6 -22.000001,0 z"
       id="path3"
       sodipodi:nodetypes="ccccc" />
    <path
       style="fill:#800000;fill-opacity:1;stroke-width:0.264583"
       d="M 59.116669,39.999999 V 54.999998"
       id="path4" />
    <path
       style="fill:#800000;fill-opacity:1;stroke-width:0.264583"
       d="M 59.116669,39.999999 V 54.999998"
       id="path6" />
    <path
       style="fill:#800000;fill-opacity:1;stroke-width:0.264583"
       d="m 59.116669,36.999999 v 13 h 4 v -13 z"
       id="path7"
       sodipodi:nodetypes="ccccc" />
    <path
       style="fill:#800000;fill-opacity:1;stroke-width:0.264583"
       d="m 65.116669,36.999999 v 13 h 4.000001 l -10e-7,-13 z"
       id="path8"
       sodipodi:nodetypes="ccccc" />
    <path
       style="fill:#800000;fill-opacity:1;stroke-width:0.264583"
       d="m 71.116669,36.999999 10e-7,13 h 4 l -10e-7,-13 z"
       id="path9"
       sodipodi:nodetypes="ccccc" />
    <path
       style="fill:#800000;fill-opacity:1;stroke-width:0.264583"
       d="m 77.116669,36.999999 10e-7,13 h 4 v -13 z"
       id="path10"
       sodipodi:nodetypes="ccccc" />
    <path
       style="fill:#800000;fill-opacity:1;stroke-width:0.264583"
       d="m 95.000002,34.999998 10.000028,-9.999999 10.00005,9.999999 V 49.999999 H 95.000004 Z"
       id="path11"
       sodipodi:nodetypes="cccccc" />
    <path
       style="fill:#800000;fill-opacity:1;stroke-width:0.264583"
       d="m 43.000001,29.999998 5,5"
       id="path14" />
    <path
       style="fill:#800000;fill-opacity:1;stroke-width:0.264583"
       d="m 43.000001,29.999998 4,4 0,6.000001 h 10 l 0,-10 z"
       id="path15"
       sodipodi:nodetypes="cccccc" />
    <path
       style="fill:#800000;fill-opacity:1;stroke-width:0.264583"
       d="M 83,49.999997 H 93.000001"
       id="path16" />
    <path
       style="fill:#800000;fill-opacity:1;stroke-width:0.264583"
       d="m 83.000002,39.999999 h 10 l -10e-7,-6.000001 4.000001,-3.999999 h -14 z"
       id="path17"
       sodipodi:nodetypes="cccccc" />
    <path
       style="fill:#800000;fill-opacity:1;stroke-width:0.264583"
       d="m 25,51.999999 v 2.999999 h 90 v -2.999999 z"
       id="path18" />
    <text
       xml:space="preserve"
       transform="matrix(0.26458333,0,0,0.26458333,-10.182756,0.22463656)"
       id="text18"
       style="font-size:30.6667px;white-space:pre;shape-inside:url(#rect18);display:inline;fill:#800000;fill-opacity:1"
       x="2196.8809"
       y="0" />
    <path
       style="fill:#800000;fill-opacity:1;stroke-width:0.264583"
       d="m 63.000001,63.999998 h 5.000001 l -10e-7,-7.000002 H 25 l 1e-6,16.000002 h 38 l 0,39.000002 -33,-33.000002 v -2 h -5 v 4 L 68.000002,124 l 0,-56.000002 H 30.000001 v -6 h 33 z"
       id="path20"
       sodipodi:nodetypes="ccccccccccccccccc" />
    <path
       style="fill:#800000;fill-opacity:1;stroke-width:0.264583"
       d="M 115,63.999998 V 56.999996 H 72.000001 L 72.000005,124 115,80.999998 v -13 H 85.000005 l -3e-6,7 h 5 l 3e-6,-2 H 110 v 6 L 77.000005,112 l -3e-6,-50.000002 H 110 v 2 z"
       id="path21"
       sodipodi:nodetypes="ccccccccccccccccc" />
    <path
       style="fill:#800000;stroke-width:0.264583"
       d="m 47.000001,41.999999 h 10 l 1e-6,7.999998 H 47.000001 Z"
       id="path5"
       sodipodi:nodetypes="ccccc" />
    <path
       style="fill:#800000;stroke-width:0.264583"
       d="m 83.000002,41.999999 h 10 l -10e-7,7.999998 H 83 Z"
       id="path12"
       sodipodi:nodetypes="ccccc" />
  </g>
</svg>
